<mxfile host="app.diagrams.net" agent="Mozilla/5.0 (Windows NT 10.0; Win64; x64) AppleWebKit/537.36 (KHTML, like Gecko) Chrome/138.0.0.0 Safari/537.36" version="28.0.4">
  <diagram name="第 1 页" id="r2SSU7r75QTRr_G6e_ju">
    <mxGraphModel grid="1" page="1" gridSize="10" guides="1" tooltips="1" connect="1" arrows="1" fold="1" pageScale="1" pageWidth="827" pageHeight="1169" math="0" shadow="0">
      <root>
        <mxCell id="0" />
        <mxCell id="1" parent="0" />
        <mxCell id="32m44d9N0e-9UPWyHcc5-240" style="edgeStyle=orthogonalEdgeStyle;rounded=0;orthogonalLoop=1;jettySize=auto;html=1;curved=1;" edge="1" parent="1" source="pGybzTgQX5mhtwK9b5BW-57" target="32m44d9N0e-9UPWyHcc5-228">
          <mxGeometry relative="1" as="geometry">
            <Array as="points">
              <mxPoint x="1240" y="10180" />
            </Array>
          </mxGeometry>
        </mxCell>
        <mxCell id="32m44d9N0e-9UPWyHcc5-243" value="&lt;font style=&quot;font-size: 14px; color: light-dark(rgb(0, 0, 0), rgb(128, 255, 0));&quot;&gt;驱动&lt;/font&gt;" style="edgeLabel;html=1;align=center;verticalAlign=middle;resizable=0;points=[];" connectable="0" vertex="1" parent="32m44d9N0e-9UPWyHcc5-240">
          <mxGeometry x="0.0332" relative="1" as="geometry">
            <mxPoint as="offset" />
          </mxGeometry>
        </mxCell>
        <mxCell id="32m44d9N0e-9UPWyHcc5-210" value="" style="group" connectable="0" vertex="1" parent="1">
          <mxGeometry x="1130" y="9810" width="720" height="610" as="geometry" />
        </mxCell>
        <mxCell id="32m44d9N0e-9UPWyHcc5-224" style="rounded=0;orthogonalLoop=1;jettySize=auto;html=1;" edge="1" parent="32m44d9N0e-9UPWyHcc5-210" source="pGybzTgQX5mhtwK9b5BW-57" target="32m44d9N0e-9UPWyHcc5-131">
          <mxGeometry relative="1" as="geometry" />
        </mxCell>
        <mxCell id="32m44d9N0e-9UPWyHcc5-225" value="&lt;span style=&quot;font-size: 14px;&quot;&gt;&lt;font style=&quot;color: light-dark(rgb(0, 255, 0), rgb(128, 255, 0));&quot;&gt;创建&lt;/font&gt;&lt;/span&gt;" style="edgeLabel;html=1;align=center;verticalAlign=middle;resizable=0;points=[];" connectable="0" vertex="1" parent="32m44d9N0e-9UPWyHcc5-224">
          <mxGeometry x="-0.3298" relative="1" as="geometry">
            <mxPoint y="53" as="offset" />
          </mxGeometry>
        </mxCell>
        <mxCell id="32m44d9N0e-9UPWyHcc5-211" value="" style="rounded=0;whiteSpace=wrap;html=1;fillColor=none;strokeColor=light-dark(#82B366,#00FF00);" vertex="1" parent="32m44d9N0e-9UPWyHcc5-210">
          <mxGeometry width="720" height="610" as="geometry" />
        </mxCell>
        <mxCell id="32m44d9N0e-9UPWyHcc5-212" value="&lt;font style=&quot;color: light-dark(rgb(186, 105, 34), rgb(0, 0, 0));&quot;&gt;&lt;span style=&quot;font-size: 16px;&quot;&gt;代表玩家的游戏框架参与者&lt;/span&gt;&lt;/font&gt;" style="shape=note;whiteSpace=wrap;html=1;backgroundOutline=1;darkOpacity=0.05;fillStyle=solid;direction=west;gradientDirection=north;shadow=1;size=20;pointerEvents=1;fillColor=light-dark(#F5F5F5,#00FF00);strokeColor=#666666;fontColor=#333333;align=right;" vertex="1" parent="32m44d9N0e-9UPWyHcc5-210">
          <mxGeometry x="446.89655172413796" width="273.1034482758621" height="39.68893617021276" as="geometry" />
        </mxCell>
        <mxCell id="pGybzTgQX5mhtwK9b5BW-57" value="&lt;span style=&quot;font-family: Inter, -apple-system, BlinkMacSystemFont, &amp;quot;Segoe UI&amp;quot;, Roboto, &amp;quot;Helvetica Neue&amp;quot;, Arial, sans-serif, &amp;quot;Apple Color Emoji&amp;quot;, &amp;quot;Segoe UI Emoji&amp;quot;, &amp;quot;Segoe UI Symbol&amp;quot;; font-size: 18px; font-weight: 400; text-align: start;&quot;&gt;APlayerController&lt;/span&gt;" style="swimlane;fontStyle=1;align=center;verticalAlign=top;childLayout=stackLayout;horizontal=1;startSize=26;horizontalStack=0;resizeParent=1;resizeParentMax=0;resizeLast=0;collapsible=1;marginBottom=0;whiteSpace=wrap;html=1;" vertex="1" parent="32m44d9N0e-9UPWyHcc5-210">
          <mxGeometry x="414.75" y="256" width="180" height="78" as="geometry" />
        </mxCell>
        <mxCell id="pGybzTgQX5mhtwK9b5BW-58" value="+ PlayerState: APlayerState&lt;div&gt;+ Player: U&lt;span style=&quot;background-color: transparent; color: light-dark(rgb(0, 0, 0), rgb(255, 255, 255));&quot;&gt;Player&lt;/span&gt;&lt;/div&gt;&lt;div&gt;+ Pawn: APawn&lt;span style=&quot;background-color: transparent; color: light-dark(rgb(0, 0, 0), rgb(255, 255, 255));&quot;&gt;&lt;/span&gt;&lt;/div&gt;" style="text;strokeColor=none;fillColor=none;align=left;verticalAlign=top;spacingLeft=4;spacingRight=4;overflow=hidden;rotatable=0;points=[[0,0.5],[1,0.5]];portConstraint=eastwest;whiteSpace=wrap;html=1;" vertex="1" parent="pGybzTgQX5mhtwK9b5BW-57">
          <mxGeometry y="26" width="180" height="44" as="geometry" />
        </mxCell>
        <mxCell id="pGybzTgQX5mhtwK9b5BW-59" value="" style="line;strokeWidth=1;fillColor=none;align=left;verticalAlign=middle;spacingTop=-1;spacingLeft=3;spacingRight=3;rotatable=0;labelPosition=right;points=[];portConstraint=eastwest;strokeColor=inherit;" vertex="1" parent="pGybzTgQX5mhtwK9b5BW-57">
          <mxGeometry y="70" width="180" height="8" as="geometry" />
        </mxCell>
        <mxCell id="32m44d9N0e-9UPWyHcc5-226" value="&lt;div&gt;&lt;font color=&quot;#dc7e2b&quot;&gt;&lt;span style=&quot;font-size: 16px;&quot;&gt;（&lt;/span&gt;&lt;/font&gt;&lt;span style=&quot;font-size: 16px; background-color: transparent;&quot;&gt;&lt;b style=&quot;&quot;&gt;&lt;font style=&quot;color: light-dark(rgb(186, 105, 34), rgb(255, 0, 0));&quot;&gt;SERVER-AUTHORIATIVE、&lt;br&gt;&lt;/font&gt;&lt;/b&gt;&lt;/span&gt;&lt;span style=&quot;background-color: transparent; font-size: 16px;&quot;&gt;&lt;font style=&quot;color: light-dark(rgb(220, 126, 43), rgb(255, 0, 0));&quot;&gt;仅复制到所属客户端&lt;/font&gt;&lt;/span&gt;&lt;span style=&quot;color: light-dark(rgb(220, 126, 43), rgb(186, 105, 34)); background-color: transparent; font-size: 16px;&quot;&gt;）&lt;/span&gt;&lt;/div&gt;" style="shape=note;whiteSpace=wrap;html=1;backgroundOutline=1;darkOpacity=0.05;fillStyle=solid;direction=west;gradientDirection=north;shadow=1;size=20;pointerEvents=1;fillColor=#f5f5f5;strokeColor=#666666;fontColor=#333333;align=center;" vertex="1" parent="32m44d9N0e-9UPWyHcc5-210">
          <mxGeometry x="390" y="334" width="229.5" height="56" as="geometry" />
        </mxCell>
        <mxCell id="32m44d9N0e-9UPWyHcc5-131" value="&lt;span style=&quot;font-family: Inter, -apple-system, BlinkMacSystemFont, &amp;quot;Segoe UI&amp;quot;, Roboto, &amp;quot;Helvetica Neue&amp;quot;, Arial, sans-serif, &amp;quot;Apple Color Emoji&amp;quot;, &amp;quot;Segoe UI Emoji&amp;quot;, &amp;quot;Segoe UI Symbol&amp;quot;; font-weight: 400; text-align: start;&quot;&gt;&lt;font style=&quot;font-size: 18px;&quot;&gt;APlayerState&lt;/font&gt;&lt;/span&gt;" style="swimlane;fontStyle=1;align=center;verticalAlign=top;childLayout=stackLayout;horizontal=1;startSize=26;horizontalStack=0;resizeParent=1;resizeParentMax=0;resizeLast=0;collapsible=1;marginBottom=0;whiteSpace=wrap;html=1;" vertex="1" parent="32m44d9N0e-9UPWyHcc5-210">
          <mxGeometry x="420" y="520" width="180" height="34" as="geometry" />
        </mxCell>
        <mxCell id="32m44d9N0e-9UPWyHcc5-132" value="" style="line;strokeWidth=1;fillColor=none;align=left;verticalAlign=middle;spacingTop=-1;spacingLeft=3;spacingRight=3;rotatable=0;labelPosition=right;points=[];portConstraint=eastwest;strokeColor=inherit;" vertex="1" parent="32m44d9N0e-9UPWyHcc5-131">
          <mxGeometry y="26" width="180" height="8" as="geometry" />
        </mxCell>
        <mxCell id="32m44d9N0e-9UPWyHcc5-227" value="&lt;div&gt;&lt;font color=&quot;#dc7e2b&quot;&gt;&lt;span style=&quot;font-size: 16px;&quot;&gt;（&lt;/span&gt;&lt;/font&gt;&lt;span style=&quot;font-size: 16px; background-color: transparent;&quot;&gt;&lt;b style=&quot;&quot;&gt;&lt;font style=&quot;color: light-dark(rgb(186, 105, 34), rgb(255, 0, 0));&quot;&gt;SERVER-AUTHORIATIVE、&lt;br&gt;&lt;/font&gt;&lt;/b&gt;&lt;/span&gt;&lt;span style=&quot;background-color: transparent; font-size: 16px;&quot;&gt;&lt;font style=&quot;color: light-dark(rgb(220, 126, 43), rgb(255, 0, 0));&quot;&gt;仅复制到所属客户端&lt;/font&gt;&lt;/span&gt;&lt;span style=&quot;color: light-dark(rgb(220, 126, 43), rgb(186, 105, 34)); background-color: transparent;&quot;&gt;&lt;span style=&quot;font-size: 16px;&quot;&gt;）&lt;/span&gt;&lt;b style=&quot;&quot;&gt;&lt;font style=&quot;font-size: 18px;&quot;&gt;？？？&lt;/font&gt;&lt;/b&gt;&lt;/span&gt;&lt;/div&gt;" style="shape=note;whiteSpace=wrap;html=1;backgroundOutline=1;darkOpacity=0.05;fillStyle=solid;direction=west;gradientDirection=north;shadow=1;size=20;pointerEvents=1;fillColor=#f5f5f5;strokeColor=#666666;fontColor=#333333;align=center;" vertex="1" parent="32m44d9N0e-9UPWyHcc5-210">
          <mxGeometry x="390" y="554" width="229.5" height="56" as="geometry" />
        </mxCell>
        <mxCell id="32m44d9N0e-9UPWyHcc5-202" value="" style="group" connectable="0" vertex="1" parent="1">
          <mxGeometry x="-10" y="9810" width="1110" height="610" as="geometry" />
        </mxCell>
        <mxCell id="32m44d9N0e-9UPWyHcc5-137" value="" style="rounded=0;whiteSpace=wrap;html=1;fillColor=none;strokeColor=light-dark(#82B366,#FF8000);" vertex="1" parent="32m44d9N0e-9UPWyHcc5-202">
          <mxGeometry width="1110" height="610" as="geometry" />
        </mxCell>
        <mxCell id="32m44d9N0e-9UPWyHcc5-152" value="&lt;font style=&quot;color: light-dark(rgb(186, 105, 34), rgb(255, 255, 255));&quot;&gt;&lt;span style=&quot;font-size: 16px;&quot;&gt;代表游戏框架的参与者&lt;/span&gt;&lt;/font&gt;" style="shape=note;whiteSpace=wrap;html=1;backgroundOutline=1;darkOpacity=0.05;fillStyle=solid;direction=west;gradientDirection=north;shadow=1;size=20;pointerEvents=1;fillColor=light-dark(#F5F5F5,#FF8000);strokeColor=#666666;fontColor=#333333;align=right;" vertex="1" parent="32m44d9N0e-9UPWyHcc5-202">
          <mxGeometry x="768.4615384615385" width="341.5384615384615" height="39.68882602545969" as="geometry" />
        </mxCell>
        <mxCell id="pGybzTgQX5mhtwK9b5BW-3" value="" style="group;fillColor=#ffe6cc;strokeColor=#d79b00;container=0;" connectable="0" vertex="1" parent="1">
          <mxGeometry x="-726.5" y="8170" width="2643.003448275862" height="496" as="geometry" />
        </mxCell>
        <mxCell id="32m44d9N0e-9UPWyHcc5-96" value="" style="group" connectable="0" vertex="1" parent="1">
          <mxGeometry x="-720" y="9500" width="2620" height="80" as="geometry" />
        </mxCell>
        <mxCell id="32m44d9N0e-9UPWyHcc5-77" value="" style="endArrow=none;html=1;rounded=0;strokeWidth=5;strokeColor=light-dark(#000000,#FF0000);" edge="1" parent="32m44d9N0e-9UPWyHcc5-96">
          <mxGeometry width="50" height="50" relative="1" as="geometry">
            <mxPoint y="40" as="sourcePoint" />
            <mxPoint x="2619.999999999999" y="40" as="targetPoint" />
          </mxGeometry>
        </mxCell>
        <mxCell id="32m44d9N0e-9UPWyHcc5-78" value="&lt;font style=&quot;font-size: 20px;&quot;&gt;&amp;nbsp; &amp;nbsp;UEngine::LoadMap&amp;nbsp; &amp;nbsp;&lt;/font&gt;" style="edgeLabel;html=1;align=center;verticalAlign=middle;resizable=0;points=[];" connectable="0" vertex="1" parent="32m44d9N0e-9UPWyHcc5-77">
          <mxGeometry x="-0.0273" y="-1" relative="1" as="geometry">
            <mxPoint as="offset" />
          </mxGeometry>
        </mxCell>
        <mxCell id="32m44d9N0e-9UPWyHcc5-79" value="&lt;b&gt;&lt;font style=&quot;color: rgb(255, 0, 0); font-size: 20px;&quot;&gt;ENGINE OBKECTS&lt;/font&gt;&lt;/b&gt;" style="text;html=1;align=center;verticalAlign=middle;whiteSpace=wrap;rounded=0;" vertex="1" parent="32m44d9N0e-9UPWyHcc5-96">
          <mxGeometry width="278.2300884955751" height="30" as="geometry" />
        </mxCell>
        <mxCell id="32m44d9N0e-9UPWyHcc5-80" value="&lt;b&gt;&lt;font style=&quot;color: rgb(255, 0, 0); font-size: 20px;&quot;&gt;GAME OBKECTS&lt;/font&gt;&lt;/b&gt;" style="text;html=1;align=center;verticalAlign=middle;whiteSpace=wrap;rounded=0;" vertex="1" parent="32m44d9N0e-9UPWyHcc5-96">
          <mxGeometry y="50" width="278.2300884955751" height="30" as="geometry" />
        </mxCell>
        <mxCell id="32m44d9N0e-9UPWyHcc5-207" style="rounded=0;orthogonalLoop=1;jettySize=auto;html=1;" edge="1" parent="1" source="32m44d9N0e-9UPWyHcc5-138" target="32m44d9N0e-9UPWyHcc5-146">
          <mxGeometry relative="1" as="geometry">
            <mxPoint x="560" y="10020" as="sourcePoint" />
            <mxPoint x="604" y="10261" as="targetPoint" />
          </mxGeometry>
        </mxCell>
        <mxCell id="32m44d9N0e-9UPWyHcc5-208" value="&lt;font style=&quot;font-size: 14px; color: light-dark(rgb(0, 0, 0), rgb(102, 204, 0));&quot;&gt;创建&lt;/font&gt;" style="edgeLabel;html=1;align=center;verticalAlign=middle;resizable=0;points=[];" connectable="0" vertex="1" parent="32m44d9N0e-9UPWyHcc5-207">
          <mxGeometry x="0.371" y="2" relative="1" as="geometry">
            <mxPoint x="3" as="offset" />
          </mxGeometry>
        </mxCell>
        <mxCell id="32m44d9N0e-9UPWyHcc5-199" style="rounded=0;orthogonalLoop=1;jettySize=auto;html=1;" edge="1" parent="1" source="32m44d9N0e-9UPWyHcc5-138" target="32m44d9N0e-9UPWyHcc5-144">
          <mxGeometry relative="1" as="geometry">
            <mxPoint x="328" y="9990" as="sourcePoint" />
            <mxPoint x="310" y="10121" as="targetPoint" />
          </mxGeometry>
        </mxCell>
        <mxCell id="32m44d9N0e-9UPWyHcc5-200" value="&lt;font style=&quot;font-size: 14px; color: light-dark(rgb(0, 0, 0), rgb(102, 204, 0));&quot;&gt;创建&lt;/font&gt;" style="edgeLabel;html=1;align=center;verticalAlign=middle;resizable=0;points=[];" connectable="0" vertex="1" parent="32m44d9N0e-9UPWyHcc5-199">
          <mxGeometry x="0.371" y="2" relative="1" as="geometry">
            <mxPoint x="3" as="offset" />
          </mxGeometry>
        </mxCell>
        <mxCell id="32m44d9N0e-9UPWyHcc5-197" style="rounded=0;orthogonalLoop=1;jettySize=auto;html=1;entryX=0.444;entryY=0.088;entryDx=0;entryDy=0;entryPerimeter=0;" edge="1" parent="1" source="32m44d9N0e-9UPWyHcc5-138" target="32m44d9N0e-9UPWyHcc5-140">
          <mxGeometry relative="1" as="geometry" />
        </mxCell>
        <mxCell id="32m44d9N0e-9UPWyHcc5-198" value="&lt;font style=&quot;font-size: 14px; color: light-dark(rgb(0, 0, 0), rgb(102, 204, 0));&quot;&gt;创建&lt;/font&gt;" style="edgeLabel;html=1;align=center;verticalAlign=middle;resizable=0;points=[];" connectable="0" vertex="1" parent="32m44d9N0e-9UPWyHcc5-197">
          <mxGeometry x="0.371" y="2" relative="1" as="geometry">
            <mxPoint as="offset" />
          </mxGeometry>
        </mxCell>
        <mxCell id="sZi8icAntv4OUGRTdneW-16" style="edgeStyle=orthogonalEdgeStyle;rounded=0;orthogonalLoop=1;jettySize=auto;html=1;entryX=0;entryY=0.5;entryDx=0;entryDy=0;" edge="1" parent="1" source="aSSOBl8ttf49OIoD7x6z-1" target="sZi8icAntv4OUGRTdneW-9">
          <mxGeometry relative="1" as="geometry" />
        </mxCell>
        <mxCell id="sZi8icAntv4OUGRTdneW-17" style="edgeStyle=orthogonalEdgeStyle;rounded=0;orthogonalLoop=1;jettySize=auto;html=1;entryX=0;entryY=0.5;entryDx=0;entryDy=0;" edge="1" parent="1" source="aSSOBl8ttf49OIoD7x6z-1" target="sZi8icAntv4OUGRTdneW-10">
          <mxGeometry relative="1" as="geometry" />
        </mxCell>
        <mxCell id="aSSOBl8ttf49OIoD7x6z-1" value="&lt;font style=&quot;font-size: 20px;&quot;&gt;动画蓝图&lt;/font&gt;" style="rounded=0;whiteSpace=wrap;html=1;" vertex="1" parent="1">
          <mxGeometry x="-340" y="1500" width="120" height="60" as="geometry" />
        </mxCell>
        <mxCell id="sZi8icAntv4OUGRTdneW-6" value="&lt;font style=&quot;background-color: light-dark(#ffffff, var(--ge-dark-color, #121212)); font-size: 16px; color: light-dark(rgb(0, 0, 0), rgb(255, 128, 0));&quot;&gt;&lt;span style=&quot;text-align: start;&quot;&gt;作用：是在A&lt;/span&gt;&lt;span style=&quot;box-sizing: border-box; text-align: start;&quot; data-immersive-translate-walked=&quot;b958de76-de91-4721-9d93-d3ea6e5aa7ce&quot;&gt;nim Graph&lt;/span&gt;&lt;span style=&quot;text-align: start;&quot;&gt;和Event Graph&lt;/span&gt;&lt;span style=&quot;text-align: start;&quot;&gt;中创建逻辑。&lt;/span&gt;&lt;/font&gt;&lt;div&gt;&lt;font style=&quot;background-color: light-dark(#ffffff, var(--ge-dark-color, #121212)); font-size: 16px; color: light-dark(rgb(0, 0, 0), rgb(255, 128, 0));&quot;&gt;&lt;span style=&quot;text-align: start;&quot;&gt;该逻辑定义蓝图的姿势行为、变量和其他属性。&lt;/span&gt;&lt;/font&gt;&lt;div&gt;&lt;span style=&quot;background-color: light-dark(#ffffff, var(--ge-dark-color, #121212));&quot;&gt;&lt;font style=&quot;font-size: 16px; color: light-dark(rgb(0, 0, 0), rgb(255, 128, 0));&quot;&gt;&lt;span style=&quot;text-align: start;&quot;&gt;Graph协同工作，提供角色在任何给定帧的最终输出姿势&lt;/span&gt;&lt;/font&gt;&lt;/span&gt;&lt;/div&gt;&lt;/div&gt;" style="whiteSpace=wrap;html=1;shape=partialRectangle;top=0;left=0;bottom=1;right=0;points=[[0,1],[1,1]];fillColor=none;align=center;verticalAlign=bottom;routingCenterY=0.5;snapToPoint=1;recursiveResize=0;autosize=1;treeFolding=1;treeMoving=1;newEdgeStyle={&quot;edgeStyle&quot;:&quot;entityRelationEdgeStyle&quot;,&quot;startArrow&quot;:&quot;none&quot;,&quot;endArrow&quot;:&quot;none&quot;,&quot;segment&quot;:10,&quot;curved&quot;:1,&quot;sourcePerimeterSpacing&quot;:0,&quot;targetPerimeterSpacing&quot;:0};strokeColor=default;" vertex="1" parent="1">
          <mxGeometry x="-200" y="970" width="440" height="70" as="geometry" />
        </mxCell>
        <mxCell id="sZi8icAntv4OUGRTdneW-7" value="" style="edgeStyle=entityRelationEdgeStyle;startArrow=none;endArrow=none;segment=10;curved=1;sourcePerimeterSpacing=0;targetPerimeterSpacing=0;rounded=0;" edge="1" parent="1" source="aSSOBl8ttf49OIoD7x6z-1" target="sZi8icAntv4OUGRTdneW-6">
          <mxGeometry relative="1" as="geometry">
            <mxPoint x="-130" y="140" as="sourcePoint" />
          </mxGeometry>
        </mxCell>
        <mxCell id="sZi8icAntv4OUGRTdneW-24" style="edgeStyle=orthogonalEdgeStyle;rounded=0;orthogonalLoop=1;jettySize=auto;html=1;entryX=0;entryY=0.5;entryDx=0;entryDy=0;" edge="1" parent="1" source="sZi8icAntv4OUGRTdneW-9" target="sZi8icAntv4OUGRTdneW-23">
          <mxGeometry relative="1" as="geometry" />
        </mxCell>
        <mxCell id="sZi8icAntv4OUGRTdneW-9" value="&lt;font style=&quot;font-size: 20px;&quot;&gt;Anim Graph&lt;/font&gt;" style="rounded=0;whiteSpace=wrap;html=1;" vertex="1" parent="1">
          <mxGeometry x="120" y="1090" width="120" height="60" as="geometry" />
        </mxCell>
        <mxCell id="sZi8icAntv4OUGRTdneW-13" style="edgeStyle=orthogonalEdgeStyle;rounded=0;orthogonalLoop=1;jettySize=auto;html=1;" edge="1" parent="1" source="sZi8icAntv4OUGRTdneW-10" target="sZi8icAntv4OUGRTdneW-9">
          <mxGeometry relative="1" as="geometry" />
        </mxCell>
        <mxCell id="sZi8icAntv4OUGRTdneW-14" value="&lt;font style=&quot;font-size: 16px;&quot;&gt;Input&lt;/font&gt;" style="edgeLabel;html=1;align=center;verticalAlign=middle;resizable=0;points=[];" connectable="0" vertex="1" parent="sZi8icAntv4OUGRTdneW-13">
          <mxGeometry y="-1" relative="1" as="geometry">
            <mxPoint as="offset" />
          </mxGeometry>
        </mxCell>
        <mxCell id="sZi8icAntv4OUGRTdneW-10" value="&lt;font style=&quot;font-size: 20px;&quot;&gt;Event Graph&lt;/font&gt;" style="rounded=0;whiteSpace=wrap;html=1;" vertex="1" parent="1">
          <mxGeometry x="120" y="1920" width="120" height="60" as="geometry" />
        </mxCell>
        <mxCell id="sZi8icAntv4OUGRTdneW-15" value="&lt;font style=&quot;font-size: 14px;&quot;&gt;播放流程可视化，基于&lt;font style=&quot;color: light-dark(rgb(0, 0, 0), rgb(255, 0, 0));&quot;&gt;每帧&lt;/font&gt;（始终显示）&lt;/font&gt;" style="shape=note;whiteSpace=wrap;html=1;backgroundOutline=1;darkOpacity=0.05;fillColor=#e3c800;strokeColor=#B09500;fillStyle=solid;direction=west;gradientDirection=north;shadow=1;size=20;pointerEvents=1;fontColor=#000000;" vertex="1" parent="1">
          <mxGeometry x="190" y="1150" width="150" height="40" as="geometry" />
        </mxCell>
        <mxCell id="sZi8icAntv4OUGRTdneW-18" value="&lt;font style=&quot;font-size: 14px;&quot;&gt;播放流程可视化，基于&lt;font style=&quot;color: light-dark(rgb(0, 0, 0), rgb(255, 0, 0));&quot;&gt;事件触发&lt;/font&gt;&lt;/font&gt;" style="shape=note;whiteSpace=wrap;html=1;backgroundOutline=1;darkOpacity=0.05;fillColor=#e3c800;strokeColor=#B09500;fillStyle=solid;direction=west;gradientDirection=north;shadow=1;size=20;pointerEvents=1;fontColor=#000000;" vertex="1" parent="1">
          <mxGeometry x="190" y="1980" width="150" height="40" as="geometry" />
        </mxCell>
        <mxCell id="sZi8icAntv4OUGRTdneW-21" value="&lt;span style=&quot;box-sizing: border-box; font-family: Inter, -apple-system, BlinkMacSystemFont, &amp;quot;Segoe UI&amp;quot;, Roboto, &amp;quot;Helvetica Neue&amp;quot;, Arial, sans-serif, &amp;quot;Apple Color Emoji&amp;quot;, &amp;quot;Segoe UI Emoji&amp;quot;, &amp;quot;Segoe UI Symbol&amp;quot;; text-align: start;&quot; data-immersive-translate-walked=&quot;b958de76-de91-4721-9d93-d3ea6e5aa7ce&quot;&gt;&lt;font style=&quot;font-size: 18px;&quot;&gt;Sequence Player&lt;/font&gt;&lt;/span&gt;" style="rounded=0;whiteSpace=wrap;html=1;" vertex="1" parent="1">
          <mxGeometry x="550" y="1060" width="170" height="60" as="geometry" />
        </mxCell>
        <mxCell id="sZi8icAntv4OUGRTdneW-23" value="&lt;span style=&quot;box-sizing: border-box; font-family: Inter, -apple-system, BlinkMacSystemFont, &amp;quot;Segoe UI&amp;quot;, Roboto, &amp;quot;Helvetica Neue&amp;quot;, Arial, sans-serif, &amp;quot;Apple Color Emoji&amp;quot;, &amp;quot;Segoe UI Emoji&amp;quot;, &amp;quot;Segoe UI Symbol&amp;quot;; text-align: start;&quot; data-immersive-translate-walked=&quot;b958de76-de91-4721-9d93-d3ea6e5aa7ce&quot;&gt;&lt;font style=&quot;font-size: 18px;&quot;&gt;Blend Node&lt;/font&gt;&lt;/span&gt;" style="rounded=0;whiteSpace=wrap;html=1;" vertex="1" parent="1">
          <mxGeometry x="550" y="890" width="170" height="60" as="geometry" />
        </mxCell>
        <mxCell id="sZi8icAntv4OUGRTdneW-26" value="&lt;span style=&quot;box-sizing: border-box; font-family: Inter, -apple-system, BlinkMacSystemFont, &amp;quot;Segoe UI&amp;quot;, Roboto, &amp;quot;Helvetica Neue&amp;quot;, Arial, sans-serif, &amp;quot;Apple Color Emoji&amp;quot;, &amp;quot;Segoe UI Emoji&amp;quot;, &amp;quot;Segoe UI Symbol&amp;quot;; text-align: start;&quot; data-immersive-translate-walked=&quot;b958de76-de91-4721-9d93-d3ea6e5aa7ce&quot;&gt;&lt;font style=&quot;font-size: 18px;&quot;&gt;Blend Space&lt;/font&gt;&lt;/span&gt;" style="rounded=0;whiteSpace=wrap;html=1;" vertex="1" parent="1">
          <mxGeometry x="390" y="1500" width="170" height="60" as="geometry" />
        </mxCell>
        <mxCell id="sZi8icAntv4OUGRTdneW-28" style="edgeStyle=entityRelationEdgeStyle;rounded=0;orthogonalLoop=1;jettySize=auto;html=1;startArrow=none;endArrow=none;segment=10;curved=1;sourcePerimeterSpacing=0;targetPerimeterSpacing=0;" edge="1" parent="1" source="sZi8icAntv4OUGRTdneW-27" target="sZi8icAntv4OUGRTdneW-26">
          <mxGeometry relative="1" as="geometry" />
        </mxCell>
        <mxCell id="sZi8icAntv4OUGRTdneW-27" value="&lt;span style=&quot;font-family: Inter, -apple-system, BlinkMacSystemFont, &amp;quot;Segoe UI&amp;quot;, Roboto, &amp;quot;Helvetica Neue&amp;quot;, Arial, sans-serif, &amp;quot;Apple Color Emoji&amp;quot;, &amp;quot;Segoe UI Emoji&amp;quot;, &amp;quot;Segoe UI Symbol&amp;quot;; font-size: 16px; text-align: start;&quot;&gt;&lt;font style=&quot;color: light-dark(rgb(0, 0, 0), rgb(255, 128, 0));&quot;&gt;常规混合空间是混合空间的基本变体，它提供了沿图表混合动画的所有主要功能。&lt;/font&gt;&lt;/span&gt;&lt;div&gt;&lt;span style=&quot;font-family: Inter, -apple-system, BlinkMacSystemFont, &amp;quot;Segoe UI&amp;quot;, Roboto, &amp;quot;Helvetica Neue&amp;quot;, Arial, sans-serif, &amp;quot;Apple Color Emoji&amp;quot;, &amp;quot;Segoe UI Emoji&amp;quot;, &amp;quot;Segoe UI Symbol&amp;quot;; font-size: 16px; text-align: start;&quot;&gt;&lt;font style=&quot;color: light-dark(rgb(0, 0, 0), rgb(255, 128, 0));&quot;&gt;它们旨在在动画蓝图中作为基础层被引用，并从它派生二级动画&lt;/font&gt;&lt;/span&gt;&lt;/div&gt;" style="whiteSpace=wrap;html=1;shape=partialRectangle;top=0;left=0;bottom=1;right=0;points=[[0,1],[1,1]];fillColor=none;align=center;verticalAlign=bottom;routingCenterY=0.5;snapToPoint=1;recursiveResize=0;autosize=1;treeFolding=1;treeMoving=1;newEdgeStyle={&quot;edgeStyle&quot;:&quot;entityRelationEdgeStyle&quot;,&quot;startArrow&quot;:&quot;none&quot;,&quot;endArrow&quot;:&quot;none&quot;,&quot;segment&quot;:10,&quot;curved&quot;:1,&quot;sourcePerimeterSpacing&quot;:0,&quot;targetPerimeterSpacing&quot;:0};strokeColor=default;" vertex="1" parent="1">
          <mxGeometry x="600" y="1370" width="620" height="50" as="geometry" />
        </mxCell>
        <mxCell id="sZi8icAntv4OUGRTdneW-33" style="edgeStyle=orthogonalEdgeStyle;rounded=0;orthogonalLoop=1;jettySize=auto;html=1;entryX=0;entryY=0.5;entryDx=0;entryDy=0;" edge="1" parent="1" source="sZi8icAntv4OUGRTdneW-29" target="sZi8icAntv4OUGRTdneW-32">
          <mxGeometry relative="1" as="geometry" />
        </mxCell>
        <mxCell id="sZi8icAntv4OUGRTdneW-29" value="&lt;span style=&quot;box-sizing: border-box; font-family: Inter, -apple-system, BlinkMacSystemFont, &amp;quot;Segoe UI&amp;quot;, Roboto, &amp;quot;Helvetica Neue&amp;quot;, Arial, sans-serif, &amp;quot;Apple Color Emoji&amp;quot;, &amp;quot;Segoe UI Emoji&amp;quot;, &amp;quot;Segoe UI Symbol&amp;quot;; text-align: start;&quot; data-immersive-translate-walked=&quot;b958de76-de91-4721-9d93-d3ea6e5aa7ce&quot;&gt;&lt;font style=&quot;font-size: 18px;&quot;&gt;Animation Node&lt;/font&gt;&lt;/span&gt;" style="rounded=0;whiteSpace=wrap;html=1;" vertex="1" parent="1">
          <mxGeometry x="745" y="2480" width="170" height="60" as="geometry" />
        </mxCell>
        <mxCell id="sZi8icAntv4OUGRTdneW-30" value="&lt;div style=&quot;text-align: start;&quot;&gt;&lt;span style=&quot;background-color: transparent; color: light-dark(rgb(0, 0, 0), rgb(255, 255, 255)); font-size: 18px;&quot;&gt;&lt;font face=&quot;Inter, -apple-system, BlinkMacSystemFont, Segoe UI, Roboto, Helvetica Neue, Arial, sans-serif, Apple Color Emoji, Segoe UI Emoji, Segoe UI Symbol&quot;&gt;runtime struct&lt;/font&gt;&lt;/span&gt;&lt;/div&gt;" style="rounded=0;whiteSpace=wrap;html=1;" vertex="1" parent="1">
          <mxGeometry x="1333" y="2140" width="170" height="60" as="geometry" />
        </mxCell>
        <mxCell id="sZi8icAntv4OUGRTdneW-31" value="&lt;span style=&quot;box-sizing: border-box; font-family: Inter, -apple-system, BlinkMacSystemFont, &amp;quot;Segoe UI&amp;quot;, Roboto, &amp;quot;Helvetica Neue&amp;quot;, Arial, sans-serif, &amp;quot;Apple Color Emoji&amp;quot;, &amp;quot;Segoe UI Emoji&amp;quot;, &amp;quot;Segoe UI Symbol&amp;quot;; text-align: start;&quot; data-immersive-translate-walked=&quot;b958de76-de91-4721-9d93-d3ea6e5aa7ce&quot;&gt;&lt;font style=&quot;font-size: 18px;&quot;&gt;editor-time container class&lt;/font&gt;&lt;/span&gt;" style="rounded=0;whiteSpace=wrap;html=1;" vertex="1" parent="1">
          <mxGeometry x="1333" y="2310" width="170" height="60" as="geometry" />
        </mxCell>
        <mxCell id="sZi8icAntv4OUGRTdneW-34" style="edgeStyle=orthogonalEdgeStyle;rounded=0;orthogonalLoop=1;jettySize=auto;html=1;entryX=0;entryY=0.5;entryDx=0;entryDy=0;" edge="1" parent="1" source="sZi8icAntv4OUGRTdneW-32" target="sZi8icAntv4OUGRTdneW-30">
          <mxGeometry relative="1" as="geometry" />
        </mxCell>
        <mxCell id="sZi8icAntv4OUGRTdneW-35" style="edgeStyle=orthogonalEdgeStyle;rounded=0;orthogonalLoop=1;jettySize=auto;html=1;entryX=0;entryY=0.75;entryDx=0;entryDy=0;" edge="1" parent="1" source="sZi8icAntv4OUGRTdneW-32" target="sZi8icAntv4OUGRTdneW-31">
          <mxGeometry relative="1" as="geometry" />
        </mxCell>
        <mxCell id="sZi8icAntv4OUGRTdneW-32" value="&lt;span style=&quot;box-sizing: border-box; font-family: Inter, -apple-system, BlinkMacSystemFont, &amp;quot;Segoe UI&amp;quot;, Roboto, &amp;quot;Helvetica Neue&amp;quot;, Arial, sans-serif, &amp;quot;Apple Color Emoji&amp;quot;, &amp;quot;Segoe UI Emoji&amp;quot;, &amp;quot;Segoe UI Symbol&amp;quot;; text-align: start;&quot; data-immersive-translate-walked=&quot;b958de76-de91-4721-9d93-d3ea6e5aa7ce&quot;&gt;&lt;font style=&quot;font-size: 18px;&quot;&gt;组成&lt;/font&gt;&lt;/span&gt;" style="rounded=0;whiteSpace=wrap;html=1;strokeColor=none;" vertex="1" parent="1">
          <mxGeometry x="1000" y="2238" width="50" height="40" as="geometry" />
        </mxCell>
        <mxCell id="32m44d9N0e-9UPWyHcc5-2" value="&lt;font color=&quot;#ff0000&quot;&gt;&lt;span style=&quot;font-size: 30px; background-color: rgb(255, 255, 255);&quot;&gt;游戏框架&lt;/span&gt;&lt;/font&gt;" style="rounded=0;whiteSpace=wrap;html=1;fillColor=#fff2cc;strokeColor=#d6b656;" vertex="1" parent="1">
          <mxGeometry x="-827" y="5840" width="4957" height="96.75" as="geometry" />
        </mxCell>
        <mxCell id="32m44d9N0e-9UPWyHcc5-8" style="edgeStyle=orthogonalEdgeStyle;rounded=0;orthogonalLoop=1;jettySize=auto;html=1;" edge="1" parent="1" source="32m44d9N0e-9UPWyHcc5-5" target="32m44d9N0e-9UPWyHcc5-7">
          <mxGeometry relative="1" as="geometry" />
        </mxCell>
        <mxCell id="32m44d9N0e-9UPWyHcc5-5" value="&lt;em style=&quot;box-sizing: border-box; font-family: Inter, -apple-system, BlinkMacSystemFont, &amp;quot;Segoe UI&amp;quot;, Roboto, &amp;quot;Helvetica Neue&amp;quot;, Arial, sans-serif, &amp;quot;Apple Color Emoji&amp;quot;, &amp;quot;Segoe UI Emoji&amp;quot;, &amp;quot;Segoe UI Symbol&amp;quot;; text-align: start;&quot; data-immersive-translate-walked=&quot;ca94d9f6-ff4b-416c-a881-b508299f9b56&quot;&gt;&lt;font style=&quot;font-size: 20px;&quot;&gt;Game Instance&lt;/font&gt;&lt;/em&gt;&lt;div&gt;&lt;em style=&quot;box-sizing: border-box; font-family: Inter, -apple-system, BlinkMacSystemFont, &amp;quot;Segoe UI&amp;quot;, Roboto, &amp;quot;Helvetica Neue&amp;quot;, Arial, sans-serif, &amp;quot;Apple Color Emoji&amp;quot;, &amp;quot;Segoe UI Emoji&amp;quot;, &amp;quot;Segoe UI Symbol&amp;quot;; text-align: start;&quot; data-immersive-translate-walked=&quot;ca94d9f6-ff4b-416c-a881-b508299f9b56&quot;&gt;&lt;font style=&quot;font-size: 20px;&quot;&gt;(管理类)&lt;/font&gt;&lt;/em&gt;&lt;/div&gt;" style="whiteSpace=wrap;html=1;" vertex="1" parent="1">
          <mxGeometry y="7000" width="160" height="50" as="geometry" />
        </mxCell>
        <mxCell id="32m44d9N0e-9UPWyHcc5-6" value="&lt;font style=&quot;color: rgb(255, 0, 0);&quot;&gt;全局单例&lt;/font&gt;；每个客户端有一个，贯穿整个应用生命周期的游戏实例&lt;div&gt;&lt;div&gt;永久对象，在启动引擎时创建，一直持续到引擎关闭；管理类；&lt;/div&gt;&lt;div&gt;只用于跟踪数据和运行代码&lt;/div&gt;&lt;div&gt;全局单例，独立存在服务器和所有客户端中；不同level需要保持一致的数据都放这里&lt;/div&gt;&lt;/div&gt;" style="shape=note;whiteSpace=wrap;html=1;backgroundOutline=1;fontColor=#000000;darkOpacity=0.05;fillColor=#FFF9B2;strokeColor=none;fillStyle=solid;direction=west;gradientDirection=north;gradientColor=#FFF2A1;shadow=1;size=20;pointerEvents=1;" vertex="1" parent="1">
          <mxGeometry x="-20" y="7050" width="210" height="130" as="geometry" />
        </mxCell>
        <mxCell id="32m44d9N0e-9UPWyHcc5-15" style="edgeStyle=orthogonalEdgeStyle;rounded=0;orthogonalLoop=1;jettySize=auto;html=1;" edge="1" parent="1" source="32m44d9N0e-9UPWyHcc5-7" target="32m44d9N0e-9UPWyHcc5-10">
          <mxGeometry relative="1" as="geometry" />
        </mxCell>
        <mxCell id="32m44d9N0e-9UPWyHcc5-7" value="&lt;em style=&quot;box-sizing: border-box; font-family: Inter, -apple-system, BlinkMacSystemFont, &amp;quot;Segoe UI&amp;quot;, Roboto, &amp;quot;Helvetica Neue&amp;quot;, Arial, sans-serif, &amp;quot;Apple Color Emoji&amp;quot;, &amp;quot;Segoe UI Emoji&amp;quot;, &amp;quot;Segoe UI Symbol&amp;quot;; text-align: start;&quot; data-immersive-translate-walked=&quot;ca94d9f6-ff4b-416c-a881-b508299f9b56&quot;&gt;&lt;font style=&quot;font-size: 20px;&quot;&gt;Load Level&lt;/font&gt;&lt;/em&gt;" style="whiteSpace=wrap;html=1;" vertex="1" parent="1">
          <mxGeometry x="310" y="7000" width="160" height="50" as="geometry" />
        </mxCell>
        <mxCell id="32m44d9N0e-9UPWyHcc5-9" value="" style="group" connectable="0" vertex="1" parent="1">
          <mxGeometry x="580" y="7000" width="160" height="150" as="geometry" />
        </mxCell>
        <mxCell id="32m44d9N0e-9UPWyHcc5-10" value="&lt;em style=&quot;box-sizing: border-box; font-family: Inter, -apple-system, BlinkMacSystemFont, &amp;quot;Segoe UI&amp;quot;, Roboto, &amp;quot;Helvetica Neue&amp;quot;, Arial, sans-serif, &amp;quot;Apple Color Emoji&amp;quot;, &amp;quot;Segoe UI Emoji&amp;quot;, &amp;quot;Segoe UI Symbol&amp;quot;; text-align: start;&quot; data-immersive-translate-walked=&quot;ca94d9f6-ff4b-416c-a881-b508299f9b56&quot;&gt;&lt;font style=&quot;font-size: 20px;&quot;&gt;Game Mode&lt;/font&gt;&lt;/em&gt;" style="whiteSpace=wrap;html=1;" vertex="1" parent="32m44d9N0e-9UPWyHcc5-9">
          <mxGeometry width="160" height="50" as="geometry" />
        </mxCell>
        <mxCell id="32m44d9N0e-9UPWyHcc5-11" value="Level加载时创建，所以它不会跨关卡持久存在;&lt;font style=&quot;color: light-dark(rgb(0, 0, 0), rgb(255, 0, 0));&quot;&gt;每个Level的Game Mode不同&lt;/font&gt;&lt;div&gt;&lt;font style=&quot;&quot;&gt;&lt;font color=&quot;#ff0000&quot;&gt;基于服务器的管理类（存在于服务器），加载level时创建；负责管理游戏会话的整体规则和结构&lt;/font&gt;&lt;/font&gt;&lt;/div&gt;" style="shape=note;whiteSpace=wrap;html=1;backgroundOutline=1;fontColor=#000000;darkOpacity=0.05;fillColor=#FFF9B2;strokeColor=none;fillStyle=solid;direction=west;gradientDirection=north;gradientColor=#FFF2A1;shadow=1;size=20;pointerEvents=1;" vertex="1" parent="32m44d9N0e-9UPWyHcc5-9">
          <mxGeometry y="50" width="160" height="100" as="geometry" />
        </mxCell>
        <mxCell id="32m44d9N0e-9UPWyHcc5-50" style="edgeStyle=orthogonalEdgeStyle;rounded=0;orthogonalLoop=1;jettySize=auto;html=1;entryX=0;entryY=0.5;entryDx=0;entryDy=0;" edge="1" parent="1" source="32m44d9N0e-9UPWyHcc5-12" target="32m44d9N0e-9UPWyHcc5-39">
          <mxGeometry relative="1" as="geometry" />
        </mxCell>
        <mxCell id="32m44d9N0e-9UPWyHcc5-51" style="edgeStyle=orthogonalEdgeStyle;rounded=0;orthogonalLoop=1;jettySize=auto;html=1;entryX=0;entryY=0.5;entryDx=0;entryDy=0;" edge="1" parent="1" source="32m44d9N0e-9UPWyHcc5-12" target="32m44d9N0e-9UPWyHcc5-42">
          <mxGeometry relative="1" as="geometry" />
        </mxCell>
        <mxCell id="32m44d9N0e-9UPWyHcc5-70" value="组成" style="edgeLabel;html=1;align=center;verticalAlign=middle;resizable=0;points=[];" connectable="0" vertex="1" parent="32m44d9N0e-9UPWyHcc5-51">
          <mxGeometry x="-0.6894" y="-1" relative="1" as="geometry">
            <mxPoint as="offset" />
          </mxGeometry>
        </mxCell>
        <mxCell id="32m44d9N0e-9UPWyHcc5-12" value="&lt;em style=&quot;box-sizing: border-box; font-family: Inter, -apple-system, BlinkMacSystemFont, &amp;quot;Segoe UI&amp;quot;, Roboto, &amp;quot;Helvetica Neue&amp;quot;, Arial, sans-serif, &amp;quot;Apple Color Emoji&amp;quot;, &amp;quot;Segoe UI Emoji&amp;quot;, &amp;quot;Segoe UI Symbol&amp;quot;; text-align: start;&quot; data-immersive-translate-walked=&quot;ca94d9f6-ff4b-416c-a881-b508299f9b56&quot;&gt;&lt;font style=&quot;font-size: 20px;&quot;&gt;Player&lt;/font&gt;&lt;/em&gt;" style="whiteSpace=wrap;html=1;" vertex="1" parent="1">
          <mxGeometry x="880" y="7000" width="160" height="50" as="geometry" />
        </mxCell>
        <mxCell id="32m44d9N0e-9UPWyHcc5-13" style="edgeStyle=orthogonalEdgeStyle;rounded=0;orthogonalLoop=1;jettySize=auto;html=1;" edge="1" parent="1" source="32m44d9N0e-9UPWyHcc5-10" target="32m44d9N0e-9UPWyHcc5-12">
          <mxGeometry relative="1" as="geometry" />
        </mxCell>
        <mxCell id="32m44d9N0e-9UPWyHcc5-14" value="生成" style="edgeLabel;html=1;align=center;verticalAlign=middle;resizable=0;points=[];" connectable="0" vertex="1" parent="32m44d9N0e-9UPWyHcc5-13">
          <mxGeometry x="0.0012" y="-2" relative="1" as="geometry">
            <mxPoint as="offset" />
          </mxGeometry>
        </mxCell>
        <mxCell id="32m44d9N0e-9UPWyHcc5-16" value="" style="group" connectable="0" vertex="1" parent="1">
          <mxGeometry x="400" y="6800" width="160" height="126" as="geometry" />
        </mxCell>
        <mxCell id="32m44d9N0e-9UPWyHcc5-17" value="可认为是一种容器，存放component类型对象" style="shape=note;whiteSpace=wrap;html=1;backgroundOutline=1;fontColor=#000000;darkOpacity=0.05;fillColor=#FFF9B2;strokeColor=none;fillStyle=solid;direction=west;gradientDirection=north;gradientColor=#FFF2A1;shadow=1;size=20;pointerEvents=1;" vertex="1" parent="32m44d9N0e-9UPWyHcc5-16">
          <mxGeometry y="86" width="150" height="40" as="geometry" />
        </mxCell>
        <mxCell id="32m44d9N0e-9UPWyHcc5-18" value="&lt;span style=&quot;font-family: Inter, -apple-system, BlinkMacSystemFont, &amp;quot;Segoe UI&amp;quot;, Roboto, &amp;quot;Helvetica Neue&amp;quot;, Arial, sans-serif, &amp;quot;Apple Color Emoji&amp;quot;, &amp;quot;Segoe UI Emoji&amp;quot;, &amp;quot;Segoe UI Symbol&amp;quot;; font-size: 16px; font-weight: 400; text-align: start;&quot;&gt;Actor&lt;/span&gt;" style="swimlane;fontStyle=1;align=center;verticalAlign=top;childLayout=stackLayout;horizontal=1;startSize=26;horizontalStack=0;resizeParent=1;resizeParentMax=0;resizeLast=0;collapsible=1;marginBottom=0;whiteSpace=wrap;html=1;" vertex="1" parent="32m44d9N0e-9UPWyHcc5-16">
          <mxGeometry width="160" height="86" as="geometry" />
        </mxCell>
        <mxCell id="32m44d9N0e-9UPWyHcc5-19" value="+ field: type" style="text;strokeColor=none;fillColor=none;align=left;verticalAlign=top;spacingLeft=4;spacingRight=4;overflow=hidden;rotatable=0;points=[[0,0.5],[1,0.5]];portConstraint=eastwest;whiteSpace=wrap;html=1;" vertex="1" parent="32m44d9N0e-9UPWyHcc5-18">
          <mxGeometry y="26" width="160" height="26" as="geometry" />
        </mxCell>
        <mxCell id="32m44d9N0e-9UPWyHcc5-20" value="" style="line;strokeWidth=1;fillColor=none;align=left;verticalAlign=middle;spacingTop=-1;spacingLeft=3;spacingRight=3;rotatable=0;labelPosition=right;points=[];portConstraint=eastwest;strokeColor=inherit;" vertex="1" parent="32m44d9N0e-9UPWyHcc5-18">
          <mxGeometry y="52" width="160" height="8" as="geometry" />
        </mxCell>
        <mxCell id="32m44d9N0e-9UPWyHcc5-21" value="+ method(type): type" style="text;strokeColor=none;fillColor=none;align=left;verticalAlign=top;spacingLeft=4;spacingRight=4;overflow=hidden;rotatable=0;points=[[0,0.5],[1,0.5]];portConstraint=eastwest;whiteSpace=wrap;html=1;" vertex="1" parent="32m44d9N0e-9UPWyHcc5-18">
          <mxGeometry y="60" width="160" height="26" as="geometry" />
        </mxCell>
        <mxCell id="32m44d9N0e-9UPWyHcc5-22" value="Extends" style="endArrow=block;endSize=16;endFill=0;html=1;rounded=0;" edge="1" parent="1" source="32m44d9N0e-9UPWyHcc5-10" target="32m44d9N0e-9UPWyHcc5-18">
          <mxGeometry x="0.0039" width="160" relative="1" as="geometry">
            <mxPoint x="590" y="6954" as="sourcePoint" />
            <mxPoint x="480" y="6830" as="targetPoint" />
            <mxPoint as="offset" />
          </mxGeometry>
        </mxCell>
        <mxCell id="32m44d9N0e-9UPWyHcc5-34" value="" style="group" connectable="0" vertex="1" parent="1">
          <mxGeometry x="640" y="6360" width="566" height="480" as="geometry" />
        </mxCell>
        <mxCell id="32m44d9N0e-9UPWyHcc5-23" value="" style="rounded=1;whiteSpace=wrap;html=1;fillColor=light-dark(#FFFFFF,#191919);" vertex="1" parent="32m44d9N0e-9UPWyHcc5-34">
          <mxGeometry width="565.9999999999999" height="480" as="geometry" />
        </mxCell>
        <mxCell id="32m44d9N0e-9UPWyHcc5-24" value="&lt;em style=&quot;box-sizing: border-box; font-family: Inter, -apple-system, BlinkMacSystemFont, &amp;quot;Segoe UI&amp;quot;, Roboto, &amp;quot;Helvetica Neue&amp;quot;, Arial, sans-serif, &amp;quot;Apple Color Emoji&amp;quot;, &amp;quot;Segoe UI Emoji&amp;quot;, &amp;quot;Segoe UI Symbol&amp;quot;; text-align: start;&quot; data-immersive-translate-walked=&quot;ca94d9f6-ff4b-416c-a881-b508299f9b56&quot;&gt;&lt;font style=&quot;font-size: 20px; color: light-dark(rgb(255, 255, 255), rgb(255, 255, 255));&quot;&gt;Game Mode &amp;amp; State&lt;/font&gt;&lt;/em&gt;" style="shape=note;whiteSpace=wrap;html=1;backgroundOutline=1;fontColor=#000000;darkOpacity=0.05;fillColor=light-dark(#FFF9B2,#CC6600);strokeColor=none;fillStyle=solid;direction=west;gradientDirection=north;gradientColor=#FFF2A1;shadow=1;size=20;pointerEvents=1;" vertex="1" parent="32m44d9N0e-9UPWyHcc5-34">
          <mxGeometry x="350" width="216" height="60" as="geometry" />
        </mxCell>
        <mxCell id="32m44d9N0e-9UPWyHcc5-25" value="" style="group" connectable="0" vertex="1" parent="32m44d9N0e-9UPWyHcc5-34">
          <mxGeometry x="290.0029411764699" y="320.00216216216177" width="220" height="120" as="geometry" />
        </mxCell>
        <mxCell id="32m44d9N0e-9UPWyHcc5-26" value="&lt;em style=&quot;box-sizing: border-box; font-family: Inter, -apple-system, BlinkMacSystemFont, &amp;quot;Segoe UI&amp;quot;, Roboto, &amp;quot;Helvetica Neue&amp;quot;, Arial, sans-serif, &amp;quot;Apple Color Emoji&amp;quot;, &amp;quot;Segoe UI Emoji&amp;quot;, &amp;quot;Segoe UI Symbol&amp;quot;; text-align: start;&quot; data-immersive-translate-walked=&quot;ca94d9f6-ff4b-416c-a881-b508299f9b56&quot;&gt;&lt;font style=&quot;font-size: 20px;&quot;&gt;Game State&lt;/font&gt;&lt;/em&gt;" style="whiteSpace=wrap;html=1;" vertex="1" parent="32m44d9N0e-9UPWyHcc5-25">
          <mxGeometry width="213.08235294117648" height="64.86486486486487" as="geometry" />
        </mxCell>
        <mxCell id="32m44d9N0e-9UPWyHcc5-27" value="&lt;font style=&quot;color: light-dark(rgb(0, 0, 0), rgb(255, 255, 255));&quot;&gt;&lt;span style=&quot;text-wrap-mode: nowrap;&quot;&gt;A single（所有玩家相关的信息）；&lt;/span&gt;&lt;/font&gt;&lt;div&gt;&lt;font style=&quot;color: light-dark(rgb(0, 0, 0), rgb(255, 255, 255));&quot;&gt;&lt;span style=&quot;text-wrap-mode: nowrap;&quot;&gt;从服务器复制所有客户端对象；&lt;/span&gt;&lt;/font&gt;&lt;/div&gt;&lt;div&gt;&lt;font style=&quot;color: light-dark(rgb(0, 0, 0), rgb(255, 255, 255));&quot;&gt;&lt;span style=&quot;text-wrap-mode: nowrap;&quot;&gt;适合在每个客户端之间共享依赖当前level的全局信息&lt;/span&gt;&lt;/font&gt;&lt;/div&gt;" style="shape=note;whiteSpace=wrap;html=1;backgroundOutline=1;fontColor=#000000;darkOpacity=0.05;fillColor=#FFF9B2;strokeColor=none;fillStyle=solid;direction=west;gradientDirection=north;gradientColor=#FFF2A1;shadow=1;size=20;pointerEvents=1;" vertex="1" parent="32m44d9N0e-9UPWyHcc5-25">
          <mxGeometry y="64.86" width="220" height="55.14" as="geometry" />
        </mxCell>
        <mxCell id="32m44d9N0e-9UPWyHcc5-28" value="" style="group" connectable="0" vertex="1" parent="32m44d9N0e-9UPWyHcc5-34">
          <mxGeometry x="289.99941176470566" y="110.00027027027045" width="213.08235294117648" height="116.75675675675676" as="geometry" />
        </mxCell>
        <mxCell id="32m44d9N0e-9UPWyHcc5-29" value="&lt;em style=&quot;box-sizing: border-box; font-family: Inter, -apple-system, BlinkMacSystemFont, &amp;quot;Segoe UI&amp;quot;, Roboto, &amp;quot;Helvetica Neue&amp;quot;, Arial, sans-serif, &amp;quot;Apple Color Emoji&amp;quot;, &amp;quot;Segoe UI Emoji&amp;quot;, &amp;quot;Segoe UI Symbol&amp;quot;; text-align: start;&quot; data-immersive-translate-walked=&quot;ca94d9f6-ff4b-416c-a881-b508299f9b56&quot;&gt;&lt;font style=&quot;font-size: 20px;&quot;&gt;Player&amp;nbsp;State&lt;/font&gt;&lt;/em&gt;" style="whiteSpace=wrap;html=1;" vertex="1" parent="32m44d9N0e-9UPWyHcc5-28">
          <mxGeometry width="213.08235294117648" height="64.86486486486487" as="geometry" />
        </mxCell>
        <mxCell id="32m44d9N0e-9UPWyHcc5-30" value="&lt;span style=&quot;text-wrap-mode: nowrap;&quot;&gt;&lt;font style=&quot;color: rgb(0, 0, 0);&quot;&gt;每个玩家加入游戏或进入关卡时&lt;/font&gt;&lt;/span&gt;&lt;div&gt;&lt;span style=&quot;text-wrap-mode: nowrap;&quot;&gt;&lt;font style=&quot;color: rgb(0, 0, 0);&quot;&gt;创建(每个玩家对应一个)&lt;/font&gt;&lt;/span&gt;&lt;/div&gt;&lt;div&gt;&lt;font style=&quot;color: rgb(0, 0, 0);&quot;&gt;&lt;span style=&quot;text-wrap-mode: nowrap;&quot;&gt;负责处理特定于对应玩家的数据&lt;/span&gt;&lt;/font&gt;&lt;/div&gt;" style="shape=note;whiteSpace=wrap;html=1;backgroundOutline=1;fontColor=#000000;darkOpacity=0.05;fillColor=#FFF9B2;strokeColor=none;fillStyle=solid;direction=west;gradientDirection=north;gradientColor=#FFF2A1;shadow=1;size=20;pointerEvents=1;" vertex="1" parent="32m44d9N0e-9UPWyHcc5-28">
          <mxGeometry y="64.86486486486487" width="213.08235294117648" height="51.891891891891895" as="geometry" />
        </mxCell>
        <mxCell id="32m44d9N0e-9UPWyHcc5-36" style="edgeStyle=orthogonalEdgeStyle;rounded=0;orthogonalLoop=1;jettySize=auto;html=1;exitX=0.5;exitY=0;exitDx=0;exitDy=0;exitPerimeter=0;" edge="1" parent="32m44d9N0e-9UPWyHcc5-28" source="32m44d9N0e-9UPWyHcc5-30" target="32m44d9N0e-9UPWyHcc5-30">
          <mxGeometry relative="1" as="geometry" />
        </mxCell>
        <mxCell id="32m44d9N0e-9UPWyHcc5-31" style="edgeStyle=orthogonalEdgeStyle;rounded=0;orthogonalLoop=1;jettySize=auto;html=1;entryX=0;entryY=0.5;entryDx=0;entryDy=0;" edge="1" parent="32m44d9N0e-9UPWyHcc5-34" source="32m44d9N0e-9UPWyHcc5-33" target="32m44d9N0e-9UPWyHcc5-29">
          <mxGeometry relative="1" as="geometry" />
        </mxCell>
        <mxCell id="32m44d9N0e-9UPWyHcc5-32" style="edgeStyle=orthogonalEdgeStyle;rounded=0;orthogonalLoop=1;jettySize=auto;html=1;" edge="1" parent="32m44d9N0e-9UPWyHcc5-34" source="32m44d9N0e-9UPWyHcc5-33" target="32m44d9N0e-9UPWyHcc5-26">
          <mxGeometry relative="1" as="geometry">
            <Array as="points">
              <mxPoint x="230" y="270" />
              <mxPoint x="230" y="352" />
            </Array>
          </mxGeometry>
        </mxCell>
        <mxCell id="32m44d9N0e-9UPWyHcc5-33" value="&lt;em style=&quot;box-sizing: border-box; font-family: Inter, -apple-system, BlinkMacSystemFont, &amp;quot;Segoe UI&amp;quot;, Roboto, &amp;quot;Helvetica Neue&amp;quot;, Arial, sans-serif, &amp;quot;Apple Color Emoji&amp;quot;, &amp;quot;Segoe UI Emoji&amp;quot;, &amp;quot;Segoe UI Symbol&amp;quot;; text-align: start;&quot; data-immersive-translate-walked=&quot;ca94d9f6-ff4b-416c-a881-b508299f9b56&quot;&gt;&lt;font style=&quot;font-size: 20px;&quot;&gt;Game Mode&lt;/font&gt;&lt;/em&gt;" style="whiteSpace=wrap;html=1;" vertex="1" parent="32m44d9N0e-9UPWyHcc5-34">
          <mxGeometry x="30" y="250" width="134.34" height="40" as="geometry" />
        </mxCell>
        <mxCell id="32m44d9N0e-9UPWyHcc5-35" style="rounded=0;orthogonalLoop=1;jettySize=auto;html=1;" edge="1" parent="1" source="32m44d9N0e-9UPWyHcc5-10" target="32m44d9N0e-9UPWyHcc5-23">
          <mxGeometry relative="1" as="geometry" />
        </mxCell>
        <mxCell id="32m44d9N0e-9UPWyHcc5-41" value="" style="group" connectable="0" vertex="1" parent="1">
          <mxGeometry x="1420" y="7203" width="160" height="80" as="geometry" />
        </mxCell>
        <mxCell id="32m44d9N0e-9UPWyHcc5-42" value="&lt;em style=&quot;box-sizing: border-box; font-family: Inter, -apple-system, BlinkMacSystemFont, &amp;quot;Segoe UI&amp;quot;, Roboto, &amp;quot;Helvetica Neue&amp;quot;, Arial, sans-serif, &amp;quot;Apple Color Emoji&amp;quot;, &amp;quot;Segoe UI Emoji&amp;quot;, &amp;quot;Segoe UI Symbol&amp;quot;; text-align: start;&quot; data-immersive-translate-walked=&quot;ca94d9f6-ff4b-416c-a881-b508299f9b56&quot;&gt;&lt;font style=&quot;font-size: 20px;&quot;&gt;Pawn&lt;/font&gt;&lt;/em&gt;" style="whiteSpace=wrap;html=1;" vertex="1" parent="32m44d9N0e-9UPWyHcc5-41">
          <mxGeometry width="160" height="50" as="geometry" />
        </mxCell>
        <mxCell id="32m44d9N0e-9UPWyHcc5-43" value="身体(物理actor)，玩家可以控制的角色" style="shape=note;whiteSpace=wrap;html=1;backgroundOutline=1;fontColor=#000000;darkOpacity=0.05;fillColor=#FFF9B2;strokeColor=none;fillStyle=solid;direction=west;gradientDirection=north;gradientColor=#FFF2A1;shadow=1;size=20;pointerEvents=1;" vertex="1" parent="32m44d9N0e-9UPWyHcc5-41">
          <mxGeometry y="50" width="160" height="30" as="geometry" />
        </mxCell>
        <mxCell id="32m44d9N0e-9UPWyHcc5-44" value="" style="group" connectable="0" vertex="1" parent="1">
          <mxGeometry x="1580" y="7170" width="160" height="126" as="geometry" />
        </mxCell>
        <mxCell id="32m44d9N0e-9UPWyHcc5-45" value="&lt;span style=&quot;font-family: Inter, -apple-system, BlinkMacSystemFont, &amp;quot;Segoe UI&amp;quot;, Roboto, &amp;quot;Helvetica Neue&amp;quot;, Arial, sans-serif, &amp;quot;Apple Color Emoji&amp;quot;, &amp;quot;Segoe UI Emoji&amp;quot;, &amp;quot;Segoe UI Symbol&amp;quot;; text-align: start;&quot;&gt;&lt;font style=&quot;color: light-dark(rgb(0, 0, 0), rgb(255, 255, 255));&quot;&gt;Pawn 是玩家或 AI 实体在世界中的物理表示&lt;/font&gt;&lt;/span&gt;" style="shape=note;whiteSpace=wrap;html=1;backgroundOutline=1;fontColor=#000000;darkOpacity=0.05;fillColor=#FFF9B2;strokeColor=none;fillStyle=solid;direction=west;gradientDirection=north;gradientColor=#FFF2A1;shadow=1;size=20;pointerEvents=1;" vertex="1" parent="32m44d9N0e-9UPWyHcc5-44">
          <mxGeometry y="86" width="150" height="40" as="geometry" />
        </mxCell>
        <mxCell id="32m44d9N0e-9UPWyHcc5-46" value="&lt;span style=&quot;font-family: Inter, -apple-system, BlinkMacSystemFont, &amp;quot;Segoe UI&amp;quot;, Roboto, &amp;quot;Helvetica Neue&amp;quot;, Arial, sans-serif, &amp;quot;Apple Color Emoji&amp;quot;, &amp;quot;Segoe UI Emoji&amp;quot;, &amp;quot;Segoe UI Symbol&amp;quot;; font-size: 16px; font-weight: 400; text-align: start;&quot;&gt;Pawn&lt;/span&gt;" style="swimlane;fontStyle=1;align=center;verticalAlign=top;childLayout=stackLayout;horizontal=1;startSize=26;horizontalStack=0;resizeParent=1;resizeParentMax=0;resizeLast=0;collapsible=1;marginBottom=0;whiteSpace=wrap;html=1;" vertex="1" parent="32m44d9N0e-9UPWyHcc5-44">
          <mxGeometry width="160" height="86" as="geometry" />
        </mxCell>
        <mxCell id="32m44d9N0e-9UPWyHcc5-47" value="+ field: type" style="text;strokeColor=none;fillColor=none;align=left;verticalAlign=top;spacingLeft=4;spacingRight=4;overflow=hidden;rotatable=0;points=[[0,0.5],[1,0.5]];portConstraint=eastwest;whiteSpace=wrap;html=1;" vertex="1" parent="32m44d9N0e-9UPWyHcc5-46">
          <mxGeometry y="26" width="160" height="26" as="geometry" />
        </mxCell>
        <mxCell id="32m44d9N0e-9UPWyHcc5-48" value="" style="line;strokeWidth=1;fillColor=none;align=left;verticalAlign=middle;spacingTop=-1;spacingLeft=3;spacingRight=3;rotatable=0;labelPosition=right;points=[];portConstraint=eastwest;strokeColor=inherit;" vertex="1" parent="32m44d9N0e-9UPWyHcc5-46">
          <mxGeometry y="52" width="160" height="8" as="geometry" />
        </mxCell>
        <mxCell id="32m44d9N0e-9UPWyHcc5-49" value="+ method(type): type" style="text;strokeColor=none;fillColor=none;align=left;verticalAlign=top;spacingLeft=4;spacingRight=4;overflow=hidden;rotatable=0;points=[[0,0.5],[1,0.5]];portConstraint=eastwest;whiteSpace=wrap;html=1;" vertex="1" parent="32m44d9N0e-9UPWyHcc5-46">
          <mxGeometry y="60" width="160" height="26" as="geometry" />
        </mxCell>
        <mxCell id="32m44d9N0e-9UPWyHcc5-52" value="" style="group" connectable="0" vertex="1" parent="1">
          <mxGeometry x="1550" y="7380" width="220" height="156.35000000000218" as="geometry" />
        </mxCell>
        <mxCell id="32m44d9N0e-9UPWyHcc5-53" value="&lt;span style=&quot;font-family: Inter, -apple-system, BlinkMacSystemFont, &amp;quot;Segoe UI&amp;quot;, Roboto, &amp;quot;Helvetica Neue&amp;quot;, Arial, sans-serif, &amp;quot;Apple Color Emoji&amp;quot;, &amp;quot;Segoe UI Emoji&amp;quot;, &amp;quot;Segoe UI Symbol&amp;quot;; text-align: start;&quot;&gt;&lt;font style=&quot;color: light-dark(rgb(0, 0, 0), rgb(255, 255, 255));&quot;&gt;为垂直方向的Player表示而设计&lt;/font&gt;&lt;/span&gt;" style="shape=note;whiteSpace=wrap;html=1;backgroundOutline=1;fontColor=#000000;darkOpacity=0.05;fillColor=#FFF9B2;strokeColor=none;fillStyle=solid;direction=west;gradientDirection=north;gradientColor=#FFF2A1;shadow=1;size=20;pointerEvents=1;" vertex="1" parent="32m44d9N0e-9UPWyHcc5-52">
          <mxGeometry x="2.2737367544323206e-13" y="115.08015873015938" width="178.125" height="41.26984126984127" as="geometry" />
        </mxCell>
        <mxCell id="32m44d9N0e-9UPWyHcc5-54" value="&lt;span style=&quot;font-family: Inter, -apple-system, BlinkMacSystemFont, &amp;quot;Segoe UI&amp;quot;, Roboto, &amp;quot;Helvetica Neue&amp;quot;, Arial, sans-serif, &amp;quot;Apple Color Emoji&amp;quot;, &amp;quot;Segoe UI Emoji&amp;quot;, &amp;quot;Segoe UI Symbol&amp;quot;; font-size: 16px; font-weight: 400; text-align: start;&quot;&gt;Character&lt;/span&gt;" style="swimlane;fontStyle=1;align=center;verticalAlign=top;childLayout=stackLayout;horizontal=1;startSize=26;horizontalStack=0;resizeParent=1;resizeParentMax=0;resizeLast=0;collapsible=1;marginBottom=0;whiteSpace=wrap;html=1;" vertex="1" parent="32m44d9N0e-9UPWyHcc5-52">
          <mxGeometry width="220" height="115.07936507936509" as="geometry" />
        </mxCell>
        <mxCell id="32m44d9N0e-9UPWyHcc5-55" value="+field:&amp;nbsp;&lt;span style=&quot;font-family: &amp;quot;Inter Tight&amp;quot;, Inter, -apple-system, BlinkMacSystemFont, &amp;quot;Segoe UI&amp;quot;, Roboto, &amp;quot;Helvetica Neue&amp;quot;, Arial, sans-serif, &amp;quot;Apple Color Emoji&amp;quot;, &amp;quot;Segoe UI Emoji&amp;quot;, &amp;quot;Segoe UI Symbol&amp;quot;; background-color: transparent; color: light-dark(rgb(0, 0, 0), rgb(255, 255, 255));&quot;&gt;SkeletalMeshComponent&lt;/span&gt;&lt;div&gt;+field:&amp;nbsp;&lt;span style=&quot;font-family: &amp;quot;Inter Tight&amp;quot;, Inter, -apple-system, BlinkMacSystemFont, &amp;quot;Segoe UI&amp;quot;, Roboto, &amp;quot;Helvetica Neue&amp;quot;, Arial, sans-serif, &amp;quot;Apple Color Emoji&amp;quot;, &amp;quot;Segoe UI Emoji&amp;quot;, &amp;quot;Segoe UI Symbol&amp;quot;; background-color: transparent; color: light-dark(rgb(0, 0, 0), rgb(255, 255, 255));&quot;&gt;CapsuleComponent&lt;/span&gt;&lt;/div&gt;&lt;div&gt;+field:&amp;nbsp;&lt;span style=&quot;font-family: &amp;quot;Inter Tight&amp;quot;, Inter, -apple-system, BlinkMacSystemFont, &amp;quot;Segoe UI&amp;quot;, Roboto, &amp;quot;Helvetica Neue&amp;quot;, Arial, sans-serif, &amp;quot;Apple Color Emoji&amp;quot;, &amp;quot;Segoe UI Emoji&amp;quot;, &amp;quot;Segoe UI Symbol&amp;quot;; background-color: transparent; color: light-dark(rgb(0, 0, 0), rgb(255, 255, 255));&quot;&gt;CharacterMovementComponent&lt;/span&gt;&lt;/div&gt;" style="text;strokeColor=none;fillColor=none;align=left;verticalAlign=top;spacingLeft=4;spacingRight=4;overflow=hidden;rotatable=0;points=[[0,0.5],[1,0.5]];portConstraint=eastwest;whiteSpace=wrap;html=1;" vertex="1" parent="32m44d9N0e-9UPWyHcc5-54">
          <mxGeometry y="26" width="220" height="54" as="geometry" />
        </mxCell>
        <mxCell id="32m44d9N0e-9UPWyHcc5-56" value="" style="line;strokeWidth=1;fillColor=none;align=left;verticalAlign=middle;spacingTop=-1;spacingLeft=3;spacingRight=3;rotatable=0;labelPosition=right;points=[];portConstraint=eastwest;strokeColor=inherit;" vertex="1" parent="32m44d9N0e-9UPWyHcc5-54">
          <mxGeometry y="80" width="220" height="8.253968253968255" as="geometry" />
        </mxCell>
        <mxCell id="32m44d9N0e-9UPWyHcc5-57" value="+ method(type): type" style="text;strokeColor=none;fillColor=none;align=left;verticalAlign=top;spacingLeft=4;spacingRight=4;overflow=hidden;rotatable=0;points=[[0,0.5],[1,0.5]];portConstraint=eastwest;whiteSpace=wrap;html=1;" vertex="1" parent="32m44d9N0e-9UPWyHcc5-54">
          <mxGeometry y="88.25396825396825" width="220" height="26.82539682539683" as="geometry" />
        </mxCell>
        <mxCell id="32m44d9N0e-9UPWyHcc5-58" value="Extends" style="endArrow=block;endSize=16;endFill=0;html=1;rounded=0;" edge="1" parent="1" source="32m44d9N0e-9UPWyHcc5-54" target="32m44d9N0e-9UPWyHcc5-46">
          <mxGeometry x="0.0039" width="160" relative="1" as="geometry">
            <mxPoint x="1540" y="7483" as="sourcePoint" />
            <mxPoint x="1540" y="7360" as="targetPoint" />
            <mxPoint as="offset" />
          </mxGeometry>
        </mxCell>
        <mxCell id="32m44d9N0e-9UPWyHcc5-59" value="" style="group" connectable="0" vertex="1" parent="1">
          <mxGeometry x="1838" y="7014" width="162" height="80" as="geometry" />
        </mxCell>
        <mxCell id="32m44d9N0e-9UPWyHcc5-60" value="&lt;font style=&quot;font-size: 20px;&quot;&gt;AI Controller&lt;/font&gt;" style="whiteSpace=wrap;html=1;" vertex="1" parent="32m44d9N0e-9UPWyHcc5-59">
          <mxGeometry width="160" height="50" as="geometry" />
        </mxCell>
        <mxCell id="32m44d9N0e-9UPWyHcc5-61" value="主要管理玩家行为" style="shape=note;whiteSpace=wrap;html=1;backgroundOutline=1;fontColor=#000000;darkOpacity=0.05;fillColor=#FFF9B2;strokeColor=none;fillStyle=solid;direction=west;gradientDirection=north;gradientColor=#FFF2A1;shadow=1;size=20;pointerEvents=1;" vertex="1" parent="32m44d9N0e-9UPWyHcc5-59">
          <mxGeometry x="34" y="50" width="128" height="30" as="geometry" />
        </mxCell>
        <mxCell id="32m44d9N0e-9UPWyHcc5-62" value="" style="group" connectable="0" vertex="1" parent="1">
          <mxGeometry x="1839.9999999999998" y="6710" width="160" height="80" as="geometry" />
        </mxCell>
        <mxCell id="32m44d9N0e-9UPWyHcc5-63" value="&lt;font style=&quot;font-size: 20px;&quot;&gt;Player Controller&lt;/font&gt;" style="whiteSpace=wrap;html=1;" vertex="1" parent="32m44d9N0e-9UPWyHcc5-62">
          <mxGeometry width="160" height="50" as="geometry" />
        </mxCell>
        <mxCell id="32m44d9N0e-9UPWyHcc5-64" value="主要管理玩家输入" style="shape=note;whiteSpace=wrap;html=1;backgroundOutline=1;fontColor=#000000;darkOpacity=0.05;fillColor=#FFF9B2;strokeColor=none;fillStyle=solid;direction=west;gradientDirection=north;gradientColor=#FFF2A1;shadow=1;size=20;pointerEvents=1;" vertex="1" parent="32m44d9N0e-9UPWyHcc5-62">
          <mxGeometry x="32" y="50" width="128" height="30" as="geometry" />
        </mxCell>
        <mxCell id="32m44d9N0e-9UPWyHcc5-65" style="edgeStyle=orthogonalEdgeStyle;rounded=0;orthogonalLoop=1;jettySize=auto;html=1;entryX=0;entryY=0.5;entryDx=0;entryDy=0;" edge="1" parent="1" source="32m44d9N0e-9UPWyHcc5-39" target="32m44d9N0e-9UPWyHcc5-63">
          <mxGeometry relative="1" as="geometry" />
        </mxCell>
        <mxCell id="32m44d9N0e-9UPWyHcc5-66" style="edgeStyle=orthogonalEdgeStyle;rounded=0;orthogonalLoop=1;jettySize=auto;html=1;entryX=0;entryY=0.5;entryDx=0;entryDy=0;" edge="1" parent="1" source="32m44d9N0e-9UPWyHcc5-39" target="32m44d9N0e-9UPWyHcc5-60">
          <mxGeometry relative="1" as="geometry" />
        </mxCell>
        <mxCell id="32m44d9N0e-9UPWyHcc5-67" value="控制" style="endArrow=open;endSize=12;dashed=1;html=1;rounded=0;" edge="1" parent="1" source="32m44d9N0e-9UPWyHcc5-63" target="32m44d9N0e-9UPWyHcc5-46">
          <mxGeometry width="160" relative="1" as="geometry">
            <mxPoint x="2053" y="6890" as="sourcePoint" />
            <mxPoint x="1890" y="7327" as="targetPoint" />
          </mxGeometry>
        </mxCell>
        <mxCell id="32m44d9N0e-9UPWyHcc5-68" value="" style="endArrow=block;startArrow=block;endFill=1;startFill=1;html=1;rounded=0;" edge="1" parent="1" source="32m44d9N0e-9UPWyHcc5-39" target="32m44d9N0e-9UPWyHcc5-42">
          <mxGeometry width="160" relative="1" as="geometry">
            <mxPoint x="1520" y="7000" as="sourcePoint" />
            <mxPoint x="1522" y="7263" as="targetPoint" />
          </mxGeometry>
        </mxCell>
        <mxCell id="32m44d9N0e-9UPWyHcc5-69" value="1对1的关系" style="edgeLabel;html=1;align=center;verticalAlign=middle;resizable=0;points=[];" connectable="0" vertex="1" parent="32m44d9N0e-9UPWyHcc5-68">
          <mxGeometry x="0.0355" y="-1" relative="1" as="geometry">
            <mxPoint as="offset" />
          </mxGeometry>
        </mxCell>
        <mxCell id="32m44d9N0e-9UPWyHcc5-38" value="" style="group" connectable="0" vertex="1" parent="1">
          <mxGeometry x="1420" y="6870" width="160.0000000000001" height="80" as="geometry" />
        </mxCell>
        <mxCell id="32m44d9N0e-9UPWyHcc5-39" value="&lt;font style=&quot;font-size: 20px;&quot;&gt;Controller&lt;/font&gt;" style="whiteSpace=wrap;html=1;" vertex="1" parent="32m44d9N0e-9UPWyHcc5-38">
          <mxGeometry width="160" height="50" as="geometry" />
        </mxCell>
        <mxCell id="32m44d9N0e-9UPWyHcc5-40" value="大脑(非物理actor)，&lt;div&gt;控制Pawn&lt;/div&gt;" style="shape=note;whiteSpace=wrap;html=1;backgroundOutline=1;fontColor=#000000;darkOpacity=0.05;fillColor=#FFF9B2;strokeColor=none;fillStyle=solid;direction=west;gradientDirection=north;gradientColor=#FFF2A1;shadow=1;size=20;pointerEvents=1;" vertex="1" parent="32m44d9N0e-9UPWyHcc5-38">
          <mxGeometry x="20" y="50" width="140" height="30" as="geometry" />
        </mxCell>
        <mxCell id="32m44d9N0e-9UPWyHcc5-106" value="&lt;span style=&quot;font-family: Inter, -apple-system, BlinkMacSystemFont, &amp;quot;Segoe UI&amp;quot;, Roboto, &amp;quot;Helvetica Neue&amp;quot;, Arial, sans-serif, &amp;quot;Apple Color Emoji&amp;quot;, &amp;quot;Segoe UI Emoji&amp;quot;, &amp;quot;Segoe UI Symbol&amp;quot;; font-weight: 400; text-align: start;&quot;&gt;&lt;font style=&quot;font-size: 18px;&quot;&gt;UGameEngine&lt;/font&gt;&lt;/span&gt;" style="swimlane;fontStyle=1;align=center;verticalAlign=top;childLayout=stackLayout;horizontal=1;startSize=26;horizontalStack=0;resizeParent=1;resizeParentMax=0;resizeLast=0;collapsible=1;marginBottom=0;whiteSpace=wrap;html=1;" vertex="1" parent="1">
          <mxGeometry x="720" y="9010" width="160" height="34" as="geometry" />
        </mxCell>
        <mxCell id="32m44d9N0e-9UPWyHcc5-107" value="" style="line;strokeWidth=1;fillColor=none;align=left;verticalAlign=middle;spacingTop=-1;spacingLeft=3;spacingRight=3;rotatable=0;labelPosition=right;points=[];portConstraint=eastwest;strokeColor=inherit;" vertex="1" parent="32m44d9N0e-9UPWyHcc5-106">
          <mxGeometry y="26" width="160" height="8" as="geometry" />
        </mxCell>
        <mxCell id="32m44d9N0e-9UPWyHcc5-117" value="" style="group" connectable="0" vertex="1" parent="1">
          <mxGeometry x="-330" y="9301.5" width="180" height="70" as="geometry" />
        </mxCell>
        <mxCell id="32m44d9N0e-9UPWyHcc5-114" value="&lt;font color=&quot;#ff8000&quot;&gt;坐在屏幕前的用户&lt;/font&gt;" style="shape=note;whiteSpace=wrap;html=1;backgroundOutline=1;fontColor=#000000;darkOpacity=0.05;fillColor=#FFF9B2;strokeColor=none;fillStyle=solid;direction=west;gradientDirection=north;gradientColor=#FFF2A1;shadow=1;size=20;pointerEvents=1;" vertex="1" parent="32m44d9N0e-9UPWyHcc5-117">
          <mxGeometry x="60" y="34" width="120" height="36" as="geometry" />
        </mxCell>
        <mxCell id="32m44d9N0e-9UPWyHcc5-115" value="&lt;span style=&quot;font-family: Inter, -apple-system, BlinkMacSystemFont, &amp;quot;Segoe UI&amp;quot;, Roboto, &amp;quot;Helvetica Neue&amp;quot;, Arial, sans-serif, &amp;quot;Apple Color Emoji&amp;quot;, &amp;quot;Segoe UI Emoji&amp;quot;, &amp;quot;Segoe UI Symbol&amp;quot;; font-weight: 400; text-align: start;&quot;&gt;&lt;font style=&quot;font-size: 18px;&quot;&gt;ULocalPlayer&lt;/font&gt;&lt;/span&gt;" style="swimlane;fontStyle=1;align=center;verticalAlign=top;childLayout=stackLayout;horizontal=1;startSize=26;horizontalStack=0;resizeParent=1;resizeParentMax=0;resizeLast=0;collapsible=1;marginBottom=0;whiteSpace=wrap;html=1;" vertex="1" parent="32m44d9N0e-9UPWyHcc5-117">
          <mxGeometry width="180" height="34" as="geometry" />
        </mxCell>
        <mxCell id="32m44d9N0e-9UPWyHcc5-116" value="" style="line;strokeWidth=1;fillColor=none;align=left;verticalAlign=middle;spacingTop=-1;spacingLeft=3;spacingRight=3;rotatable=0;labelPosition=right;points=[];portConstraint=eastwest;strokeColor=inherit;" vertex="1" parent="32m44d9N0e-9UPWyHcc5-115">
          <mxGeometry y="26" width="180" height="8" as="geometry" />
        </mxCell>
        <mxCell id="32m44d9N0e-9UPWyHcc5-124" value="&lt;span style=&quot;font-family: Inter, -apple-system, BlinkMacSystemFont, &amp;quot;Segoe UI&amp;quot;, Roboto, &amp;quot;Helvetica Neue&amp;quot;, Arial, sans-serif, &amp;quot;Apple Color Emoji&amp;quot;, &amp;quot;Segoe UI Emoji&amp;quot;, &amp;quot;Segoe UI Symbol&amp;quot;; font-weight: 400; text-align: start;&quot;&gt;&lt;font style=&quot;font-size: 18px;&quot;&gt;AActor&lt;/font&gt;&lt;/span&gt;" style="swimlane;fontStyle=1;align=center;verticalAlign=top;childLayout=stackLayout;horizontal=1;startSize=26;horizontalStack=0;resizeParent=1;resizeParentMax=0;resizeLast=0;collapsible=1;marginBottom=0;whiteSpace=wrap;html=1;" vertex="1" parent="1">
          <mxGeometry x="-420" y="9900" width="180" height="34" as="geometry" />
        </mxCell>
        <mxCell id="32m44d9N0e-9UPWyHcc5-125" value="" style="line;strokeWidth=1;fillColor=none;align=left;verticalAlign=middle;spacingTop=-1;spacingLeft=3;spacingRight=3;rotatable=0;labelPosition=right;points=[];portConstraint=eastwest;strokeColor=inherit;" vertex="1" parent="32m44d9N0e-9UPWyHcc5-124">
          <mxGeometry y="26" width="180" height="8" as="geometry" />
        </mxCell>
        <mxCell id="32m44d9N0e-9UPWyHcc5-154" value="" style="shape=image;verticalLabelPosition=bottom;labelBackgroundColor=default;verticalAlign=top;aspect=fixed;imageAspect=0;image=data:image/png,iVBORw0KGgoAAAANSUhEUgAAAmkAAAFKCAIAAADJw1+AAAAgAElEQVR4Ae29f5AdR5XnS7yYvx7/zD+Pp7ElVctSG2wZj8EWhpHa0gN5QzEguz0DIyMJxS7+gSx5eszg1XhsS90NZhHglcyArVYvEhLGtqRuCGyGkGN2JG8r1j8C7iN4b97EvgnzgGF2dt6G//J/RLw//DbzVJ48eSrr3lv31s1bt/t7Q6HOysrMc/KbVfm5J6tu1btW4QMFoAAUgAJQAApUUeBdG/GBAlAACkABKAAFqijwru5Bu3Hjxu4Lo2TTFNi4ceO7Hvm/8A8KDFQBzBJNO/Hhz4AUADsHJGzjmt24cWOGDxQYsAJgZ+POfDg0GAXAzsHo2rxWwc4BUwPNGwXAzuad+vBoIAqAnQORtYGNgp2AWwIFwM4GnvtwaRAKgJ2DULWJbYKdCcgBE2BnE09++DQABcDOAYjayCbBToAtgQJgZyPPfjhVvwJgZ/2aNrNFsDMBOWAC7Gzm6Q+valcA7Kxd0oY2CHYCbAkUADsbev7DrboVADvrVrSp7YGdCcgBE2BnUycA+FWzAmBnzYI2tjmwE2BLoADY2dgZAI7VqwDYWa+ezW0N7ExADpgAO5s7BcCzWhUAO2uVs8GNgZ0AWwIFwM4GzwFwrU4FBs/Oq27fefu5Y3/2n888bP899Ddf+8TnP1hnF9BWVwr0yM5dnz969Kuxf5//ZIKZGCZGTQGws6uzEYVGX4EBs/OqPQfvddT8s1fmDr7y7c//5zMPP/vpuoTbdN+Tp568b1NdzQ2hnQ/d/+SpxyYTGO6RnVNPv/jij2L/nj44atP6EPz94qtvv/PmuRoMn3vznbdf/WLVhs69+c47b16oWovK/+upP91SqLll6k//dSEzyAA7E5zLMNEEBQbLzltv/5ENN1+Z3Xz7auruVbds3fb4zk5dN0Q59WitSPnQfU9WpKwBc70+RLrddHYGE2N3GxfefMd/aiFHll0w7Hgit2+Q4D+/qINN3fWscqkhs7Oyv1zhrmff/O1vf3PxMYnPLYf/+je//e2bZye5VCQBdkZOcmQtRwUGys47D95vg869s+PVtJt89NSjjz526tE7q1VrWxrs7Ok9KjPf/9nPfs7/Fmci06XMeuK1t9+RkZbhaA8Bk2zSpjU7a0JywU7NGSPLzizLSfnDPPrcMvX9Ik0jaoGdbWch7Fw+CgyUnX8xa69xfnPHp6oJduejZhmT/nc1KT6bfOyU/bgI0oeGk4+eevK++x+l3Qa6d4q0acSzM97UqlU22LUNkHVq69SpJ+//0KpVq5zpU6eevM9sU/nHJl2+c8nsmcxtn3L4N37mrqlgOnTGlbft1/tfj2u2t3z0jrvu4H8fvSUyXfqsGCoMTW1o+MRrb7/9mgsdv/jq25E40lP23C/ywPLt156wPM437QrkuTclno15u6T5mglHrQkfmLLFc7945+3XXs0DVuOPKyPCVmnUtHrhTfI8yzLjg3OYOyIcCzzPDb396hNekCdefdt8i3D9J5/9N4Bzv8gXV62f50xh8+Fmec026DvXyj2kOq+dM+KaBV6ulYXNert+7CIpxucfdglOvEel3nMWrTVZgSayczKPOC0O3bVMAhtFoiZNAAvYeSq/cEjUpIuIJk3rriE7HdV8U3ca+BIU8wHzjVsc5lclP2QusVqaxl2y4Mwj5k333WdCZ9GRgpWSRuo/ZmphJ0P0jrs+elNhtmVMBnscPxg5Zq9np4FKfk1OlGRo5U11iDstCJmCF94UDeb4sVwkZhA1fZoKC+fZJQ+qc794++23qcoTOZlMSO0g5Dw3vDLU1/kmk93Lu+Qbp1rkhq3ukOlNMAXjteSatiV6hJ1M4pgzwYiJDRtu/n/vvPPbN10AKnbGkog76z910WIjFRgoO3tasxXEmnwspxQHebmGXIYTkk/xdMhOvj2HW+AEj1Mxx+760P1PenYW2wnDZe258S24hmrYWWyEfagv0SM7wzVbXrz92c++f7gwdQr8yH35dB9nZwBFgaUgRGt3vdMFmo430nLmGrRIC2PQPAK0AdkTMkSjGM4WFhB9+9VX89Dw3JvGN96V2+MQ0DVo8y1TXxUxq/AuTsGgurfSnp3KGe4116K40wW9gebCo0gS7KzvDERLy0uBgbJzVQ/3CmmWuFgwyGcCebyJ2K4SO7mpVbzM69jmGzdjTgEiLbxG2OnaYbLycSIr2upyddc2y+x0jXDdGhM9sjMyn5ZmxdnpYrJSdtLypPvfR4F2zTKf74PpPqCO9cZDwm4alriPjzs7sdPVoL82TMx9vvCmqev+txEk8ylXg3sXwM/0XS69SumCXsTRa5FvBeEORmspZ3iTa4Xs9EG/9KeYxpptjecfmlpuCgyWnasq/0bFrIiqj1+nLTLG460OdtLg8rKqbzwgHNMxivMw07TI5aPHTlheR6XRKr1l9sjO4m9UvvulO4rTLOU4TMr9DFSmi9nL07e4pihrUZrryjVJGyO6RdG8jodE5mM1E0C6K38BPCTeXDpgkvfE+nnutTfN5cM8/baFmQr1TPu86MqQNlXeefOcX3r1DatexKt7/7mDgZ+ulnJGFo58dfDiS3d0msFJt9riXqHeTjvUWrYKDJidq1atUs9G+LMfze4ofzYCc8sJzmjhhN3jGOPxVh87uU1O2BuFKNa09xyJ651xnLtbfuh6p2kniDXpzqM2wavrfZ1/e2Rn8dkIM/fLHy6oKTe42ke32/ANLz52tHFhviprrj4SdVRTZpOrcMLkBvywtZgWwQ0yFl0ReDhe2rbMPUQmuC25Cmhallc6XdrePVS4rkntaHbSrUZ5YeYcJ2w3nQhSQPPVwatEHYnXEiXJMSrsZZFd7oad+I1Knece2lqOCgyenVVUkxc483oOPANnp7sv19xH625QontoLeT41tknH30sdr1TLrcan+njmvKN5zc0cU/j/aoiWpdle2SnRVOl/8w8Lj/+HhmLTFrDvCDus80XNm0diwrRAseXeV23gMn55JqHhNk2cR619uab+R2nHeNOClLzeu8w70OmSkTJW1v9zUHhhdU87rQ+Wii+/eoXNfyMyV+ccxEk+enuB2Y2iztmfe9ErZz91OnS+2zd9U4O+tuNK56N0OWJhWIrVIFmsXOFDkKSbidjZzghO156gob7sRUqEASI4a6ut4pxeddV+y6I+2yTnM0wMnwFwM7hj0EaD4bEzr4n4xXWQP/sLFl8TqQj2JnmdIaVoSsAdg59CBI5AHYmokd/Znpjp1jlNuvNbnG2P1d6qg12JjqfYWbYCoCdwx6BVPbBzp5YgErVFAA7U53QsDNkBcDOIQ9AMvNgZzUIoHRPCoCdyc5oGBquAmDncPVPZx3s7IkFqFRNAbAz3SkNS0NVAOwcqvwJjYOd1SCA0j0pAHYmPKdhapgKgJ3DVD+lbbCzJxagUjUFwM6UJzVsDVEBsHOI4ic1DXZWgwBK96QA2Jn0rIax4SkAdg5P+7SWwc6eWIBK1RQAO9Oe1rA2NAXAzqFJn9gw2FkNAijdkwJgZ+LzGuaGpUA1dm7EZ5QV6GkyRCUoUEGBUT4/4DsUqKBANXZWOIdQFApAASgABaDAMlUA7FymA4tuQQEoAAWgwMAUADsHJi0ahgJQAApAgWWqANi5TAcW3YICUAAKQIGBKQB2DkxaNAwFoAAUgALLVAGwc5kOLLoFBaAAFIACA1MA7ByYtPGGDxw/f3b2rvi+vnJ3PPzNZw5/8r2V2zAOzUxWrXbg+Pnzxw9UreXKf+AzT5w4/uCE28Tf2hSYnDnbYVx6O0623n/46FePRv4duW9rbc4v34ZqO+uHcbYu32Hpr2dJ2HnX7Nnz/KmJHKZNnrwnZ09z++fPn56tjIL+RKxSW59FZrJTnzb+B71WZt/7ycOnnptvg89QJSdeb2ejsl1587YDx8+ebYfPB49LVY4/aC2IzID3Ir8fpMteBLIE7Z/PnZGlG5PuzM6s43ES68xdX/rOiz96MfLv7BfLvgjirPdC6rPe76mYCg7LinVRvF4FBs9OM+8IXtozqobZJ6DI5OxpYaJehWpurewsMmDrLEvQ66JnZlo8O/dISfQpVTLmCD9DOxstPr9+X0n0+eBx/9WIOmoOJAf8bHJ2Jo967ZcPzs8ydbwVReouJ5Cl6Ex3jaQv1QU7s8zis/w4qcNrNQo46+Uc2IfAwWHZRzuo2r8Cg2ZnDBUPHs9Dw7tmz/oYS87smVkStB8OL3x8dvyAnR9lgaAuiWIPslnTjDXBDXJU6gucpznZFRHzcGA0s/Oy22t2OecnZ87mfto5QnnuDZnyXhBrzzWXaXYeOC5QSnO3mY9kr6Oj/95P/uWJkmkxVMnxwLpnAvWIRbLAnTo9e8D1lGvRZO20899gXE7bBeHb7v/66bNxfDr3fCeLOVmWxb5MkEtZlvlxoZJuvGwtUpL19/7O3iUDdFugaNranbVrBvYbD1fn/tqBnsmHzJRxwye/IXE1/h7j9vovN5k5NnJh/QHp52Jv6OzMJPed+sinj5cxT7U5Tgplsyz7zNOXfvbzn7l/l07sjhXiPOuSikdx1ltB7IjzUWcUi5534WnlpwI+76K1THM9na08ckh0r8CA2cknTOCRO7VK2OnPfyZKsZ1g0vSTC9sJj9EDx/PD1U9JogDNYFTCpPP5Sxh1h6w5YineMWuOpynN1kVd9tyeGyJgyvtu+shTuXG6C3aWoIK77BL5tFhYuGY/bUHHA9e1+Dls3XdEtKclz/KUMB1xinGnxAg6p8r+Ej7v2aT3O/dEvpFXwSBuyB0bJex0hx99GTKjoMWnGc3bKjojpDAePng8P2ZMPsllDyo6QIiaPp0fQsJ554A3dOD46bNnqSCfJqadvK740iAM2a8Ltog8FIWEQbLsOAkK5RvXb7njrjv8vy3Xxwq5PHHiuKxcUXOln7tj9vljMq5GcI6or0q+LlsJtMiaf9Ybx6MUNGq408qOdX4ODuJsZfWQqKTAUNjpDvr4WSSmNg4d3Gzo+xbkmKnHf+z0wgeZr2JTPJ/KArG0m86ofj6pceaB46dnZ/PQ0KQn/bTlDLp5UDaeo8iEI24SzItzy/l29IwSM6azEvlr58T5w23Z6edWdi9qUcxoxlJRvaAAD0p89oz4mll2Hj8QY6cfUQdvC7nzgqCBdd98/hWHvTV73MEWVslLsgjcRpDjQkbrkXWGe8oV8oQ7ts2UyG5H0zLTCcvNPnj87Iw5vswXNZM2x5da1Xfjpds5f3yWF+S1d8F22XESFMo3FDsFRyMYjY++U8YNhG3ZZQZyFdRgj1gfk2ME8Z+RPOtNN9w42k66SSM8Sq069oY+M9gu4ZYo/HqYqsXHP9cKCgRissRIdKvAUNjpzvbSs8ifESZFlMnnL4ecYOD5DPTd5sOFssxB4z588HFgIQu7dHhmurXf/HCk6cz9Tx7ykZo74XrnGqRs+82Yv1F6f8tmRlvCnVFdsNNMiM+dmo1d8gx6xCceu1d2DrNKndlp5wGKy3PBVdzg+2tTt93/9bPPxe8Y4i6rKmbTdsQeCMFcwCXdsRGMiBsOeSTYI4IIl4vDnWVZTKtFZ5wJZ1NqSw2aBtwN1dF0fiS4o5KO8/xIPnDc1HX/00KIPshd72TjhjqmwfayG6fbHCeuT/JvuGbLi7c/+9nlb31GlrPpODudn24gbFHuVFQNq7zpz3I9640GZecddzp63pXV4gM4Wis8X0wb+V0DhTFERkcFBsxO+4XJzSDOGT61Ss+i8hGVdf3A8xnoTFB85356IY8YN+P4r3L5cpIrbE5xk460aVq3Ph+YOc6rTwdmzhKHpBVT0k24rkHyzc4gD/LKHjtsJl/mWdkZ1Ymd7SfEeI/YvbKz0cssVOVaYa/12Rju5c7aRBtwCvXCOrzlDGmGmQJslMfa5LqDLcjk9vKEHwXuoNnjhtIXD+z6WuKwsQOdX/OLpl0XfKMmZd07MHs8X8k4O3Ng1l8aiB4hsvG873ZVoc2s2P44CR3qZStwKW9Anrke7XxMxtWI1PWHI9f1LhrD7kTmw8Cpml/U5wKysEtH2jStD+qsN22bntNt5OJIk87LMs7PbmtRZ7lW2Gxbzb2oSMUVGDQ76YswfwG3R6GPusyYElnNoLp0uzOf5yxOmH5Fjng+XEI0mmlOHU9hAc9U45I/yVk+07C80unSqmt+PpWeEH1Ml00YLWTJJmdOnTvGp1CWTU6fOXeMpr8Dx86dy9N3zXAuO+QS7/3kXz7zvW/PxCJOKjI5c+rMjLqDI8sOHDt3ZtpMK+UWXS1jPS8cq2WEPOaczr168Ni5UzPOQ/H3tvu/duZ7x9r8xPNB3dLk9DHv/IPHnCLGJKeNAbPLOWyt27VrI++5U3ZaNb1wBYRHlOR+cSJvMx8LVyEYCFM29803LjKtxs55n288V82S/6fOnKH8u2bOcJoGiCt4B3yDYhBtf4uNG/c7Hieuj/LvXV88/cOXfhj8+9ZBWSBMm2OJNTHsMUeOO7y9w7JYXA1qljvLCZMfOZ5N0/ZgpmPRpY0alC4pEJ4FdJwEPTL1zpwiQY1dl1Zd82exNEQnmTkA/MHpS0bPO6mMrZWPJTcbrWW/W7tZxcyQeq4DO4NR7W9j4Ow07gWXi4IFJYtMsyhjv1+7UQ+uZNhM3wKXMZBzl746sNMSyxQ+f/7s8eP5PbESaW3SVM1ft6e2XGCs+WqPV6rC3yVl48ROmkbt6cETij+X3IBaKJyzYBAgoVw3KbiyWZZ9/JFnTrYBZ3yuCaeYuEV76ho/zp2aOTB9Rs1B4hz27KSu2TrR+fsD93/t2+3ASQjRVdm9EJY5VKw1+s9XNKraz5mZB2fO8JxopjD3MYW5mICZne7zbaF/rngwidOcaBs8dexY/gXFzHJFXvpp1DQk7AaFg6NCjnVMWGmo8AWo+MWl83EiDipObr3/8FeOfiX49/lP8t5oQopsDx6+AM+9ODN9QHyfK6jhW2Al6asSgbADO63UNMpnjh3Tx2145Ht2Ur47OHggrF13XBn/+Vhy3wyoivt+EDQoB536fuxB01lXmA/sYwfckWaKHZvxR6/7ysvsFL3ztcw4ONHOl98V74YLcadToqe/SdgZepZf2YiEdGE5bDVPgQeOnTvWJtxohMN35jPOsQca4Q6csAo8QF9XTs3cCUG6UOBOw85+D2CzCiSWsrowiyIVFBgCOyt4t8KKrm3458CTzz//5P6GOwn3oMDoK3DH4dNdnmqlc+TB6CWB0uLYUVUBsLOqYrWVH40T/I7D3/4ef759+I7R8BpeQoGRVmDn49/+3tc/V7kLdx45/Xz+eeGF77i7pmqbstCQVADslGqkSFc+H1ABCkABKFBdgRTT2Qq2AXYmHXx1/K/BBwpAAShQnwJqhkk6u60wY2BnugGXhzWfLKvxgQJQAArUoQDPKnKqSTfBrTBL79pY5bPCxKmzu3w00/F9yy23bN++/XZ8oAAUgAL1KbB9+/ZbbrmFJhmec+qcyNCWUwBxp1NikH/5IGZw3nrrrevXrx/DBwpAAShQnwLr16+/9dZbgc9BTud522BnApEzyc7Vq1dv374d4KxvukBLUAAKeAXWr1+/ffv21atXr1mzhmeeFNPcCrMBdqYYcDqCKehcvXr17bff7o90pKAAFIACtSpw++23EzsZnymmuRVmA+xsO+D75pda5rN0Ym/bcu128le/NWvWrF69+uqrrwY7a50o0BgUgAKBArfffvvVV1+N0LPdvNz3vtFj5w07H546NDu1Z0fffe/YwJGF/qhJBlTQCXYGZzk2oAAUqFsByU6Enh0n+t4KjBQ7b7z73kOz9+68e1cads4stFoLR3rTVdRidtJd6GBn3RMF2oMCUCBQgNkpQ08xJyFZgwIjxM4duw49vOPGLMt2jC47r7YfrNkGJzo2oAAUqFUBYqdatq0BF2hCKDBC7GSvR5udV111VRt2TkxMXLx40V5jNf9dvHhxYmKCT6vJycmLFy9OTk5yTs+JgwcPvvjii7LxnpvqWHHOfhYXF6enpzsW7lhgcXFxbm6uYzFZIKrb5OTklStXSOrXX3/94MGDsko/6cG13I9XXHfOfuQmH2+U6Ebe6elprqWOUm55bGyMBp30/8IXvlA8egen1eBalh3sOT1nP1xd6knCLi4u8t6qidtvv/2qq64CO5kZg0iAneWqDmDN9uqrr+7IzhdffJHn8bm5uStXrkhY1kWgiYkJaajqyVmp/Jz9TE9P9zMdVLLIhVkuTtAumlgZEgcPHrxy5QrLztW7T0g9o6juvqlBl5yzH2WlG5/l960uR1Oyc3JyEqPAskdHQR5FXFIl5CioXbwJdpZP67XtATtLpTyy2Got9nu5s3iTbSV2jo2NzdkPnxUHDx587rnneLOfxPT0NMOjn3Y61p2zn4mJicXFRfk9oGPF/gvwZK10KwavXcKgzCU563XDobJ2EuTP2Y8y1I3PctbuUi7FTowCyx4dBXkUcUmVkKOgdvFmlJ1r164tneywo7oCYGdEM0PNVmthJrKralb/7ORThaYhdXbxUg+vOlL506dP08oPLZNGM+V0KZvlNBV46qmnZFOU+dxzz5HFgwcPvv76661Wi+Pjubk5Ki9zCNJz9kNnuGqcCqjG5Qo2x6wSh8q0LE+TO3ly8eLFT33qUxxncwd5rhkbGzt48OClS5dUbMS2VMtjY2OsPDXOK+30/UAtTpL+L7744pUrV77whS/wWrHsNel85cqVffv2UWu8Fqqs8yFBi6LcyOLi4oT9SGeoj4uLi6dPn3799dftCJj/6GsZHzakPH+zkWikNA90q9Wath8ekbGxMSmpTCt2yl0yzQNRdRR4Yfb1119/7LHHZMdVj2iIX7Sfxo6C0qTjKLBuKgF2Vp2oeygPdpaKZgh6eb7333XahmtnJ83aNPfJE4ZPM5rjqADPRNFMmj0JrvKk5TRNTDRFTk9P01QuVzvlJM4OsFdz9iNDZyITXWSVjU9OTl66dOngwYOycQIG95QjRZqOo6a5DPvA8JO6sTkuNjY2xlOtrEJpFoSL3XfffUxiakSVYTrSFwjSX13uZYtSirm5OeIZdX96elq1fPHiRb5wSC3QdWvSv41oTGI7LHM8oOQ/O0ObcjQ5rTSn7yWtVouYzYJIh0lA2TivdvQ/CpOTk9QX8lkhnFSVX+OaPwpSOjpi+QtKdBS44yoBdpZO6/XtADvLtazjemct7FSLtJJAMiKhyVFOcHyzRjSTvolT4/Kk5bSc8jjNCRl7cXg3MTEh5yw68+UE99xzz9FlRdkO81Vmym5y0EALvxT38NxNN1Xdd999Ktrj7tPMwg1yB+WMw6aL7JQ9arVaxLbFxUUOrIuztvJE6c+hOTXFptV0yeBhEkvrJMLp06cp0p2bMzjkPlLX2K7s1Nzc3KVLlxilLI70mWdq6RK3JjOpupRUprkL3Dh7KIvxQLAU0mFupKgDRf/8pUS2yU1x49J/OuToEGrOKEj/lcg8IqoX3DuZADvLp/Xa9oCd5VI2g53FWIqRwKGJRIs6tWjeiWbKGV+etJyWsw+nOaHObTp1ZTDBZ/uc/VABzpTt9MZO/kpOLas+Uqacglk3SnBEqxyTVXjW5qmfCtP/xFSCEIvGsSmvf8rRoZ6S51xFSsH6sLdyL1unYk899dTBgwfn5uaOHj1KBGUyUUnWRHaKbkCjBWpuUFmRbnCaWysOPfdFHlRlXWBnisc22+IyZY2w51SAg3UOf1WPRmIUpIxKZFZGjoIUQabBzvJpvbY9o8TOzXtmzROFgn/0i8/a5AgaagA7FxcXOT6QswndcyFBNTc3x3En3zIq12yLmXSy8RoaT2R806mcfTjNCZqMuFlqjS3SjFaMO/mOIQIPRQzcEdl4m+XH6elpdpKnDFWe8qVo5DDF2Wr5bnp6miZfyTb2MNoytc+THSc6srO9zjxFMjOi1icnJ1988cXnnntuYmKCNOf1g4sXL/LXArYldZizn+npaRk3S+VJKIbrov0o9kg/WWq+UsBHBdktNl7vKPB3r1EfBel/N6NAyhf/BzuDmXwwG6PEzsEoUN7qkNjJ9zvQlSQ+MeT0x+cYr/7RTRA0k/4PiF66dInX9+gkLGZSyzyvEU5arRYt6NHVR463uBgnqDrfMtNqtWjqXFy0t1rZy2BFdvI0R+1wZxmibJEgxMt0HGWyDkXTcnGVGqQy/P2DdVONS6m5kStXrly8eJEdY0/UzUEMKhqLNvcK0YXe9jpLJnFP2SX5k1/mIsGV/FT9KorG+lNYQzf+RHlfHEcyFL1XiI4xunWLjx/Gvzpm6hqFiYkJPv55iEd6FKQydH61HwWeHFQC7Cyf1mvbA3aWS2kfBN/PU+CzTL99rOPvO9U50GaT40VVJrqkE83kinSpjDcHnaB1xejlyW5MM1G6KVwsU6YbTVIMm2JF5NSoAEahRjGLTYGd5dN6bXvAzrZSmtDTfHomaNV7hYqnQdWcKCajmVVbrre8ikW6bLy3Wl02jmJQYHkoAHa2ndbr2Ql21qNjm1YIn/wCsvbPRuj/1I1iMprZv61+WqhKQV4w5DXSfqyjLhRYxgpE2dlmjsKuHhQAO3sQrVqVxOxcxjMCugYFoEA3CoCd1ebonkqDnT3JVqWSYifeQdbNyY8yUAAK9KwA3qNSZYbusWw1dq5Zs+Y973nPu9/97t/5nd/5n5bpp0chy6tJdq5evfrqq6/evn37+vXrez4xUBEKQAEoUKbA+vXrt2/fTi9Rwfs7yyfmfvdUY+fatWtXrVr1u7/7u+9+97v/52X66VfRQn1mJ1/yvPnmm2+99Vbgs+zkRz4UgAK9KbB+/fpbb7315ptv5heQrVmzhqagwsyEjL4UqMzO1atXr1q16j3vec//MsDP+Ad3fPoTd316y/VxG2s3TX7irk9/YsfE2vj+vnL7kjNWmQ7ctWvXMjuvvvrqm2++efv27bfjAwWgABSoT4Ht2yiP/nUAACAASURBVLcTOJmdPP/EJifk9a5ANXbyDxbXDOxz3Y4HPzf14Md2/JvPTT1y10eiZj5219Qjn5t65HOf/aProvv7y9yyZUt/DURqr7afq+3nqquu+j37WWU//6v5bH/oa9/61lcf+uh73vPRB7/2V3/1tamPvYc/ux/7xje+IXI+NvW1x3bz3l4SH5v62je+8Q3RyO7HRPu9tGjqGD+/MvXRXqtXqvfRB00PHt3DlXY/WoPpj059JZCFW+89sefRYOx8Q9aW9dn2pQb9Tdul5rxhpJaZAnYCyf+jKYWmF3r3tVy5jUxMyOpDgcrs7B3T3dSc2D/1wN03ZFk2sX/q0MyuiUidzXtmph64e/POh/OSkSJ9ZW3btq2v+rHK/NWPQk+66knPSbjKfD5xeP757518/A9/7/d+7/6vPvvs/GOfoOOfNp/96v1us4a/f/jY3LPPzj1mbNX6ue+rA2k24uMnHpt/9tn5v6y9B1aZr94XsdhzlhpN344YhdIyvnS3qRqb6tYkyjVCATuNmP/oCzp9WefVWry5MzYr95vXMHZydww7ZyPsvPHue23+DSPLToVPDkb56JeJA08tLHxndqfMCtI7Z7+zwJ/vTruCd85+d+G7s3eKvU8dyOuZXQtPHQxaCTYOPsUNBqZN/lMHrjIe0ceZ8zluj/nr9pq2d05/1++S3ZG22EPyptQctaZKBz0IzImCxtGnDlzljX539k5b0WriPXQpqZLspM8v11mWd+21H8qgC1flOgvv1f5ws4O5XMzY8WB2OR2uuuqqwuEhW/YdD61ja+gK0DSiwAl2Mk8GkRgtdm7a8cDs1J4dWZaNFjt5rZuuetI6AX035BhUHv0uPfmV51966Zkpt6n/Tj1z/it/5DIfeuall1565iG7+UdfOf+S+eSbcpdJi1quNv2dfOK82Guts3nbCO8NS5raU8+89NLzX5kMGzRbDz1z/gnONqW4SVc21s1yc6WGbHOhAbvlvLIb7KQ16nbZqjE3zI4w32rbWWfqW1u1qUjJ/+Rs+dhHq5WZy8V8KR8I2QVVRe5q0/GodWQOVQGeT3gZkpe7BkEOtDlS7DTBaP7ilJFjp8RnlKB86IvEH3994eWX/8Ofi5w2yT+ff/nlHxz9Y1PiU1//wcsvz3+BC4tdXzClvv4p3iUTohhly3ZURbnLFv7z//Dyywtft+ZlmzodKxbrZrm5WAvOSsGr1aIdVfGPjxqRhLgxN1avti3IYqtNOzQo2lxBQGHduTjIv2XmTH53x4PskalV0vFBdgJt96xAkZpYrR0c40eInTt2HZq9d+cm0mIU2anwKQnKB32Y+JOnXrx8+eyhMFNs3f3UX18OPn/97//E7Lb5Z/6CSx46c/lyvusvTPKpu3mXSJhaapdxIF5Rm1hz6Ozlyy8+Zc2LNk3S9kK6qYvFuqn8FObKDa1ZY2qdCfUyfScpVMU/+fd/HRaOubFmjS0mvbdp6oLwyvZZ6EwaqF4oYWrfLDNXlr+GFBODLnrUruO1e44Ga1KAY01KDI4caHlk2GlgeWj/ZjdiI8rOIj7Vsa42H/nelSs//ubdKpc2d3/z5StXrnzvEbfzkWevXHn5KVvW7nr2UbdnbZtdXGbtWlPr5W/uFjlr7/7mj12bj5rm/V5tYm2Jq6aFK1ee9V5GemTL+I5YB8rN3f3Uy7JB6e5aU8vbsrtM30kK5WGhnZgba9cWigmDWgShM5VSvRBVB5IsM1eWv3atVSw+rO06PhDv0WjNCrjJEn8HosCosNNe6Qzeeu1egk335dYnziDus41619WJ8vjzr7322vOPx8qaXf/x6T2861Gz/VefNtt7nv6PQS2xa+2nn375tddeftqW47qUkMVsjmxHmZO7bNlHX4g2q9uMFbMuveBRb9prY86azntKjvP/Ba9kO8r0p//KiCSsxtwoesK2Ouhsy6leyLqDSJeZK8sv9k4K2KbWIJxHmzUpEJ1tkFm7AqPCTt3x0Y07dU/Eduzc2X3ib954441LJ/a6nXtPXDpvWbr3xKU33jh3mPIfP/eG+Vz6lg0bg11mgjzHu9auXXvYlqVGbO3Hz+ftP35e2rKm/+ZEHoiaWqEb3rppZfe3LgUFcn9tI86Wbf+NN7jNWJk8r605asf13XYwb5PkOue+bFhZpHVh2jrMJY1Z22yQY51RbeYOmj/tdXYF8kER9bpI0oAWnWlb1foTMafElG3ILtj0G35YyzvuWqCBiFh0BfB30AqI+QPJpAo0jZ3mouaU+heLLJclO8tGfs8zr/yEP5dO7nHlZP6F6T0nL/3klWfszs+cfOUnP7kw7cplhy/8xO3K80wOf0TJTLb5k4XD3EQ2bdo4+RmXoU2Y/MML3KQwZ0vmOxYOm/ZdFwJbeQlnoqM5U4A/F4SjJW6Qe850llFPg4pZZjTkj5AlyP8Ja6tFKOqcWd1ck8K607HsLw2Qcq+ssMiXsrA5JaYo7nQgDy8ctodK5467FtwIVvfTtYC/UGBEFWgaO4cvY7I12+F3FR5AgX4VOHLhpz/96aWTe/ttB/WhwIgpAHbqAQM7tSLYhgIlCux95j/99Kc/FXFqSTlkQ4FlpwDYqYcU7NSKYBsKFBXYN7/UarVaS/P7ivuQAwWWvwJgpx5jsFMrgm0oAAWgABQIFQA7Qz2yDOzUimAbCkABKAAFQgXAzlAPsFPrgW0oAAWgABTQCoCdWhHEnVoRbEMBKAAFoECoANgZ6oG4U+uBbSgABaAAFNAKgJ1aEcSdWhFsQwEoAAWgQKgA2BnqgbhT64FtKAAFoAAU0AqAnVqRYcSdRxbMT+UWjmTZkUWbmtFeNWCbnDTukavCpb3zlym/rx/87T2xJFv2UsxYeRaPCItIQgEoAAWGqUAz2Zm/NWXXRCCNfQ1Z8LRbVSAo3evGMNhp2XN5fm+WWX60Fpid+S/QmUx9wclLYmjU46/aFeF8m1mW9dFslvfdfIGgjzVknSQRamGnbcrL62zhLxSAAlCgkgKNY6cF5MM7du6fOjSr0Di4579LyRrAzgjVTBBWCzyoq31AbljsXDpRxzNTwU55rCMNBaBArwo0jJ0T+6forSkTK5SdZaHbimZnZpaLwc5ez3HUgwJQoH4FGsZO7uDKYid3uzQRYacJoZbm94lrjUFgKvJbrZZdEM7c9VS5BGzSbq8xTxcX8xJ+BZU96yXulG0GTmYZrcd6hyIW2XSYoA5GYvSwWL5l3fZmXIrNGTwvzORr5nav26VDVQ1yui5LDWI1OCo+MqHA8lNg1NgpXu2pVnTrGpthrNl29r2EnWbGzudryyeeu015SURloWzNdt/8kmebvwora1dlZ1jetskmQp/DktJmNF2NnXkTGoTcsrsTKhdN+KmrSHaKYln+PYCHgJtGAgpAgeWnwCixM1DfBqb37twUZNaxMVrsFDN1+ZxelKWMnWHJKMyimXm9SLPGK+EkxbUU0oXgKdwrFPpS05YGITdr2clQpwCdOKqrCJ1Nf114aluKfMVhC0hAASiwjBQYWXZm2eY9s/nF0VrHY1mwUyy9RqPPCORyEeUKZLB06USuxk4LHlrPFP/TQqvGaruWnfV+/2oQcnuCiJxHCV3Fl7QOi25RMiq4ahObUAAKjLgCI87OQ/s31z0Ay4SdJItHVxAetbsjSfx2JQqzaGY+CEUka/DI0Voe7AyFlf1DGgpAgeWrwOiy0/4GdM+O2odmWbGT1CkCrAg5U7KrRdRq7Gx3i6wP4MhNG/IOGEVFKfIDSDuTZ0euYoqScRl9VaSgABRYrgqMKjvNgu2hh3fcWP+4LEN2Fqd4i5Dirz7kHUZuQVLDrCI7C097ECMmYenWirU5UVwlLelFlKx2l2wa8sV+KSuIqGvKXba6/8EM+dDOZ+pXUWptBNtQAAqMlAJNY+eOXeJO2ilK0y8+6QIn7x1AxEkD1yx2WsiFl9TcrzJ0CBWZ4l1FV0Uemgao7uMv0eVsMDsuz+81ZRwYIp7wby5FLdek5JPDsNvnb8kh9ph8QxdpTroaT/fGTvWrGNe7dvGxuHjsfhQkWOi7QN0LboxyD4ryMsb7glwoAAVGTIGmsXP48jWLncPXAx70qYD9YuG/nfTZGqpDASjQCAXATj0MYKdWBNt9KEAxtwpG+2gPVaEAFGiEAmCnHgawUyuC7d4UyFe5YwvmvTWIWlAACjRGAbBTDwXYqRXBNhSAAlAACoQKgJ2hHnj3tdYD21AACkABKKAVADu1Iog7tSLYhgJQAApAgVABsDPUA3Gn1gPbUAAKQAEooBUAO7UiiDu1ItiGAlAACkCBUAGwM9QDcafWA9tQAApAASigFQA7tSKIO7Ui2IYCUAAKQIFQAbAz1GM4cSc90848H44ef1r3T+lN++IxcrrLfls+qM8/Oc/v7yVFP3M0D9bp9Sl6MavyOX9ddS3WCPKgABSAAr0p0Ex22nekHJrdNRHrlH3rNT3qdrm8+9pCxT62TT2GxqJU/LjecyimTGle1+zMW7D+1MVO+6hYeryt7k6pw513GKHwoLvOOqEEFIACA1Ggcey8YefD5gUpO/dPxdhpX59S/zs7pbTDWLNV7PSwVG/hyIOtysxoFDv58etS9cppsLOyZKgABaBAfQo0jJ0T+6forSk2uFRxp8XqYMGZDWfN1rMzfCu1yV84Mb+Uw3Lv/OWFIzML1eOtprDTsh/srO/0RUtQAAoMSYGGsZNViLDTLOQOYpGWbVJiGHGncoE3LTtn9s5ftpHozIJZ+Qxe1GWh617tpa6SUszqdvL1TltFrMeaYjqQ1WWcQ9KcD47tXrmr2KBrIPqXLrIKl6KlVCbiTiUINqEAFEipwAix07zac9eEeMGne69nvXo1j53m9dFLJ/YeWWwZOnp2mmjSvybTEsjdNWNJ5oko407Nxa7ZKRshNzw+Y410PSxgZ9dSoSAUgAINUWB02Hnj3feaF1/zmq29n2gA+GwSOw2uDC/3zS9dXli4bFc7HTuL658eYKaMB1sWvNi5R3YW4jzTToDqioFjnydAwZ8+20N1KAAFoEAFBUaMncEVULOu+/COGyv0tpuiTWQn/XaF4OS4aEipcCWx6oPOrBZ2GnPFDztgTNtPYLcbvXssA3b2KByqQQEoUIcCo8xOG4kGNK1DkWay0/fM/EzFxJRDYGdHLuZvrGy1WvXcEOR7XUiBnQVJkAEFoEA6BUaHnVnhXqFlH3c6TAaHg8s08AgRxWu2epdFWtn6KtcSVvS6bpaZa67KnCgfJq05deNSWKKGLbCzBhHRBBSAAr0qMELszPKffuaLtPamoT07eu14ab0GxZ0Ok4GvnGkR5Zdt7appTiy7K4clFRPPFZKwNOlW8bbYCDtp4bdwR27gWr7hVpVj+2J5tN7Ly7+xIsU8sLOoCXKgABRIpkDT2CluozV3Btl/4oYgi888f0C/VxkFdtobiMwxYm+1pQuNwc1BdB8s7Vg4Yh+G5+LOoNbSib0SQja4zJtzf/Q9Ry6/JW5Hkm7I/O4OY7CzO51QCgpAgeYo0DR2Dl+ZBrFz+GI01wOJ/OZ6Cc+gABRYpgqAnXpgwU6tSCO3wc5GDgucggIrRQGwU4802KkVaeS2XF4Wy9GN9BVOQQEosOwUADv1kIKdWhFsQwEoAAWgQKgA2BnqMZxnwWsfsA0FoAAUgAJNVgDs1KODuFMrgm0oAAWgABQIFQA7Qz2Sx52JUX20/KOFwDYUgAJQAAqUKAB2amESwyyxuaNHj66+dnXx39GjR7UQ2IYCUAAKQIESBcBOLUximCU2B3bq8cY2FIACUKC6AmCn1iwxzBKbAzv1eGMbCkABKFBdAbBTa5YYZonNBez80gV6wN6FL63Gmq0+DrANBaAAFChXoJnstO+1PjQbvF8sf/e1e8ht/rTbkX9/59DY+dmTS63WhS/l1z7BzvJzBHugABSAAlqBxrEzf1nKzv1Tip3ac3qtyv7Nhfw+MxLDLLE5jjt3n1xqvXJyt7tvCOzs87BBdSgABVaUAg1j58T+KXprink3Zxh36mExb1wZxKtUEsMssTmwUx9H2IYCUAAKVFegYezkDnRipw1P6w86sxXw+076gQriTj7WkIACUAAKVFVgRNk5qBdfg51VDyCUhwJQAAqsQAVGk50mKq3/LiEa/sSLqInNuTXb3SdfaS2d3M0PScD1zhV48qPLUAAK9KzAKLLT3oW7Z0fPfW5fMTHMEps7evTMyVdardbSyc8GTxcCO9sfFdgLBaAAFJAKjCA7Bxl0rpg1WxN3tr5/GHGnPBmQhgJQAAp0qcDIsdMGnXQvbpddrFgscSCY2Jxbs12Ne4UqHhcoDgWgABTwCowaOzvdf+t71msqMcwSmwM7ez0uUA8KQAEo4BVoGjvtDbT5M4PcI4R8lDnwoHPFrNki7vTnAFJQAApAgaoKNI2dVf2vv3ziQDCxOcSd9R8xaBEKQIGVpwDYqcc8McwSm2N2rrYPgsfzbPXwYxsKQAEo0IUCYKcWKTHMEpvz7LzWLtvaF6ngPSr6IMA2FIACUKCtAmCnlicxzBKbk+zkH6isvhbvINOHAbahABSAAm0UADu1OIlhltgc2KnHG9tQAApAgeoKgJ1as8QwS2zuaPlHC4FtKAAFoAAUKFEA7NTCJIZZYnMPPfSQ7jC2oQAUgAJQoKICYKcWLDHMEpsDO/V4YxsKQAEoUF0BsFNrlhhmic2BnXq8sQ0FoAAUqK4A2Kk1SwyzxObATj3e2IYCUAAKVFcA7NSaJYZZYnNDYOe++aVWq3V5fm+2d/6yef3Z/D6teartIwvm96wLR7LsyKJNzfRree8J07mlE3sz381+20T9SgqYoTRHV/RT/4hHzSBzBSrQTHba59Yemt01oUfkhp0PT/HTbv1zbnWxfrYTwyyxuSGwM7Pz1+KRLCcWs5PmNd40+xdarYW+eVY++hbedp4l5tVga8bg2LZju6MmcbvXPn+i1bIKlPtWxx5jTurp2pRukDfKT1dwFP+2ZecARnwUNYLPA1Cgcey0dHx4x879UwV22l37N+cqDOq58IlhlthcA9hpwj77MbBZurxkgjaRUwPPXHOFv2omjWGmUKdDhmKnAKTFM5uIkbVD09V3t2Mne1K92WbXqMLOZStCs4doeXrXMHZO7J+iaDLyrjEDy3t3buJxCFHK2f0mEsMssbnhstPiJGTnifkFu4hqhy1d3JmVYabq4ePZacHM7LRLuMH3AF+yqo2uy5d1qiy/64abXLBLdtY24k3WAr4lVKBh7OSel7Bzas8OLrJ5z2wOWs6qI5EYZonNDYOdZaNi484Te48s8jqtYqeN1fIVTy5jELV04oi9dGouNNLqa7AiainV00opWWS6l3neOT/8lkDl8/7ma9di1bRQ2GI474AKleQuf53P8KP4YRPt2JlrnstoGpHdD8zxCoEpfHn+iL3Wa6410rVeWTHPsT6xGyZTdUct1Afm5DcPsriX1v9tq+xMwE5nV9btPFooAQWqKzBC7MwyC1TiJV34LF4Qra6ArpEYZonNNZCd5i6bfHrN53E7JHvnL/tJ3M7sNO3m0+vCTGbn06WlxSMypLAluaItzLGgHuridm3stDBjN8iQdyaY7jPbEQ8ej1hTLcSeqqg7EBb2e8vyTQnqMmPYO2kZL1BnGsm/wViR7RVci8MlM1LC7dCc99mCTVPNA9V6woNlzTEgc4vOASmLaj/4FuUlQAoK1KzASLHT9J1fjs0XPmtWJDHMEptrIjvN/bc0R5vZU8+tNLx+2rWTu2WtnU9tRT9ZF1owuxTDaj5gos35Cd3v9lhSeyXvTZoDNVPX1HII8S34VmXK6yBzCcBBWOoadOxkYtH9XIED3JSno1fejottjfdKh23dkI40vkYBMuoGSIpAJqVK3iLt88eDvWX68vxe0w4LxT4jAQUGpcBIsdPGnXTJ0yzYHgouf9alUGKYJTbXSHbawMvMpCH57Gwop3w77Xp++NmWmWGnVFmFlvfS/yrGzPua2d5zSQWDR7P4mQPeViz0gNnGmkTxxjqok6Es3xRj5qk6drOgJ0HXO+wZxu2YRPHDY8egzbs8s0DfFUzHuZvki3E7l8VbLLjpFVPVCyWRAQVqVGCE2GkizsK9Qg/vuLFGNUxTiWGW2Fwz2Wln8HzdL487LSR8eOTnaE8gP58yG3yxmo+Kqs1533xNposLldwuWVhh1RUJ/3qkhSE16xAWlyucak87dpIVDyTvv3fYC857OVEwRUHt4hGzSr94hK5zm6bs94C+2Im4MyI2sgarwOiw88a771W/WjFhKNhZ7fhoKjsNThZmzLRL7PSzM/XPz9Ft2dk+iqomVX+lvcOuHQE2BUjZWZl2NUv+tjUR1BGmg3yzUY46XcuX9E56H3ivH6CCrXyBYe+JJTPKMwstS1AKN32brppUqbjXlfJfRGyZkjV/Lo0EFKhJgdFhZ0YPTODLnPh9Zy+HQGPZaWORBWZnECrZCdrdqOKnZj+film+vwnUAIDXCXvRV9QxU7+/rdS27GI473m+YCuN2pLRJVnRuEmKXud7rFA+WOfyxZK8qw07PRfdZVF3QdH778swO/PLqxE3yOfLS0v5SuyRhdbSEl/NpVF2EtneeRB6i97zPCURazX3tQplCxlk1K0MF3YjAwqUKtA0dvKtQOZyZv7PPz+I8FnML+1eDzsSL6ImNtdcduZP7PMTH82D9srZ0vw+MzXzNTMdqYRsIHz6S248HXc+Giy36ptJRRfUbSz2GwC5mN8nLFdfyQ3uAd/sWpYvOmakcB8GcKiPKN027vRcNw0uzBifiYieZFF25lx3buRPZLRmQ0AWUCc7yL02Fb3F0HvTgeCZfLmwcXIX6lLYjZuMIsIgq5MCTWNnJ38Hvz8xzBKbaxI7Bz+WTbBgaBFgoAlOwQdWgL5p5VfZORcJKNBJAbBTK5QYZonNgZ16vAe+7ReZ7Q9OZHw5cNsw0EkBG+lygN6pNPZDAVYA7GQp8kRimCU2B3bq8U6x7Zciu15LTOHWCreRr6hXWNJf4YKh+4ECYGcgB36jouXANhSAAlAAChQUADu1JIkDwcTmEHfq8cY2FIACUKC6AmCn1iwxzBKbAzv1eGMbCkABKFBdAbBTa5YYZonNgZ16vLENBaAAFKiuANipNUsMs8TmwE493tiGAlAAClRXAOzUmiWGWWJzYKceb2xDASgABaorAHZqzRLDLLE5sFOPN7ahABSAAtUVADu1ZolhltjcENhJj2EzPz+n56UN8SE79DtL83SCwtPg9GHQ5TY9lcb8atN3s8uqAylG/uiXefVqqmm967UfqAcF6legmezMn1u7a0J3+IadD/Nzbot7demethPDLLG5IbDTPm2cZnNLLMdO+eRV8ejTuub92OBbeNuHyNT2JDbbC/tEN/2Emvyn965rdT0VwTRb/hycetkpHsiuexeTF3lQYAUp0Dh2Wjo+vGPn/in1xrEsM++75ufC2/dgDwKfiWGW2FwD2Fl8KJ2Zl5M8UFSx01G8n/NdsVM8pMZAjjdtsVrw2Z6d/XQlUre8d5HCyIICK0mBhrFzYn9OxyIazfs7g7d1Biitb8wSwyyxueGy00ZFjWBn5AVevR1Cni7yubWmrYCdtF7NKO3Nlq01JHbq3vXRA1SFAstBgYaxkyUtsrPwpmsbofLrPLlmv4nEMEtsbhjs7DgixbjTrhCGpPHMyN9MYmdzWhENS9JKY75WqnZ18MXarekdZG3Y6fti/Qm+UhgYLxyhhW7bBxetkm9uCdj9dXvpLV15Lmea5qlBy3jRsoy5hZJ45UuHIwS7oUCuwAizMzM0BTurHcojws7i+xoFX+muHPceZrpJh2kRcKhytDcodtJlSF6X7sRO/9JsW1FyTr2usjj6pgushtlN1DSXSOld00vz+2QQGZY3hQNzRQPIgQJQ4H+cWKPDzsy+FnvPDjds9JZssNPp0d3fUWFnOyJadko8CBQJxJIgFHV1J069pYxX/hOsVAuHjc2A94petrMM3cKrnosuhyx07PR3M5lA3LPTmA7uPDK7pLZFA8iBAlBgtNiZZYTPQ7P2Vtv9mxF3Vj+ER4addL0wn9bDCb2AE88eF5J6ZpnUcAIpA0haMbaRnwRScnaSAoxVz84Q8E62agvd1Y9C1IACo6/ACMWdWmxzvZNvu9U7e99OfAEysbkRYqe/nccQUcRtUXYSZQu7ej8O+q7p2Zn/nNR3oVnsDOLOvruNBqDAylBgdNlp1mzxG5WqR+kosdMuLS6d2Lv3xJIM2mg5Vy9j5qESh1ZVham/vGSnWoJuDjt9yF6/AGgRCixnBUaTneb3KrNT/tpnnSOUOBBMbG6k2Mn3joaLrmFwaWd/X8Bu9vxrUYNeezNqDUdUwE66xOiiZ0ksctgb7XS9U/W34Gjh24NvkHf5NduMbujtNfQ0fVS3JhUcQgYUWJYKNI2ddAcQXdF0/7uFWfODzvxiZ/BDz3oHJjHMEpvrk51vbRvHPygABQatQL1zGlobhAJNY+cg+litzcQwS2yuZ3YOerJA+1AACigFqs1cKJ1WAbBT650YZonN9cZOdUpjEwpAgTQK6OkJ241RAOzUQ5EYZonN9cDONHMErEABKBBVQM9Q2G6GAmCnHofEMEtsrk92arGwDQWgwAAUkBAdQPNosgYFwE4tYmKYJTZXlZ04h/XxgW0okEQBnHpJZO7dCNiptUsMs8TmwE493tiGAo1UAOxs5LB4p8BOrwWltm3b9r6En8TmHnrooUqdkydwpYoovIwVmJ78IP4pBWofbpx6tUtab4NgJ9jZ7ojCCdxOnZW6T2EDm9OTH6z9WMCpV7uk9TYIdsbZqXMHto0124FJi4YHpcDhO27CP6VA7VpLdtbeOBrsXwGwU2tIi6g6d2DbYOfApEXDg1JAYQObh++4qXatwc7aJa23QbBT6wl2SkVqOIHt42ftSyLtY1TTvhFM1UTJnwAAIABJREFUPXXddM2+ESx8aaXscV1p+czYutps284AdKZn7ZoH8fvGjQ/NhOXJ56+4l6i1Wj/+d304+bkf+5au/PjxroJsOzb+ecj0pF/5xoK2gxfZWcOpF2kVWbUp0Dx20lmanwT+tU15j2nis3uDd2vUJkgGdkot6ziB7YRi33NiJxT/3HZ6EHk/84t0NZoeLDuDY9UclKIvydlJT3WP6xzVpotMe7rZTtlBdI+MP3yHpIs9G/tilYFTQL5Wq3XlOycrrQw//YNWq1vOdYvVsjZj+VZNO+hWJfraIY6HLtQOi9Rx6oUtYqtWBZrGTnOKugPOH4h5l/0bITL1UqcaNQE7pZh1nMCKnfL7kBxuaba2dISdtbWdH4TucM0jWveVbujslDr32mfFTvdO7Jydnpf/7lIPtAvRaNgpeHnux6bFLmO+w3fcZMp7f7qKFDsTNMZIUyuWbyX2U1an1910HpE6Tr3OVlCiZwWaxs6wIxKW9mu1m5hMMXt01jFBhDbBTqlHHSewZ2dhyJYXO+kd13lwNkx2FnSWQ1ol7dkZdKfAzjhOOsNJ4FOxMzchaNq2NRsHN4md/s3tVfSWZes49WR7SNesQPPZ6cJQsz4ml/vsyeyD1Np0ATullAM+gduz00I3X72XQ2++OM1fzndE3h9pZ3y/26005lc6aYcLofLOmioLR2jZ0xaQ39Lyl1z6Fo3N+X2FuDP4Pmc8pBd35/XYDTIZOKm+AsqOt1qhq3Qhjdr0Ia8cs7I0WQxbKyvbPj/Czse/83qrdelpG/CZsOwH5+S6bkA1ud7rI8sCO2kV1xew0Z4bg6DBmyL+MJWNM/z5wbkgXzQu/S8rQ9EtN8YJC/j2ivWwd8CnXg8eoUqgQKPZGax75LMbeU9zrvk/nOOCvvW2AXZK3QZ8AtM4SoMubS8l8uDaI8F9izLhnUCpRQJTJDhmgkDQtUzcVQjJSZY3GzZiSebKB7usk2w6C8w5uucVg0bMFQfXYP49wJPVVvR72W33jYF3FazLopH0QNkplzEdrl5//nMmWAywZFZ38/xw8bPIToIl8djsNTymxVgfZdp8hhgnHBQf/87rnrK2Fgey0mHtpFvyVWXKmYr7bCPH23LPajA77dTAX7rtnGW/npt8muPAzsqHZ8OeyVfKzsJ1yjZEkYeBTBtxCu0UCEQSGq4IHkssyXQWxprhLnuIMuC1wzFP8uHzx7Z1ufQboXEyiFBNm4zSvLEUf3ScZ+noLzdaduYxqOGN52UBkIZnhNLCLloHpljWtCAapF2M0rZxJwMvvx3J1VJcDAAPdqY4ikbdRmPZaSbBYKagiSOYPkpn3n5GBXGnVG9IcacBDwed5I8BDAdnFlocZfhlW5MvEFgLO8X9q/oqu3ZDgq0DOw32go+vSww2O0Mu+nxZkTWRwzbgdM5O4UYBbC7yE+jK7+gRtfKkDQ1L2GnbITbritKEj0TVZVF7z5GsCXYO+OBYMc03k50EzmASVL8wMwMUfuuva8jATqlkE9lJxPJcEbHmQNhpKeinX3FYtjsC27HTgtO3E8adTn7zNdF+HB3jxVzxlH913BkCMnobKiHNkIxXTcNaRXaaHFqnjQaFQfU4O9XNur7BcLm4sLCMuDPl0TSqthrITpqq/MzipBVTpM0a0FQCdjrBzd8hsbO41ipQZKAiDw9xYGiY2VqOPa5foimXpe+KlO0ESx1cwSZksXBPfhXTA172SDvQ7kiWnZVpbS7pds/sDOgVwM/eGRRg1f7uJb9a6Vd9VVjpNqPs1JmBdazZJj1klqGxxrFTfSWXktspxk2adtpSy3qycM9psFNKNyx20j2xPL7FoXd36NASBS/wSljadKvlV3rzjml0mWyFJQlFtUuqI4vJfJPWVsyB7Sgu07Zr4eUJ0VSIVeqRX90VBbtImo7odeAuqkWK9MxOuvYZDT0N2Dw7LTj9zUH5kxOCleEAvRqTxTDXgrPlbziSsaxbE9btK76yRVve3/Fk8yMyFbPsARNciiqWcTkDPvWcGfztVYGGsZNO73ytyv1xM4672pTnu9mz166X1AM7pTADPoFz8rmRdr/9IA/yiYZ2BsBwvDG7FmYMUZiy8vckCzP2R8Du+JG1nEX3VUwBMoSi/T7nati/ubmwmNStPTulkwaoxrrrYNDrIlMJn96ZCmdBI9iZ3zrkO+AegODYlu9RZIo8eMjfQNvmXiFisG3zyndOGha6653Bk4x+cM7e0OTYKWqxo4G5/D6mfKdFfjj6ZVvqq15ZMZM/4FOvnWns60aBhrGzG5cHXAbslALjBA4jP6ONzXHQlWKtmLRbKXXXBTkgW8GJLgefvsB1840Hp16Xkg6rGNiplQc7pSI4gW3Q6YJCK00xRyq2EtJgZ1GB7sbdxp1uIaR9FZx67fUZ+l6wUw8B2CkVwQmcr77y2l3kAqoUbEWki+RATseBz1f+xe1j7avg1Guvz9D3gp16CMBOpQjOYSUINkHKogL1HhU46erVcxCtgZ1aVWLn+1J9Ept76KGHqvZMnsZIQwEokFiBqicsyqdRAOwEOzsfaYknC5iDAlCAFOh8cqLEkBQAOyPs1FmD3N62bdsgm9dtV32eLdfHXAYFoEBiBfjsQ6KBCoCdelASwyyxuZ7ZSTIlnjtgDgqsTAX0rITt5ikAduoxSQyzxOb6ZKcWC9tQAApAgRWpANiphz0xzBKbAzv1eGMbCkABKFBdAbBTa5YYZonNDYGd9JA583twep5cl0/kkY/rCx5NoAesh2356Mfufqjeg5F2VaQD+gd/g+x4qU9ktMuhKW3F7aDWzKjRjxq7eYyOq1v+Vz6tcCijVu4a9qxABZrHzhvvvvfQ7FT+b//mwpjcsPNhs3fPjsKeejISwyyxuSGwU7z/0s6kfoLOfy3Ojx2ITYjFR+J1HmZDJm9Fl2/3EFpdtv/ttr+It18mNDtzm710vNRdA7O2AOuJnaU6237Z0ez+EXSlvvMOM3Dlw8rF+kts2TDWXwOovVIUaBo7d+w6NLtrgtTftOOB2akH7r6Bx8Ji9d6dd+8CO1mTiokGsNMHkYYrnpcUlfq91LNeEFI6p5smTYPeaEX5Khc/stBamj8hHvUetNAcdgZudbtRqrNiZ03AGzw7v/T71/y3reOHb7ymWwVQbgUr0DR2hkMxsX/q0MM7bqTMHbvytOEr4s5QqW63hstOBcKQnfGXmasqXfWzdE43tbXRrlrstZDxZOGIjbxjYd/yZ6d+uVuvQpp6g2fn9O9f8/9uHf/HreOXP7K+H09RdyUo0Hx2chjKwwF2shSVE8NgZ6mTBYyZlUPxNjFTsYSdFKTmq71cxTRY/IRRZsEou0frllRfhkrGljFhQCj3Uv6R+csmc+nEXutq8IJMY8suyXKCjdlED+wMOs48jrZv/Mn73mbNVvZaB/36Wb5OSWOu+HF7wz5Gt8ho0Vy0sMscPDv/8v3r/tvW8be2jf93+//e6xCAOvHxt6BAo9lpL21y3Mm+g50sReVEo9lpJkd9WS7KziOLgm0WaUwRo0g07vTkC2b9vKI1zQwmCro2GVf5XG/IYTiR57u3hC4tLR4JTQtiGetFVFRlp0UOXx+1PSKfnUvB8SCAKjwJiviNEp3lorovnKeiOhdKxTIays5/+/5r/uvWDfyL0l/etuHMLQhAYwOIvCxrMDvppqHIPUFgZ+9HboPZaefTQuwSndPD/puKjD2zq+2cXoqZwLSkmk2Lvc4ln29zLM6laZN2vIx9LSi+H1v2y1nxecUc7ovZRR764My452TpjZ1SBO+GT8nO+tyBpXzXBmXioRuu+SfBzre2jf/z1vF/mBjHDUSDUnyU220sOy0gD0Xus80ysLP3I65x7BRBoJvog94VgWF2WxSJqgwJW7ftnM68EWYkZvJsTyOKLzna89U8WryTwnRoyBf2DZS2bIr4Nl0F06Byg/HsErYWqWEsutC5N3bStxArs/jq4Nzp8B3FF6srNXh2Hty47jd2tZZDT0r84224gaiuUVw+7TSTnQTO4mot6Q529n78NY6d0UlZ9K+IkBycniL9x52DYKfxqvBxYWjewShQ3b4TZgH7iJCiHTsdV8xq9sz8klFV8lKmRYsiGdGZ9/pvKoE/7eN7rl1bwvWxtgYLDX1u47pf32audxb//ePW8VdwA1FBsZWc0UB22p+m+Ntri6MDdhY16TZnObBTxHa22/2zs3jzraSaTEudfb4HD/vGCa5hCeQCQcr1LXApTvg2XVYxR4S29scw+44sGGrunb9sCep/DdkfO8mBov/FPjpXB/J38Oz87PWl7PQ3EL1v3UB6h0ZHTYHGsXPznlnxu5SonGBnVJauMpcDO4NJ3FCBbnP1/bcFoivApb9RMRjwC7+WUnw7UhnhfL6nmsOJydEhtXXVh8tmXdbcoxvk+E74NjnP9suXtz47GJumli4vUa+t9aUlH7bWwU7XNXaHFgDKdPbFIikatTCKjRQLswbPzn3Xr/vVRCTolGHor3ADUTgsK3arYew0P+jkhwq5hHs8gsWqy8yLla3r9j6giR/0k9jcyLCTOBEuevI0bbmS71uYsdg4sTcYcsuVvETIMBGrBTXCa6hyWi8jnM/3nMsB43dJG8a05Zn033XRobptxzN6SFNex1WxNmzjLoca8R3Pv2E4W+Z7wvw+W62dOVXLVZFdKtdZliqkG8rOu9839qvYmu0/bd3wq9vGf7N1/L/b5dx/uW38/7ltfDOeQFQY1xWV0TB2NkD7xDBLbK5R7GzAaMOF0VHAYD7G7/p68Mn3rfvlhP+NCoeb//vm8d3XjT24cd0Xb7rm2zdf8+MPr//55g0vf3hDfZbR0ugpAHbqMUsMs8TmwE493tgeFQUGz87J96775W05O38TBqAPbMRlzlE5UBL5CXZqoRPDLLE5sFOPN7ZHRQG5vOyXo+v0/uPXjv3SIfP/3LLhuU3rOfT8P7ZswBptnVqPfltgpx7DxDBLbA7s1OONbSjgFPhX4/n1zl/dNn73+8a2bBj7F/GohH/7fjyizymFv41+rtCQhicxzBKbAzuHdFjB7Ago8FHHzisfya9lzt3sQ89/mBh/3zq8oWwExjGNi4g7tc6JYZbYHNipxxvbUMApMLFh7Ndbx3992/i/Gs8Zecv6sf8qnjQ08/sIPZ1YK/4v2KkPgcQwS2wuMTsT906PJbahQBUFPrx+7J+3bvjhrcHz379+0zV81fNXt43feA1CzyqaLt+yYKce28TTfWJzYKceb2xDAafATddk/7R1/INhbPn+dZn80eeTN4W7XV38XWkKgJ16xBPDLLE5sFOPN7ahQCcFZm70oec/bx2/ZT1Cz06SrYD9YKce5MQwS2wO7NTjjW0o0EmB960b+wfxrL65m4NF3U61sX95KgB26nFNDLPE5pY/O+lXgOb3f/bBeNWeREPPihvsw2vsAecfSmefpccvC9NHI7YbosDD71/HVz3/ZesGvNGzIeMyRDeax0565XX+uFr1/k56xUr+SNtdEwPRLTHMEptb/uykJ77aB6zLR7yadPEH9eZxrPLRtT2yk/hnnxYb4W7+9NrAuuW6zaG97pHuAzmk0Wj/CmwYy36+2T+u73ubEHr2L+pot9A0dpp3pDgoWlK6B8FnWWaeBb9nB+l9w86HO71upceBSQyzxOZWHjtzNBpEBfSyh8fMQiSz2oFjcVvyLhTbEvFYkVuxM0Lcal6g9OAV2L/Rh55vbRu/3f2OZfCWYaGJCjSNnaFG5rUqZW9KMZS9d+emsEINW4lhltjcimKnDekEO4MQ0xwqcaBWOIji70uRDVC8e0ST27Mz9RukpXNIV1Fg3Vj2+h/40POHH0LoWUW+ZVe2+ezkMFRpP6i3eCaGWWJzK4Cd6jhxm3p51uQLdrro0Cy8ylXczL6bbGl+n6UdvcSLo8yOTye3F18XZqQh5w/+jqACe68LQs/J9+IB8SM4ijW53Gh2tluYtZdFEXdWPQzATnoFJl1fNOxkEFopZaiaa+seQZ5fkrRvrBTphSPiHZb8hlFqjF9tLSBddcRQvkEKjGXZ337YP6Xvbz+MX6s0aHQSu9JgdtJNQ+4CZ6gL3TSk7iQKi/S6lTgQTGxuZbPTXlYkFvLNRN2xU9zLYyJUYqQFbcvT17bs8WmYml/IBDt7PR0bV2/yvUHouec6hJ6NG6M0DjWWnXZJ9lCcjuamIX9LUc1CJYZZYnMrl50GbIZke08sLZyYX7ILs0cWcwryMVQWd5azM1jgFXfzesSGi8NsColRVeCHH/Kh5+t/sAHPhx/VgezP72ayk8AZv0uIwDmI1VpSMjHMEptb8ezcO385v3i5MJPVzk5GLyfooELc2d801aza28fH+Leeb20b/xxei92s8UnkTQPZSeuxcXDaK6ADub2W9U4Ms8TmVi477e8+TcTJv6pcnJ+/3Ffc6W4j4mPHwNj+6EXcWES3F/H/xd/J+NpIjYwC3xOvxf75ZrwWe2QGrkZHG8dOG1bGwZmZn6wMFpxZliWGWWJzK5ydS5eX8uuR6g4gd0qpeNFk25LRNduMHl3EOJS3EbkG6S/izlCPkd9Sr8X+wg246jnyY1q1Aw1jp6XjVP5Qofz5QVP54xFoIddl5mVKKFtVBlE+McwSm1vB7MxjQUfBcNOhlOPDlrshqC07zaVMczNt/il9xAHYKc6wZZKUr8X+vyfG8XOVZTKuXXejYezs2u/BFUwMs8TmVjA7B3fIoOWVqIB6Lfb0jQg9V9ZhAHbq8U4Ms8TmwE493tiGAr0qIF+L/ebEhl6bQb2RVADs1MOWGGaJzYGderyxDQV6VeD967Jf3jZO99z+F7CzVxlHtB7YqQcuMcwSmwM79XhjGwr0ocDu69b9l4kNb05s2I2HJPQh4yhWBTv1qCWGWWJzYKceb2xDASgABaorAHZqzRLDLLE5sFOPN7ahABSAAtUVADu1ZolhlthcYnZqcbENBaAAFFgWCoCdehgTwyyxObBTjze2oQAUgALVFQA7tWaJYZbYHNipxxvbUAAKQIHqCoCdWrPEMEtsDuzU441tKAAFoEB1BcBOrVlimCU2NxR2mieku497JJ6WHdtQAApAgRFSoHnspFde54+rDd7fSS9RcU+7rf9JtjRsiWGW2NxQ2OnOB/NKS7DTqYG/UAAKjLACTWOneeD7rgkS1L6MLH8QvJbYcnQg+EwMs8TmwE59JGEbClgF7rl+3Vvbxu+5fgU9lvae69dd+siG68ZKj4AXNq3/8k3XlO5e2Tuaxs5wNMxrVcoAaSg7iDdgJ4ZZYnNgZ3iEYasRClw3ll36yAaex9VmGhdf2LT+77dsuGV9OUn686NNp2rB9pdvukb5Ly3ec/26X982/vFrg94d/8A1v75tnGVX/btl/djfb9nQ8fvEC5vWF1tQYhZ9I1vSQ2W9Fk1Um/VuNp+dHIaqjssIVe3qazMxzBKbAzv7OjhQeTAKqDlUbSqbNKvyfE2F6aGyXf7Pdbll4sQLm9YzMDo29cKm9Vy9m0SbTvXMiRfEK7iVw8RRBtsjNxqyvrVtXPH149eOtcFnG5+5y2yCc7IsAztXyc/GjRulOgnSbRZmzSuyS5Zz+3QsMcwSmwM7+zw8UH0QCqg5Wm1mWfblm65hNhTjp/5d6p5eEhXkJztGiTL3ip1it8usl4G8yH6SSHGRGCYL33P9ur/bMr7rfUH0ec/16974gw3/2/hYGxKrPsqFXBYkqoaqSJtcvQdNWLShJxocd9JNQ3t2SI3E7UJla7myeC/pxDBLbA7s7OWYQJ0BK6Dm0OIsLAGQZRlBhafg/r1jAHRsSpYkP2UA+uWbzCqoWhqlNlUfsyyjmC9KF+ovR8PsVbER3hVdF5XecsluEi9sWl/WEVU9agJxpww7V6WNO82S7NSh4D7bYMwsWXG9M9Ckiw2wswuRUCSdAjKgZIr86Q3mHhbFS+kTUacudhYRJW2ptERFGTsfudEQlLsTTUjiqriTTRQdk+yMShe1Vcxso22WZeSP9JDsRm+kYm+lUL2xk/pb9JZzog5IuynTzYw7CZwdIksbg5bDtVcVEweCic2Bnb0eF6g3QAUkErIsU5tFwwo2xQKVcghCjIook5jTEhXkJ1ekhdOycK1Np9SNPGyiPTtlH8u+TESDUVmxmI76WaRpVKXjH7jm0kfMVdU2/4h/0eosMvFbKkkdBDuL4yVz7E9TSm+v9SUNOwdwyTMxzBKbAzv9AYRUYxQoztdt1gypcPHaXm+9odbe2jbOCFTrrgQwntYZbMx4rtgzO5VFNtE9O1ULLEUZO7nXb20bl4iKdoHciIaqhDTeVRxH9oTDWcm/NuXV9wmwUyoZT5ubgLoAZ2Z+vlJ2C2685S5zE8MssTmws8vDAMVSKlCcQ2m+LgtfeLrv/vaWYlPEPIqoamcn9ahLTijyVWVnUT0eO0UgbrmsAKnBXxRYHBacK1KCCoCdwdXN4kaK652WiO7JQbN5Ig8uKR51mW0uharhrbiZGGaJzYGdFQ8HFE+hQJvZv2fz1Gb78JTK0Eojh4+KZB3jTkVlwowKyDhIZczIfimLTLj2cWf7rxf0bUCGa1ReCSLhyqRUPeKfeH782rGfbg5+AkvfXd74A3Nx+uPXjpGexeoyp8vvE9Ixvq9K1pUCDiXdzOudQ5EiN5oYZonNgZ3DPLZgu0QBZidhrM2TbkoaiGR3w05a0ty6YezSRzb0zE6uqBY8CUU83XMfi71Td9Z0yU7qc5GvUgvJTrrEyP5QMYmoomJUhcJQ2sscpbudf7p5w99t8Vc329/kpQTp+H1CYl52RHZwiGmwU4ufGGaJzYGderyxPWwFZPzEq4XtF2OjS4hfvukaiTFFguvGsh/damIj2d0v33TNPdevo5JcV0WB5J50jGNHVVGxk/aqwrwp3eiHnext0Rn5Yx7lDFuX7ORMStAQsCy0yTpQZy99ZMNLt+Z3RL+waT2lo33seL2T6Cgj1LK09EH5nHIT7NRqJ4ZZYnNDYSfeo6IPMmw7BQgbFPnJOVfhxBU3f6PTPc28MlIhWnBOsQC3qajDNKICPbNT0aKMXsX87uNO6hThTfWCnOfMaNBZJibVUteA5aakMnvLcWQZ8yhfBr7FvkvN39o23hBM8qEiE2CnVMOkE8MssbmhsFNLjG0oECpQnEMrsZOqMyap7WImUVASWpbkAKv9zyeKqOCKKu4klvzo1g1/eoN5vnyxj2Sd+MeQoGLUJjks21eNtLlCyYurHMEXOx5lJ7fJLpEg0g3qKQleFIQNUdcYlt2v2dLXo+Mf0E/oDY+aIW+BnXoAEsMssTmwU483thuggEICPUyuTfii1myjQRW1qYBK07fCgMRVkX9KniIqZGsqZpV1i32kvYoo0pmO7Cy2L52R7SvFuKIM4smc+tUKoZdxyBVpubv42D8uEAWz3Cu/T7x0q/lVKDnPvSYpGOGq7tA3wU49BIlhltgc2KnHG9sNUKDIle7jTmJPcYalNhU7CY1qMVDiKj07VU+lM0wRHqKiUGpXGTuL+lBFyc6d7x372w/7l46RLf4GU8QntSC/TLAzlCj7dSntZVRziMwNMuk/fq15l4u6Sq2sDGsT7NTKJ4ZZYnNHyz9aCGxDgVQKFJGgiCIdkdM9rQpGp3Vqs8hODmp5LZFKFqkjjXJaokLRhTDD8z5XoUTUilqw5VBMRWDcFDXSpr+MOgIS84mrKDdYzHuuXyf5St9I+EsGbXIj7I+MO9mW9CGafmHT+rJnXxSXENoDWHqSOA12asETwyyxuaNHj66+dnXx39GjR7UQ2IYCqRQoIqF7dqpfHLLL1GaUnbesN79TPP6B/K3OCifcQjRRZKeEbps122IQSeBRHlIxwlgZjYhhxF0FJ+kMVf/7LRvo+boUvcn2eVmVfmeijKovAWX4lIJIxcjQ320ZLxsgWZjSBE6JcMovA22xhZQ5YKdWOzHMEpsDO/V4Y7sBChTpxXe4KDbQpprWoz2guTsaKqnyReuqAG9Sm5JPvCuaIBhwFxQmo6vNlEkxcdEcuRrtlOoFbZJQcpe6f4d1vuf6dWSOvC0CjEDLVyW5v1F2yvWAbtZdyUO1eMsmeKW9e+Vl3QGlwU4tbGKYJTYHdurxxvZQFSBUqPtTogEZu8nLjJzDCRWKdYNYtUzKTXFCtRnlFheulJDUkZRlQvTMTqoou8/IlOpdN5Y9eqN5ejs9roGud7L1aF8k2qmA7AU/AEhRkNCovjpw++33cjHqQlkjXCxZAuzUUieGWWJzhp1futCynwtf8ou3WLPVxwG2ocBIKSCDy3uuX1dkDH8JiMaUPfeV2Vl2Ry63zHFtezxz+YYnmsdOeuW1eXln6fs78zdgD+AlKsv+950+7jQEXTr52RyfYGfDT1S4BwWgQKMUaBo7zZs7d02QRPbh7xFA0ts9ZwfxArIVxM5rd598pbV0cjfdNwR2Nuq0hDNQAAo0XIGmsTOUy7xWRb8B27yk7IG7Nw/m5Z1gZzgA2IICUAAKQIGIAs1nJ4eh1nu7ortrIhvQi6/BzsgxgiwoAAWgABQIFWg0O+11TRl32lXcPTuyDOwMh7HrLX+9E2u2XYuGglAACkABpUCD2Uk3DVlS5k6LJVzEnWogu9wU7Fy9++RSq3XhsH1UAq53dikgikEBKAAFsixrLDvphqD9m/0omZx7d26iDLDTC1MlJdlp7hL6rOFn65WTZ/BcoSoyoiwUgAIrXIFmspPAKVdr7SLtIY9SsLO3A1ey8/D3DTV3I+7sTUrUggJQYAUr0EB22oua+vZayqQffYb/R37E0td4Jn5YQWJzgp34jUpfxwkqQwEosJIVaBw7zU9QNDgjA4S4MyJKF1ndsHPvCbOO21o80kV7KAIFoAAUWIkKNIyd5m6gMKw8FH8GAtjZ29HaDTuzmQX7zL6l+X29GUEtKAAFoMAyV6Bh7GyA2okXUROb64r/Wx9dAAAB4ElEQVSd2d75y61WawGBZwOOR7gABaBAExUAO/WoJIZZYnOenfYOW34cfPAbFRt3Lp3Yq6XBNhSAAlAAClgFwE59ICSGWWJzhp3uPSr8MNvV16527DxCy7ULM1oWbEMBKAAFoAArAHayFHkiMcwSm/Nxp/1pCj0IXrBTq4FtKAAFoAAUKCoAdmpNEsMssTmwU483tqEAFIAC1RUAO7VmiWGW2NzR8o8WAttQAApAAShQogDYqYVJDLPE5nRvsQ0FoAAUgALVFQA7tWaJYZbYnO4ttqEAFIACUKC6AmCn1iwxzBKb073FNhSAAlAAClRXAOzUmiWGWWJzurfYhgJQAApAgeoKgJ1as8QwS2wu6G3+7L0Wfs0ZyIINKAAFoEAnBZrHTnrldf5UW//SsSyj15AFT7vdNdGpf9X3J4ZZYnNej33zSy1Q0+uBFBSAAlCgewWaxk7z5k5HRPveMfGKscE9/13qlRhmic1xT83LUi7P47F7LAgSUAAKQIHuFWgaO0PPzWtV/Buwwc5Qnb62wM6+5ENlKAAFVrYCzWcnh6F2zVaEoQMauMSBYGJzLBrYyVIgAQWgABSoqkCj2WkCTRV3ird7uqXdql3uUD4xzBKb486DnSwFElAACkCBqgr8/8rtOBlTO/JfAAAAAElFTkSuQmCC;" vertex="1" parent="1">
          <mxGeometry x="-687" y="8315" width="617" height="330" as="geometry" />
        </mxCell>
        <mxCell id="32m44d9N0e-9UPWyHcc5-155" value="&lt;font style=&quot;&quot;&gt;&lt;span style=&quot;font-size: 18px;&quot;&gt;当你的module加载时会发生什么？（&lt;/span&gt;&lt;b style=&quot;&quot;&gt;&lt;font style=&quot;font-size: 24px; color: light-dark(rgb(0, 0, 0), rgb(255, 0, 0));&quot;&gt;This is Start！！！！！！&lt;/font&gt;&lt;/b&gt;&lt;span style=&quot;font-size: 18px;&quot;&gt;）&lt;/span&gt;&lt;/font&gt;&lt;div&gt;&lt;font style=&quot;font-size: 18px;&quot;&gt;&lt;br&gt;&lt;/font&gt;&lt;/div&gt;&lt;div&gt;&lt;font style=&quot;font-size: 18px;&quot;&gt;1. 引擎注册该module中定义的所有UObject类，这使得反射系统能够感知这些类并为每个类构造一个CDO或类默认对象&lt;/font&gt;&lt;/div&gt;&lt;div&gt;&lt;font style=&quot;font-size: 18px;&quot;&gt;（CDO是class在默认状态下的记录， 它作为进一步继承的原型，eg:自定义Actor类型，自定义GameMode，任何使用UCLASS声明的），&lt;/font&gt;&lt;/div&gt;&lt;div&gt;&lt;font style=&quot;font-size: 18px;&quot;&gt;engine loop会分配该类default instance，运行构造函数，将父类CDO作为模版传入；（构造函数不应包含任何游戏相关代码，只建立类通用细节）&lt;/font&gt;&lt;/div&gt;&lt;div&gt;&lt;font style=&quot;font-size: 18px;&quot;&gt;2.引擎调用模块StartupModule函数，与ShutdownModule匹配。有机会处理需要与模块生命周期相关的任何初始化&lt;/font&gt;&lt;/div&gt;" style="text;html=1;align=center;verticalAlign=middle;resizable=0;points=[];autosize=1;strokeColor=none;fillColor=none;" vertex="1" parent="1">
          <mxGeometry x="-700" y="8170" width="1180" height="150" as="geometry" />
        </mxCell>
        <mxCell id="32m44d9N0e-9UPWyHcc5-156" value="" style="shape=image;verticalLabelPosition=bottom;labelBackgroundColor=default;verticalAlign=top;aspect=fixed;imageAspect=0;image=data:image/png,iVBORw0KGgoAAAANSUhEUgAAAYYAAABKCAIAAAAwv2TJAAAW40lEQVR4Ae1dz4sdRw7Of9LXgRBwjuPcJuDAEh+y2MklLJPBEOxTrh7CshCITZx7cIgPxuuLk5th8VwWco69zMmHMH/MIqmkklTqev369Zu8N5YJefXqh0r6SvpaVT2v+70h/yUCiUAisDMIvLczmqQiiUAikAgMSUnpBIlAIrBDCCQl7dBipCqJQCKQlJQ+kAgkAjuEQFLSDi1GqpIIJAJJSekDiUAisEMILEBJ73/96b0fDt+3Rr3/9afHXx/YOv722dG902v8ZRc+r916fHtUW63gZ0f3Ht8u/+2WCVrLKeWDGz+wIY9v3/psypCt9AHneXx7IX/QRn164/pWFP6rhYKv3nt8edb1ArlgASot6EKbU5JV6Prh8eOjw2FgS67dqvBxuVASONAUSw5Pa/BYOsDlUWxI/j2JXIxngZx1RqHrr0FJqKdwGRamGA46Ap6TUDIGrfoCkCrcVnXfYvuilMR6wpXj8oKWZ20+56mxYsXJl7ZvXS+QjaVhRmJ6rPllY0oC3IGD5B852a3To1unmFPo0MUs4xibjh+vGRWAkVsJtzzlIrkOuZDW26akgs2cxVvhoIL6WgWwdyonriV4RzrP44LFlZ+nxlZWfI5tvUCu8iDo1o+4Or4tbUhJowp1rsNoqmGxVq2gpqUkqDm6ITvE64fHp9cOT2cA9I5R0s44fbDKi1TN44JFptZC5qmxY6vTCWSwFWxcP5Y1Sk15M0pqaQK3bPce35YsyTAoGHC7Zkk6gWo08xXtXFBzdHj98Bj3IIencOUHBKtYSqNo3+cyLOypNlOsp9+URUvi+7CqWF9k+ukGQsZvlwqn0xUJt6VlgVWN3rfq5R+brshEd4lsH3d6M6lXVSPmrBvThIGJPvVcDD72Iy9HV0F3p0XkGUsM1JU1Y2ki6MP99dRFJmIiTkICS9PR4WCng+Ej1hWHVK0sE3xGuVYpKzy17bKDNpV1uKx4NTliAaWGSYGh/vjrAyVcBGpogjINiQOZu9tw49rNPjeipCBciSYWPUsqBhYPUOaWuQ5u/PDpjevXbiFbV4ygtWZMBd9yjovrV10EFps9G5vYt4YB47D2pNl9H6zVQujq4aMCdAhF1fNddDs1+/hZUmc6VA98ujgfL5PU24ARlT47YhCGgSKzakJjxZsPbpzKDY2OJmqxRot2eLnw0qYeDh+PYXEV4EwrZeOJX/0mFCoj8BmQwjJkHQkEEKLpEIcKi5aMDgZXX3KqVhPdWZvfw3n16SF6siwEybVug5qwzrzoZSltT62VK5fgCg+FuSsi4MHnxtmfm1ASmDemEB9vR4rNu+MG9ls/A+hhbWCu06NjBF0oieNQFHBurUXpqFDdcGgjhy+bNVyhX0M3IIfdoujQ9AlE+elGVr0RpadDE4RoSLcajaudntTVmmAYaMSKRRMNr72DkgYfm2tsS/yoRamtJEs1iXDo47RtfJWdh3JJdONguh7OfmlCQ5waomItaJyh1outPamEa2Eoqa1RMj0+qslLDr93ArkBJxSwduV8SmqBWHvytQaMUxJd0okcGXFYiTFGaKDUzjRlCX2fkkzVZJvTkBW0NZ+SwMzR6QL1DNKjTo8DtVjmNUbViKEvXU2C/k2VBh8bK6FIk7KothZJgW5NH4rzBjHki9o5mK5nnYdRhrOJVTLXlM9RnKHdi3Vj8eKnLzCUyFtPU0c8CjqUFMDlZ5j4vbF34rhV3WZTEpjqYn7VXJu19yipSma6CdTjpjaj0eBOWULfZ2R/V7WikiigGrwo7zEjDuq7KYlmV2Lq+UssEzVRvq6n0GWWUj47Ta7nyFcNPnapkSxNCqXaqhQIAtKmJ7HJq6frWedlirZsaKMqNvRwhg5eLEvjT/AitUzF9wIEKJNS0KGEnkU8xaRPsM4ka5NGTeg0l5IAOLvqEybbqEszYxThlW4a6Ova+EVFJ2B6rd1I20ZOkNqU/cuqFYoUXjXdiIN6EwyyXqZpHHV6H1Ha8M50nSY/b/zdz4tXeHItaVIW+TiHJl47nsD3KUdjvht1r52D6XrW+aWR4R01Ak00zjDSi2Vp/Nmq1NYomQo6lKCaWOKsT5DjeHCWnHbQTErankKtiqUGlsqQIKwE7yxkVK0EV6vOisvGw3HVi4NiWffUawbl4O+n/DLj7OCRrT6iWHTsErCbnr2KDda+M12onlIkdnozqjHcTeePt/uGq7nbYieSpUnpVhkERKGezbXa9qEp0QGio8/aOZqOjvkbNwOZHkYZzjZqN+M6l8M2OLc3FupIKqEh1mTyYXES9Hw+5FXQ4fjGwbz8Sd9hRo6mSQPW6DSPkgB9tnmNyeZ1LcumzzgQ/co+Sq5ZMFqqMtCuIi4bHi4cHeJdXnUJBevo3KHcPWWPJLe2RxJ6YepA7CNNrh6EM3oTPGbUCidWpvMyFTxYRIGsgGrUE51ea+BFsQUZmYuGj2mihDfFYFkpzexzRF249mrh1MAOEqjlmL+sLCwQNfWnA7WdWLbdwwjdlBehwVpb9iLisuJFAc6F7NjN2G/16ij/ZFy1kqwhtHlnWISSGt9gLZb4nENJJuyXUCJlJAJTEagMMnVE9lsagYh8l5tjBiUB7/qrwXIKpaREoIdAUlIPnUtpgyXg3G0LE86gpC1okSITgYkIJCVNBGpvuyUl7e3SpeKJwFVEICnpKq5q2pQI7C0CSUl7u3SpeCJwFRF47yD/JQKJQCKwMwgkJe3MUqQiiUAicHCQG7ermPumTYnA3iKQlLS3S5eKJwJXEYEtUdJ3H//y9vNf/jj8K98SQTq8/Rw0efnhJS3eFMOhz827x5ek0f5Pc/LsycXFowerDfnk+ZsXFxf035Pnd1YPCHp88PR/3/zx7w9Uy0cv/7zz9CtVsY/Fg7t/QCB8+11HeexzaZEyqsguUdLfX26DxS4X6KUp6eEjjrEXF2/un5h1xAg8s3Wmw/pf7tw/v3jx6uH6A6MRSCVa2skr4Isp5GLETaYkHgWgzaOk7/7zzdv//c1dLY7/feftvrNSUhI7x1qfV4GSphg8NUvCUFShdef+uSGg/aCkC9G50OvOUhJSzxdhHhFS1ZS13qc+l3vxHkVmS1nS6Hy9hqQkg85KxlnZwYib9GXRLOnB2YvzZ/dfcVr04OzJ84f3z/nrJH2w0+VkSV/97Y8/v3n5/ZhaH738023oxnrubf3eUtL1pzd/efvx3zXwuFsp21TauYQnOMeHP+IZClAPdSiHTR9+S1/t/398im/LhVF6DwydSxPqUKXFZ0brAd3SItpbj370dFqNoWM46OlsrAI1kKaMjOM3a9gDiaNu6Mrpid4i4ViuP3/2iQiG8AaZtIeCYxdqxbCXgxgplIzmwZnZNhqOgNzn0YNG4DAMSEmfPDhDxe7cP39z/wQ0r3mfmVSSKdLV28i5lduUhRzq+ojxJU1D69x0A6RIzZZNRg4DdvgzzqF0t1oueyVydTnEWRE+MBE4vA0QFDoaPjQEPKo6Zz3G1WoEXof68HQugsY0IRu//Pm/r1+//v3nf1STFynNyJJQUR2NbRgPQ0QEYmE5QovIpULJ5uEoWVGKbZn9+tObtalRDEVEmrDs4FPTKzTr4VgWDckcfxyo+7N4pxhMETgH966fHEIjhzujWRLkI3K4i0JEgrBAqXHRG0Y4kos+yWooCYJcCSxloqTh4aOLs5OTZ0+A+xQlAc3VjAkpUvg30HlTSjI6Dw10cKr99j8fVezbEqRRk8+58QokvoFOVZzWOcOAPCJOZX3DRBb5W2UNFT6dJrHDSqZqpDBJL6zr2v5GExq8Q5TkQMTrv3AEI2DNo1q/GL5PYDZfNCrvxNPRBF4g1oaVrGbwafujzmV2u0jwXME2YTQUVqR7uxo5gRZSVdOZeihTGpu4kkGmABIkUcLIVITlOMh9ZTmrsiTmI+gvWkEB5z15dfHoFbGkUFI7USVHkVCmN2xSu2FrK2cYgARVLob9AAThZaiBPkxzwzDAvmx810aKTN+7tY6hfUCX7SUWfM+EErgfX7064dNpItWHAbN4FkWV2rehRnt+VxORuZXCjCzJmQcBJkQrOmrzuNJDwPX8aZeKa/0odXGALng5kkS3XkN4uAFaKnsF7U9Q5iuYLpfxoJtd5mC6ZnXXoqQyE4al2T2p4G+swUDVOztLSSoU3dAwwldnSYrjamehpAGUpwxI5DtGADWENaSgbWedHd2IQG2I6zMMmJ3JblQKVe0VB0kkfDolgSdLikSDdZhoB9D1rTOjY5crog8EZXGnSXrpSVuVoEbHbBNWWhORuZXCPEpC7YnOA/S9eaz4KuDWpyQEjinDYsqTGqClsl8AsegHhk3+UkoChSHS9KXeZxPFKOKjelbSZkkc3i0KYYRXlikDemkLdYbZKyWpeZhu/gpKMlmS0gmKU7OkVZkUiQ2CwlBP9SvbExzPZElay074dJpEwvqUNKqJyNxKYSYl4Z4FuODDb32aQGpqxmXFVwG3NiV5gdGkcygJt/cvP8SDRpUANouq8yk2stXB1+Aol1vx6O7nREryOcIlU5IwEbOPsYkrW+6rahuF6Zi8brJqN5TbyhnfuEmqaDSiL8ueJbWO4XybL28ufLyrGEW9t6vGTpP0ary32crhBb4kd11NROZWCnMpCcP15t2nH8u+xqoXmbQKuJFY1ZcORK1eSXQTzrjExg0MwWva3ac3bfqNs0tShuY0V5LAcG0Xlj+fdLx98kqOe0ElzIlMDdzSqrEq+JsohfCW22qwO1rxl9DYv2ZYRagehWU1r+UIpRKzjygGBalEc+ppjplXCSEb1XTaOizbzBEnsyrR/KT2eKLU+aMkErCyA3UrnfGumezdwJ30XWO+R9aGD/ZsnAqFdsKn0yRatZRE+8SiZIms6vAdTUgmHW+//vVfMsUyhdmURIfcDuhy4qvuKcIWlDOCCcDBxYQPhurCIDpYf/PuMcR81ASVOg3m4K8CqyarsSOCY81rfya+Zmvdn67aVZKvVnKdQ0occuVUqGGKwlN8s1/ijVmDboRJ2gJyNbnIPKZgJpUtHjEInsKcnZizYYh/OZ3Rp13CPlo8VEq2gtRTxkol9q7TQT1MIZqQCTSq/PEBG468ppW5eKHvCWhYQGeLJx4n2Z+SaMWnHyTxKA5yHQLcNoyED7RXb0fXtZdAdZ9HyepFllaDY0G4EgdyZPHmQASPaVI6/PO31/Dvt3/KgEUKG1DSIvOnkH1HIEpJ9tOmTh70Tvz19tqr9o+ff09KWhu1HLBtBK4OJQ0Dnig1fw+JVDX5L5K2jffuyMcsaSf+VHJ3MElNdgCBq0RJA7GS3b5diScBLOsoX/4E6dHr178uvGdDLXPjtuxipbREIBHYCIF80G0+WzQRSAR2CIGkpB1ajFQlEUgEcuO2UZKZgxOBRGBZBJKSlsUzpSUCicBGCCQlbQRfDk4EEoFlEUhKWhbPlJYIJAIbIbAlSqI/RZe/hd9IxbmD9Z/Dy1/QzxU2ddwUw6HPpB+UdCbd/l8Drf7pSUe9S2vSP3nrTqp/TWJ/vNIdZhrhbybNkyfhTyunPRvAyNmxL/Rrp/ojrUg9/L2U+gl61Gehul2iJIBmeRYLfge7EHaRmKUpCaiHf0Gmf3O7CSVNG7tdSqJf0qlfmdHv3fjXahG0Yd1kSuLR5kd2XDnp8/svgveUQOW+s9K7QUmT1th3ugqU5G2Kvk/NkpAU6mPG4DlkEsPTaCWaPXzoYtDxMiip/pi2/GJ2Zylp/BlvnV/GBajua9X+Z0mzkE9KMrDhr+GFg0zTVFpxg8rXaXS2XUp6+Ojizf3n9KYAfMLR+bOT52/0A+pi3X3t5WRJ/acp9Vu9xvv5facpKVAOdyvqAdXNMxBoGeBJCHCGQokiPBKhbNOi5yfIQ5H8gxegs973VmnBw5Lc4ztXu0NLi2hvPfrR02k1zDMlgqMrZ2MVOKoTUpLerOmeQCvmvSA1v/BRWrcq+mEg8X6Q9lOyVaxZTHmmZRklWkF/lccVDWFG0Ke01ieN1OeBICWd4JsC8BErT57fgW71lAcMjHasMIUSiH2K7eOGK+QqGqrSPglXrOMeK18EEO7peHT0GXuRd3V+jnN1J+1F6mRnNLKK/4Oj0pGCfVKKViN47AnqIw8Lss+zHtGkGEs/gvv9py8j41fUzThLQkV1NLZhHD9zViwsEEfk0p4l4SiFlxn1zr6hpERsoQOzxVsZmWNZEsoUatNZkpFfGAEfYOTnQm8rTFTjvMjU8omS4Ilujx7Q+5TUg3FHpwPxuMWT5FEroMvcs3JcCYSIkiwgQNyGlSZszaY8J7coQI85FT+noCgRgeee0uQecm8DwWQGvciSJ3wVCgui1Uoueuo8w735wvY3mpTBl0xJ+YYSdq5oMYLTdO8EU8+ScBqMQMoXJA7bZ7nqaNRlENEEoY1ANgZTDzWFoqRGQp0CmohxIJJpOMgPCavKAeEY9vCWt7NHSBySJdVuRbc6XfMIOtVEz/wXSg0MD9FQVKim06kfPCyp/z4leqrJij5FerP6xotsq/YcKNd0qSRQ5VKNHKGyBO2EnubMdKSTpRis0xKgQo/qaVKM3ORjRpbkyBtAVDlkUcabBNWB5UZ1vQC1wY8yWdI7+4YSRytrRaYbW6Cu5EIVlZJAuA7RsnVqeaQwUcmASpYUcoRQEm/ueDt2dqJqxAmErfC5t4o3DQ1pEGBoQ21xJXSrm0QuV7WnHBVN6UPWQGzrPKjEhWzktXtDmfcHGFD8wFXZTBUa8jEiwE07uAiG66lBmqKkriZ65pnleZSUbyghuGEtxZmoquViqFFXsOiNWtMWD6iED4Adreho1GUQ3ESmG1smn0dJzBF4N5BebGvphhW2mtQ+yvSSZ/UYkKeTUdpYXbbTSfcAjRYf1RuLE7Mk+5QlL4S/r6IkedFGeQA8v1a69SuWuOJi3x1IMmZQksnXlCYLFGdSkgDnXrEgGkVABJZLfyisnSV5gdGkV/QNJY5WdDTqMsC6BiXpkxc8C6cnXjcS1BRALvgyW0gr8Li67uBUN1zoKqf2UR7AlbVbaVRyoI8+6NE0rbq56dQkjXA6GtOZl+qNxWXPkuzWzCYgNF29C6SvZHF0kK4+ELQFYVDoDuH2RSdr0Blm581QTxMreNa3uZSUbyihfah2GlyAwAMw6S3JFJbVKxI6i9Z9Q0mHkgwHQQTqN5TAfBi6mn1ICYh2vsWGZfdV9m546iS8ANu0J+dl4MmriyfncuNsnCOYfYz5Uomzj09nUkWwjjdZmm4iw2E23YdnR15rAeHmYfyPkkqXte64QbTXvRuyifUicKEfnx7615FhT3ucxBouT0kNB8Gekc9nOpoUjcpjJ2e9KWA2JY28YoFDjv8OQN907AFXTEEyLmPrOsGFhSrzDSUFqB4l6Rv2zc11Go9B6O/ol1tpTGHQJ3wvCB9jkyjkHbm7T1xWOGIGJTHTQfLFxzoinCasTdAZKIYpqWc4KVZlgvBqHb22s7ayGgVtPCoyPyUpDfgx/SCJR+F1iw+G+LSIG+UlJe3miLiABzqOCOSAyOAayTMZNUqI1XOu2gqR6I6MxzRh0f/6dfaTcDegJJ49PxOBK4/AeKI0YVt35dEJDKS3vM15OHdSUgBnViUCDQJIPc3P2a7Cb9waUxeowCzp0v5UcgGFU0QisIcIACuZ7Rts2fb/SQDLrgS93O31/LfgZpa07IKktEQgEdgIgaSkjeDLwYlAIrAsAklJy+KZ0hKBRGAjBJKSNoIvBycCicCyCCQlLYtnSksEEoGNEEhK2gi+HJwIJALLIpCUtCyeKS0RSAQ2QiApaSP4cnAikAgsi8D/ARZ6Mcemz1xuAAAAAElFTkSuQmCC;" vertex="1" parent="1">
          <mxGeometry x="10" y="8315" width="390" height="74" as="geometry" />
        </mxCell>
        <mxCell id="32m44d9N0e-9UPWyHcc5-157" value="" style="shape=flexArrow;endArrow=classic;html=1;rounded=0;fillColor=none;" edge="1" parent="1">
          <mxGeometry width="50" height="50" relative="1" as="geometry">
            <mxPoint x="-730" y="8170" as="sourcePoint" />
            <mxPoint x="-730" y="10570" as="targetPoint" />
          </mxGeometry>
        </mxCell>
        <mxCell id="32m44d9N0e-9UPWyHcc5-158" value="" style="group" connectable="0" vertex="1" parent="1">
          <mxGeometry x="-150" y="8870" width="200" height="90" as="geometry" />
        </mxCell>
        <mxCell id="32m44d9N0e-9UPWyHcc5-110" value="&lt;font color=&quot;#ff8000&quot;&gt;屏幕本身；本质是渲染、音频和&lt;/font&gt;&lt;div&gt;&lt;font color=&quot;#ff8000&quot;&gt;输入系统的高级接口；&lt;/font&gt;&lt;/div&gt;&lt;div&gt;&lt;font color=&quot;#ff8000&quot;&gt;用户和引擎之间的接口&lt;/font&gt;&lt;/div&gt;" style="shape=note;whiteSpace=wrap;html=1;backgroundOutline=1;fontColor=#000000;darkOpacity=0.05;fillColor=#FFF9B2;strokeColor=none;fillStyle=solid;direction=west;gradientDirection=north;gradientColor=#FFF2A1;shadow=1;size=20;pointerEvents=1;" vertex="1" parent="32m44d9N0e-9UPWyHcc5-158">
          <mxGeometry x="13.969964576161253" y="38.25" width="184.60310332784513" height="51.75" as="geometry" />
        </mxCell>
        <mxCell id="32m44d9N0e-9UPWyHcc5-111" value="&lt;span style=&quot;font-family: Inter, -apple-system, BlinkMacSystemFont, &amp;quot;Segoe UI&amp;quot;, Roboto, &amp;quot;Helvetica Neue&amp;quot;, Arial, sans-serif, &amp;quot;Apple Color Emoji&amp;quot;, &amp;quot;Segoe UI Emoji&amp;quot;, &amp;quot;Segoe UI Symbol&amp;quot;; font-weight: 400; text-align: start;&quot;&gt;&lt;font style=&quot;font-size: 18px;&quot;&gt;UGameViewportClient&lt;/font&gt;&lt;/span&gt;" style="swimlane;fontStyle=1;align=center;verticalAlign=top;childLayout=stackLayout;horizontal=1;startSize=26;horizontalStack=0;resizeParent=1;resizeParentMax=0;resizeLast=0;collapsible=1;marginBottom=0;whiteSpace=wrap;html=1;" vertex="1" parent="32m44d9N0e-9UPWyHcc5-158">
          <mxGeometry width="200" height="35" as="geometry" />
        </mxCell>
        <mxCell id="32m44d9N0e-9UPWyHcc5-112" value="" style="line;strokeWidth=1;fillColor=none;align=left;verticalAlign=middle;spacingTop=-1;spacingLeft=3;spacingRight=3;rotatable=0;labelPosition=right;points=[];portConstraint=eastwest;strokeColor=inherit;" vertex="1" parent="32m44d9N0e-9UPWyHcc5-111">
          <mxGeometry y="26" width="200" height="9" as="geometry" />
        </mxCell>
        <mxCell id="32m44d9N0e-9UPWyHcc5-159" value="" style="shape=flexArrow;endArrow=classic;startArrow=classic;html=1;rounded=0;entryX=0;entryY=0.5;entryDx=0;entryDy=0;" edge="1" parent="1" source="32m44d9N0e-9UPWyHcc5-217" target="32m44d9N0e-9UPWyHcc5-111">
          <mxGeometry width="100" height="100" relative="1" as="geometry">
            <mxPoint x="-150" y="9340" as="sourcePoint" />
            <mxPoint x="30" y="9250" as="targetPoint" />
          </mxGeometry>
        </mxCell>
        <mxCell id="32m44d9N0e-9UPWyHcc5-164" value="&lt;font style=&quot;font-size: 14px; color: rgb(255, 128, 0);&quot;&gt;引擎支持“seamless travel”，可以切换到不同的map；&lt;/font&gt;&lt;div&gt;&lt;span style=&quot;font-size: 14px;&quot;&gt;&lt;font style=&quot;color: rgb(255, 128, 0);&quot;&gt;&lt;font style=&quot;&quot;&gt;但直接浏览到新map或连接到不同服务器或返回主菜单，&lt;/font&gt;&lt;font style=&quot;&quot;&gt;所有的参与者都会销毁&lt;/font&gt;&lt;/font&gt;&lt;/span&gt;&lt;/div&gt;" style="text;html=1;align=center;verticalAlign=middle;whiteSpace=wrap;rounded=0;" vertex="1" parent="1">
          <mxGeometry x="-723" y="9610" width="350" height="50" as="geometry" />
        </mxCell>
        <mxCell id="32m44d9N0e-9UPWyHcc5-166" value="&lt;span style=&quot;text-align: right; font-size: 14px;&quot;&gt;&lt;font style=&quot;color: rgb(255, 128, 0);&quot;&gt;LoadMap之前，&lt;/font&gt;&lt;/span&gt;&lt;div style=&quot;text-align: right;&quot;&gt;&lt;span style=&quot;font-size: 14px;&quot;&gt;&lt;font style=&quot;color: rgb(255, 128, 0);&quot;&gt;这部分与进程生命周期相关&lt;/font&gt;&lt;/span&gt;&lt;/div&gt;" style="text;html=1;align=center;verticalAlign=middle;whiteSpace=wrap;rounded=0;" vertex="1" parent="1">
          <mxGeometry x="-670" y="9460" width="180" height="50" as="geometry" />
        </mxCell>
        <mxCell id="32m44d9N0e-9UPWyHcc5-167" value="&lt;span style=&quot;text-align: right; font-size: 14px;&quot;&gt;&lt;font style=&quot;color: rgb(255, 128, 0);&quot;&gt;LoadMap之后，&lt;/font&gt;&lt;/span&gt;&lt;div style=&quot;text-align: right;&quot;&gt;&lt;span style=&quot;font-size: 14px;&quot;&gt;&lt;font style=&quot;color: rgb(255, 128, 0);&quot;&gt;这部分只会在玩家在该地图上玩游戏时停留&lt;/font&gt;&lt;/span&gt;&lt;/div&gt;" style="text;html=1;align=center;verticalAlign=middle;whiteSpace=wrap;rounded=0;" vertex="1" parent="1">
          <mxGeometry x="-715" y="9570" width="270" height="40" as="geometry" />
        </mxCell>
        <mxCell id="32m44d9N0e-9UPWyHcc5-169" style="rounded=0;orthogonalLoop=1;jettySize=auto;html=1;" edge="1" parent="1" source="pGybzTgQX5mhtwK9b5BW-65" target="pGybzTgQX5mhtwK9b5BW-47">
          <mxGeometry relative="1" as="geometry">
            <mxPoint x="560.0000000000005" y="9670" as="targetPoint" />
          </mxGeometry>
        </mxCell>
        <mxCell id="32m44d9N0e-9UPWyHcc5-172" value="&lt;font style=&quot;font-size: 14px; color: light-dark(rgb(0, 0, 0), rgb(0, 255, 0));&quot;&gt;创建（引擎初始化期间创建，是持久对象，用于跟踪当前加载的World）&lt;/font&gt;" style="edgeLabel;html=1;align=center;verticalAlign=middle;resizable=0;points=[];" connectable="0" vertex="1" parent="32m44d9N0e-9UPWyHcc5-169">
          <mxGeometry x="-0.0636" y="3" relative="1" as="geometry">
            <mxPoint x="-105" y="158" as="offset" />
          </mxGeometry>
        </mxCell>
        <mxCell id="32m44d9N0e-9UPWyHcc5-196" value="" style="group" connectable="0" vertex="1" parent="1">
          <mxGeometry x="-600" y="10090" width="460" height="400" as="geometry" />
        </mxCell>
        <mxCell id="32m44d9N0e-9UPWyHcc5-193" value="" style="rounded=0;whiteSpace=wrap;html=1;fillColor=none;strokeColor=light-dark(#D6B656,#FF0000);" vertex="1" parent="32m44d9N0e-9UPWyHcc5-196">
          <mxGeometry width="460" height="400" as="geometry" />
        </mxCell>
        <mxCell id="32m44d9N0e-9UPWyHcc5-176" value="&lt;span style=&quot;font-family: Inter, -apple-system, BlinkMacSystemFont, &amp;quot;Segoe UI&amp;quot;, Roboto, &amp;quot;Helvetica Neue&amp;quot;, Arial, sans-serif, &amp;quot;Apple Color Emoji&amp;quot;, &amp;quot;Segoe UI Emoji&amp;quot;, &amp;quot;Segoe UI Symbol&amp;quot;; font-weight: 400; text-align: start;&quot;&gt;&lt;font style=&quot;font-size: 18px;&quot;&gt;UWorld&lt;/font&gt;&lt;/span&gt;" style="swimlane;fontStyle=1;align=center;verticalAlign=top;childLayout=stackLayout;horizontal=1;startSize=26;horizontalStack=0;resizeParent=1;resizeParentMax=0;resizeLast=0;collapsible=1;marginBottom=0;whiteSpace=wrap;html=1;" vertex="1" parent="32m44d9N0e-9UPWyHcc5-196">
          <mxGeometry x="47" y="70" width="180" height="34" as="geometry" />
        </mxCell>
        <mxCell id="32m44d9N0e-9UPWyHcc5-177" value="" style="line;strokeWidth=1;fillColor=none;align=left;verticalAlign=middle;spacingTop=-1;spacingLeft=3;spacingRight=3;rotatable=0;labelPosition=right;points=[];portConstraint=eastwest;strokeColor=inherit;" vertex="1" parent="32m44d9N0e-9UPWyHcc5-176">
          <mxGeometry y="26" width="180" height="8" as="geometry" />
        </mxCell>
        <mxCell id="32m44d9N0e-9UPWyHcc5-178" value="&lt;span style=&quot;font-family: Inter, -apple-system, BlinkMacSystemFont, &amp;quot;Segoe UI&amp;quot;, Roboto, &amp;quot;Helvetica Neue&amp;quot;, Arial, sans-serif, &amp;quot;Apple Color Emoji&amp;quot;, &amp;quot;Segoe UI Emoji&amp;quot;, &amp;quot;Segoe UI Symbol&amp;quot;; font-weight: 400; text-align: start;&quot;&gt;&lt;font style=&quot;font-size: 18px;&quot;&gt;ULevel&lt;/font&gt;&lt;/span&gt;" style="swimlane;fontStyle=1;align=center;verticalAlign=top;childLayout=stackLayout;horizontal=1;startSize=26;horizontalStack=0;resizeParent=1;resizeParentMax=0;resizeLast=0;collapsible=1;marginBottom=0;whiteSpace=wrap;html=1;" vertex="1" parent="32m44d9N0e-9UPWyHcc5-196">
          <mxGeometry x="87" y="104" width="180" height="34" as="geometry" />
        </mxCell>
        <mxCell id="32m44d9N0e-9UPWyHcc5-179" value="" style="line;strokeWidth=1;fillColor=none;align=left;verticalAlign=middle;spacingTop=-1;spacingLeft=3;spacingRight=3;rotatable=0;labelPosition=right;points=[];portConstraint=eastwest;strokeColor=inherit;" vertex="1" parent="32m44d9N0e-9UPWyHcc5-178">
          <mxGeometry y="26" width="180" height="8" as="geometry" />
        </mxCell>
        <mxCell id="32m44d9N0e-9UPWyHcc5-180" value="&lt;span style=&quot;font-family: Inter, -apple-system, BlinkMacSystemFont, &amp;quot;Segoe UI&amp;quot;, Roboto, &amp;quot;Helvetica Neue&amp;quot;, Arial, sans-serif, &amp;quot;Apple Color Emoji&amp;quot;, &amp;quot;Segoe UI Emoji&amp;quot;, &amp;quot;Segoe UI Symbol&amp;quot;; font-weight: 400; text-align: start;&quot;&gt;&lt;font style=&quot;font-size: 18px;&quot;&gt;AActor&lt;/font&gt;&lt;/span&gt;" style="swimlane;fontStyle=1;align=center;verticalAlign=top;childLayout=stackLayout;horizontal=1;startSize=26;horizontalStack=0;resizeParent=1;resizeParentMax=0;resizeLast=0;collapsible=1;marginBottom=0;whiteSpace=wrap;html=1;" vertex="1" parent="32m44d9N0e-9UPWyHcc5-196">
          <mxGeometry x="127" y="138" width="180" height="34" as="geometry" />
        </mxCell>
        <mxCell id="32m44d9N0e-9UPWyHcc5-181" value="" style="line;strokeWidth=1;fillColor=none;align=left;verticalAlign=middle;spacingTop=-1;spacingLeft=3;spacingRight=3;rotatable=0;labelPosition=right;points=[];portConstraint=eastwest;strokeColor=inherit;" vertex="1" parent="32m44d9N0e-9UPWyHcc5-180">
          <mxGeometry y="26" width="180" height="8" as="geometry" />
        </mxCell>
        <mxCell id="32m44d9N0e-9UPWyHcc5-182" value="&lt;span style=&quot;font-family: Inter, -apple-system, BlinkMacSystemFont, &amp;quot;Segoe UI&amp;quot;, Roboto, &amp;quot;Helvetica Neue&amp;quot;, Arial, sans-serif, &amp;quot;Apple Color Emoji&amp;quot;, &amp;quot;Segoe UI Emoji&amp;quot;, &amp;quot;Segoe UI Symbol&amp;quot;; font-weight: 400; text-align: start;&quot;&gt;&lt;font style=&quot;font-size: 18px;&quot;&gt;UActorComponent&lt;/font&gt;&lt;/span&gt;" style="swimlane;fontStyle=1;align=center;verticalAlign=top;childLayout=stackLayout;horizontal=1;startSize=26;horizontalStack=0;resizeParent=1;resizeParentMax=0;resizeLast=0;collapsible=1;marginBottom=0;whiteSpace=wrap;html=1;" vertex="1" parent="32m44d9N0e-9UPWyHcc5-196">
          <mxGeometry x="167" y="172" width="180" height="34" as="geometry" />
        </mxCell>
        <mxCell id="32m44d9N0e-9UPWyHcc5-183" value="" style="line;strokeWidth=1;fillColor=none;align=left;verticalAlign=middle;spacingTop=-1;spacingLeft=3;spacingRight=3;rotatable=0;labelPosition=right;points=[];portConstraint=eastwest;strokeColor=inherit;" vertex="1" parent="32m44d9N0e-9UPWyHcc5-182">
          <mxGeometry y="26" width="180" height="8" as="geometry" />
        </mxCell>
        <mxCell id="32m44d9N0e-9UPWyHcc5-184" value="&lt;span style=&quot;font-family: Inter, -apple-system, BlinkMacSystemFont, &amp;quot;Segoe UI&amp;quot;, Roboto, &amp;quot;Helvetica Neue&amp;quot;, Arial, sans-serif, &amp;quot;Apple Color Emoji&amp;quot;, &amp;quot;Segoe UI Emoji&amp;quot;, &amp;quot;Segoe UI Symbol&amp;quot;; font-weight: 400; text-align: start;&quot;&gt;&lt;font style=&quot;font-size: 18px;&quot;&gt;UActorComponent&lt;/font&gt;&lt;/span&gt;" style="swimlane;fontStyle=1;align=center;verticalAlign=top;childLayout=stackLayout;horizontal=1;startSize=26;horizontalStack=0;resizeParent=1;resizeParentMax=0;resizeLast=0;collapsible=1;marginBottom=0;whiteSpace=wrap;html=1;" vertex="1" parent="32m44d9N0e-9UPWyHcc5-196">
          <mxGeometry x="167" y="210" width="180" height="34" as="geometry" />
        </mxCell>
        <mxCell id="32m44d9N0e-9UPWyHcc5-185" value="" style="line;strokeWidth=1;fillColor=none;align=left;verticalAlign=middle;spacingTop=-1;spacingLeft=3;spacingRight=3;rotatable=0;labelPosition=right;points=[];portConstraint=eastwest;strokeColor=inherit;" vertex="1" parent="32m44d9N0e-9UPWyHcc5-184">
          <mxGeometry y="26" width="180" height="8" as="geometry" />
        </mxCell>
        <mxCell id="32m44d9N0e-9UPWyHcc5-186" value="&lt;span style=&quot;font-family: Inter, -apple-system, BlinkMacSystemFont, &amp;quot;Segoe UI&amp;quot;, Roboto, &amp;quot;Helvetica Neue&amp;quot;, Arial, sans-serif, &amp;quot;Apple Color Emoji&amp;quot;, &amp;quot;Segoe UI Emoji&amp;quot;, &amp;quot;Segoe UI Symbol&amp;quot;; font-weight: 400; text-align: start;&quot;&gt;&lt;font style=&quot;font-size: 18px;&quot;&gt;AActor&lt;/font&gt;&lt;/span&gt;" style="swimlane;fontStyle=1;align=center;verticalAlign=top;childLayout=stackLayout;horizontal=1;startSize=26;horizontalStack=0;resizeParent=1;resizeParentMax=0;resizeLast=0;collapsible=1;marginBottom=0;whiteSpace=wrap;html=1;" vertex="1" parent="32m44d9N0e-9UPWyHcc5-196">
          <mxGeometry x="127" y="244" width="180" height="34" as="geometry" />
        </mxCell>
        <mxCell id="32m44d9N0e-9UPWyHcc5-187" value="" style="line;strokeWidth=1;fillColor=none;align=left;verticalAlign=middle;spacingTop=-1;spacingLeft=3;spacingRight=3;rotatable=0;labelPosition=right;points=[];portConstraint=eastwest;strokeColor=inherit;" vertex="1" parent="32m44d9N0e-9UPWyHcc5-186">
          <mxGeometry y="26" width="180" height="8" as="geometry" />
        </mxCell>
        <mxCell id="32m44d9N0e-9UPWyHcc5-188" value="&lt;span style=&quot;font-family: Inter, -apple-system, BlinkMacSystemFont, &amp;quot;Segoe UI&amp;quot;, Roboto, &amp;quot;Helvetica Neue&amp;quot;, Arial, sans-serif, &amp;quot;Apple Color Emoji&amp;quot;, &amp;quot;Segoe UI Emoji&amp;quot;, &amp;quot;Segoe UI Symbol&amp;quot;; font-weight: 400; text-align: start;&quot;&gt;&lt;font style=&quot;font-size: 18px;&quot;&gt;AActor&lt;/font&gt;&lt;/span&gt;" style="swimlane;fontStyle=1;align=center;verticalAlign=top;childLayout=stackLayout;horizontal=1;startSize=26;horizontalStack=0;resizeParent=1;resizeParentMax=0;resizeLast=0;collapsible=1;marginBottom=0;whiteSpace=wrap;html=1;" vertex="1" parent="32m44d9N0e-9UPWyHcc5-196">
          <mxGeometry x="127" y="278" width="180" height="34" as="geometry" />
        </mxCell>
        <mxCell id="32m44d9N0e-9UPWyHcc5-189" value="" style="line;strokeWidth=1;fillColor=none;align=left;verticalAlign=middle;spacingTop=-1;spacingLeft=3;spacingRight=3;rotatable=0;labelPosition=right;points=[];portConstraint=eastwest;strokeColor=inherit;" vertex="1" parent="32m44d9N0e-9UPWyHcc5-188">
          <mxGeometry y="26" width="180" height="8" as="geometry" />
        </mxCell>
        <mxCell id="32m44d9N0e-9UPWyHcc5-190" value="&lt;span style=&quot;font-family: Inter, -apple-system, BlinkMacSystemFont, &amp;quot;Segoe UI&amp;quot;, Roboto, &amp;quot;Helvetica Neue&amp;quot;, Arial, sans-serif, &amp;quot;Apple Color Emoji&amp;quot;, &amp;quot;Segoe UI Emoji&amp;quot;, &amp;quot;Segoe UI Symbol&amp;quot;; font-weight: 400; text-align: start;&quot;&gt;&lt;font style=&quot;font-size: 18px;&quot;&gt;UActorComponent&lt;/font&gt;&lt;/span&gt;" style="swimlane;fontStyle=1;align=center;verticalAlign=top;childLayout=stackLayout;horizontal=1;startSize=26;horizontalStack=0;resizeParent=1;resizeParentMax=0;resizeLast=0;collapsible=1;marginBottom=0;whiteSpace=wrap;html=1;" vertex="1" parent="32m44d9N0e-9UPWyHcc5-196">
          <mxGeometry x="167" y="312" width="180" height="34" as="geometry" />
        </mxCell>
        <mxCell id="32m44d9N0e-9UPWyHcc5-191" value="" style="line;strokeWidth=1;fillColor=none;align=left;verticalAlign=middle;spacingTop=-1;spacingLeft=3;spacingRight=3;rotatable=0;labelPosition=right;points=[];portConstraint=eastwest;strokeColor=inherit;" vertex="1" parent="32m44d9N0e-9UPWyHcc5-190">
          <mxGeometry y="26" width="180" height="8" as="geometry" />
        </mxCell>
        <mxCell id="32m44d9N0e-9UPWyHcc5-194" value="&lt;font style=&quot;font-size: 16px; color: light-dark(rgb(0, 0, 0), rgb(255, 128, 0));&quot;&gt;所有参与者被序列化为.umap的地图包&lt;/font&gt;" style="text;html=1;align=center;verticalAlign=middle;whiteSpace=wrap;rounded=0;" vertex="1" parent="32m44d9N0e-9UPWyHcc5-196">
          <mxGeometry x="183" y="370" width="277" height="30" as="geometry" />
        </mxCell>
        <mxCell id="32m44d9N0e-9UPWyHcc5-195" value="&lt;font style=&quot;color: light-dark(rgb(0, 0, 0), rgb(255, 0, 0));&quot;&gt;&lt;span style=&quot;font-size: 14px;&quot;&gt;A World是一个对象，可以将Level“打开”到其中，包含一个或多个Level（相关联的Level，属于同一个World的Level）&lt;/span&gt;&lt;/font&gt;&lt;div style=&quot;&quot;&gt;&lt;font style=&quot;color: light-dark(rgb(0, 0, 0), rgb(255, 0, 0));&quot;&gt;&lt;span style=&quot;font-size: 14px;&quot;&gt;A Level是一种Assert，包含Actor和Actor Component等其他内容&lt;/span&gt;&lt;/font&gt;&lt;/div&gt;" style="shape=note;whiteSpace=wrap;html=1;backgroundOutline=1;darkOpacity=0.05;fillStyle=solid;direction=west;gradientDirection=north;shadow=1;size=20;pointerEvents=1;fillColor=#f5f5f5;strokeColor=#666666;fontColor=#333333;align=center;" vertex="1" parent="32m44d9N0e-9UPWyHcc5-196">
          <mxGeometry width="457" height="60" as="geometry" />
        </mxCell>
        <mxCell id="32m44d9N0e-9UPWyHcc5-201" value="" style="group" connectable="0" vertex="1" parent="1">
          <mxGeometry x="370" y="10160" width="305" height="110" as="geometry" />
        </mxCell>
        <mxCell id="32m44d9N0e-9UPWyHcc5-144" value="&lt;span style=&quot;font-family: Inter, -apple-system, BlinkMacSystemFont, &amp;quot;Segoe UI&amp;quot;, Roboto, &amp;quot;Helvetica Neue&amp;quot;, Arial, sans-serif, &amp;quot;Apple Color Emoji&amp;quot;, &amp;quot;Segoe UI Emoji&amp;quot;, &amp;quot;Segoe UI Symbol&amp;quot;; font-weight: 400; text-align: start;&quot;&gt;&lt;font style=&quot;font-size: 18px;&quot;&gt;AGameStateBase&lt;/font&gt;&lt;/span&gt;" style="swimlane;fontStyle=1;align=center;verticalAlign=top;childLayout=stackLayout;horizontal=1;startSize=26;horizontalStack=0;resizeParent=1;resizeParentMax=0;resizeLast=0;collapsible=1;marginBottom=0;whiteSpace=wrap;html=1;" vertex="1" parent="32m44d9N0e-9UPWyHcc5-201">
          <mxGeometry x="70" width="180" height="34.8" as="geometry" />
        </mxCell>
        <mxCell id="32m44d9N0e-9UPWyHcc5-145" value="" style="line;strokeWidth=1;fillColor=none;align=left;verticalAlign=middle;spacingTop=-1;spacingLeft=3;spacingRight=3;rotatable=0;labelPosition=right;points=[];portConstraint=eastwest;strokeColor=inherit;" vertex="1" parent="32m44d9N0e-9UPWyHcc5-144">
          <mxGeometry y="26" width="180" height="8.8" as="geometry" />
        </mxCell>
        <mxCell id="32m44d9N0e-9UPWyHcc5-150" value="&lt;div&gt;&lt;font color=&quot;#dc7e2b&quot;&gt;&lt;span style=&quot;font-size: 16px;&quot;&gt;（&lt;/span&gt;&lt;/font&gt;&lt;span style=&quot;font-size: 16px; background-color: transparent;&quot;&gt;&lt;b style=&quot;&quot;&gt;&lt;font style=&quot;color: light-dark(rgb(186, 105, 34), rgb(255, 0, 0));&quot;&gt;服务器中创建，只有服务器有权改它，会复制到所有客户端&lt;/font&gt;&lt;/b&gt;&lt;/span&gt;&lt;span style=&quot;color: light-dark(rgb(220, 126, 43), rgb(186, 105, 34)); background-color: transparent; font-size: 16px;&quot;&gt;）&lt;/span&gt;&lt;/div&gt;&lt;div&gt;&lt;span style=&quot;background-color: transparent; color: light-dark(rgb(220, 126, 43), rgb(186, 105, 34)); font-size: 14px;&quot;&gt;所以它是存储你希望所有玩家都能了解的游戏状态&lt;/span&gt;&lt;/div&gt;" style="shape=note;whiteSpace=wrap;html=1;backgroundOutline=1;darkOpacity=0.05;fillStyle=solid;direction=west;gradientDirection=north;shadow=1;size=20;pointerEvents=1;fillColor=#f5f5f5;strokeColor=#666666;fontColor=#333333;align=center;" vertex="1" parent="32m44d9N0e-9UPWyHcc5-201">
          <mxGeometry y="37.400000000000006" width="305" height="72.60000000000001" as="geometry" />
        </mxCell>
        <mxCell id="32m44d9N0e-9UPWyHcc5-203" value="" style="group" connectable="0" vertex="1" parent="1">
          <mxGeometry x="430" y="9885" width="220" height="90" as="geometry" />
        </mxCell>
        <mxCell id="32m44d9N0e-9UPWyHcc5-138" value="&lt;span style=&quot;font-family: Inter, -apple-system, BlinkMacSystemFont, &amp;quot;Segoe UI&amp;quot;, Roboto, &amp;quot;Helvetica Neue&amp;quot;, Arial, sans-serif, &amp;quot;Apple Color Emoji&amp;quot;, &amp;quot;Segoe UI Emoji&amp;quot;, &amp;quot;Segoe UI Symbol&amp;quot;; font-weight: 400; text-align: start;&quot;&gt;&lt;font style=&quot;font-size: 18px;&quot;&gt;AGameModeBase&lt;/font&gt;&lt;/span&gt;" style="swimlane;fontStyle=1;align=center;verticalAlign=top;childLayout=stackLayout;horizontal=1;startSize=26;horizontalStack=0;resizeParent=1;resizeParentMax=0;resizeLast=0;collapsible=1;marginBottom=0;whiteSpace=wrap;html=1;" vertex="1" parent="32m44d9N0e-9UPWyHcc5-203">
          <mxGeometry x="20" width="180" height="34" as="geometry" />
        </mxCell>
        <mxCell id="32m44d9N0e-9UPWyHcc5-139" value="" style="line;strokeWidth=1;fillColor=none;align=left;verticalAlign=middle;spacingTop=-1;spacingLeft=3;spacingRight=3;rotatable=0;labelPosition=right;points=[];portConstraint=eastwest;strokeColor=inherit;" vertex="1" parent="32m44d9N0e-9UPWyHcc5-138">
          <mxGeometry y="26" width="180" height="8" as="geometry" />
        </mxCell>
        <mxCell id="32m44d9N0e-9UPWyHcc5-148" value="&lt;font color=&quot;#ff8000&quot;&gt;&lt;span style=&quot;font-size: 14px;&quot;&gt;定义游戏规则，游戏过程中发生事情最终权威&lt;/span&gt;&lt;/font&gt;&lt;div&gt;&lt;font&gt;&lt;span style=&quot;color: light-dark(rgb(255, 128, 0), rgb(206, 97, 0)); font-size: 14px;&quot;&gt;（&lt;/span&gt;&lt;b style=&quot;&quot;&gt;&lt;font style=&quot;font-size: 16px; color: light-dark(rgb(255, 128, 0), rgb(204, 0, 0));&quot;&gt;只存在于服务器&lt;/font&gt;&lt;/b&gt;&lt;span style=&quot;color: light-dark(rgb(255, 128, 0), rgb(206, 97, 0)); font-size: 14px;&quot;&gt;）&lt;/span&gt;&lt;/font&gt;&lt;/div&gt;" style="shape=note;whiteSpace=wrap;html=1;backgroundOutline=1;darkOpacity=0.05;fillStyle=solid;direction=west;gradientDirection=north;shadow=1;size=20;pointerEvents=1;fillColor=#f5f5f5;strokeColor=#666666;fontColor=#333333;align=center;" vertex="1" parent="32m44d9N0e-9UPWyHcc5-203">
          <mxGeometry y="35" width="220" height="55" as="geometry" />
        </mxCell>
        <mxCell id="32m44d9N0e-9UPWyHcc5-204" value="" style="group" connectable="0" vertex="1" parent="1">
          <mxGeometry x="50" y="10160" width="275" height="90" as="geometry" />
        </mxCell>
        <mxCell id="32m44d9N0e-9UPWyHcc5-140" value="&lt;span style=&quot;font-family: Inter, -apple-system, BlinkMacSystemFont, &amp;quot;Segoe UI&amp;quot;, Roboto, &amp;quot;Helvetica Neue&amp;quot;, Arial, sans-serif, &amp;quot;Apple Color Emoji&amp;quot;, &amp;quot;Segoe UI Emoji&amp;quot;, &amp;quot;Segoe UI Symbol&amp;quot;; font-size: 18px; font-weight: 400; text-align: start;&quot;&gt;AGameSession&lt;/span&gt;" style="swimlane;fontStyle=1;align=center;verticalAlign=top;childLayout=stackLayout;horizontal=1;startSize=26;horizontalStack=0;resizeParent=1;resizeParentMax=0;resizeLast=0;collapsible=1;marginBottom=0;whiteSpace=wrap;html=1;" vertex="1" parent="32m44d9N0e-9UPWyHcc5-204">
          <mxGeometry x="35" width="180" height="34" as="geometry" />
        </mxCell>
        <mxCell id="32m44d9N0e-9UPWyHcc5-141" value="" style="line;strokeWidth=1;fillColor=none;align=left;verticalAlign=middle;spacingTop=-1;spacingLeft=3;spacingRight=3;rotatable=0;labelPosition=right;points=[];portConstraint=eastwest;strokeColor=inherit;" vertex="1" parent="32m44d9N0e-9UPWyHcc5-140">
          <mxGeometry y="26" width="180" height="8" as="geometry" />
        </mxCell>
        <mxCell id="32m44d9N0e-9UPWyHcc5-149" value="&lt;div&gt;&lt;font color=&quot;#ce6100&quot;&gt;&lt;span style=&quot;font-size: 14px;&quot;&gt;批准登录请求，并提供作为在线服务的接口&lt;/span&gt;&lt;/font&gt;&lt;/div&gt;&lt;div&gt;&lt;font&gt;&lt;span style=&quot;color: light-dark(rgb(206, 97, 0), rgb(220, 126, 43)); font-size: 14px;&quot;&gt;（eg:steam、PSN）&lt;/span&gt;&lt;/font&gt;&lt;/div&gt;&lt;div&gt;&lt;font&gt;&lt;span style=&quot;color: light-dark(rgb(206, 97, 0), rgb(220, 126, 43)); font-size: 14px;&quot;&gt;（&lt;/span&gt;&lt;font style=&quot;font-size: 16px; color: light-dark(rgb(206, 97, 0), rgb(204, 0, 0));&quot;&gt;&lt;b&gt;只存在于服务器&lt;/b&gt;&lt;/font&gt;&lt;span style=&quot;color: light-dark(rgb(206, 97, 0), rgb(220, 126, 43)); font-size: 14px;&quot;&gt;）&lt;/span&gt;&lt;/font&gt;&lt;/div&gt;" style="shape=note;whiteSpace=wrap;html=1;backgroundOutline=1;darkOpacity=0.05;fillStyle=solid;direction=west;gradientDirection=north;shadow=1;size=20;pointerEvents=1;fillColor=#f5f5f5;strokeColor=#666666;fontColor=#333333;align=center;" vertex="1" parent="32m44d9N0e-9UPWyHcc5-204">
          <mxGeometry y="34" width="275" height="56" as="geometry" />
        </mxCell>
        <mxCell id="32m44d9N0e-9UPWyHcc5-209" value="" style="group" connectable="0" vertex="1" parent="1">
          <mxGeometry x="753" y="10160" width="230" height="80" as="geometry" />
        </mxCell>
        <mxCell id="32m44d9N0e-9UPWyHcc5-146" value="&lt;span style=&quot;font-family: Inter, -apple-system, BlinkMacSystemFont, &amp;quot;Segoe UI&amp;quot;, Roboto, &amp;quot;Helvetica Neue&amp;quot;, Arial, sans-serif, &amp;quot;Apple Color Emoji&amp;quot;, &amp;quot;Segoe UI Emoji&amp;quot;, &amp;quot;Segoe UI Symbol&amp;quot;; font-weight: 400; text-align: start;&quot;&gt;&lt;font style=&quot;font-size: 18px;&quot;&gt;AGameNetworkManager&lt;/font&gt;&lt;/span&gt;" style="swimlane;fontStyle=1;align=center;verticalAlign=top;childLayout=stackLayout;horizontal=1;startSize=26;horizontalStack=0;resizeParent=1;resizeParentMax=0;resizeLast=0;collapsible=1;marginBottom=0;whiteSpace=wrap;html=1;" vertex="1" parent="32m44d9N0e-9UPWyHcc5-209">
          <mxGeometry x="5" width="225" height="34" as="geometry" />
        </mxCell>
        <mxCell id="32m44d9N0e-9UPWyHcc5-147" value="" style="line;strokeWidth=1;fillColor=none;align=left;verticalAlign=middle;spacingTop=-1;spacingLeft=3;spacingRight=3;rotatable=0;labelPosition=right;points=[];portConstraint=eastwest;strokeColor=inherit;" vertex="1" parent="32m44d9N0e-9UPWyHcc5-146">
          <mxGeometry y="26" width="225" height="8" as="geometry" />
        </mxCell>
        <mxCell id="32m44d9N0e-9UPWyHcc5-151" value="&lt;font color=&quot;#dc7e2b&quot;&gt;&lt;span style=&quot;font-size: 14px;&quot;&gt;用于配置作弊检测和运动预测等功能&lt;/span&gt;&lt;/font&gt;&lt;div&gt;&lt;font&gt;&lt;span style=&quot;color: light-dark(rgb(220, 126, 43), rgb(186, 105, 34)); font-size: 14px;&quot;&gt;（&lt;/span&gt;&lt;font style=&quot;font-size: 16px; color: light-dark(rgb(220, 126, 43), rgb(204, 0, 0));&quot;&gt;&lt;b style=&quot;&quot;&gt;只存在于服务器&lt;/b&gt;&lt;/font&gt;&lt;span style=&quot;color: light-dark(rgb(220, 126, 43), rgb(186, 105, 34)); font-size: 14px;&quot;&gt;）&lt;/span&gt;&lt;/font&gt;&lt;/div&gt;" style="shape=note;whiteSpace=wrap;html=1;backgroundOutline=1;darkOpacity=0.05;fillStyle=solid;direction=west;gradientDirection=north;shadow=1;size=20;pointerEvents=1;fillColor=#f5f5f5;strokeColor=#666666;fontColor=#333333;align=center;" vertex="1" parent="32m44d9N0e-9UPWyHcc5-209">
          <mxGeometry y="34" width="230" height="46" as="geometry" />
        </mxCell>
        <mxCell id="32m44d9N0e-9UPWyHcc5-213" style="edgeStyle=orthogonalEdgeStyle;rounded=0;orthogonalLoop=1;jettySize=auto;html=1;curved=1;entryX=0.5;entryY=0;entryDx=0;entryDy=0;" edge="1" parent="1" source="32m44d9N0e-9UPWyHcc5-115" target="pGybzTgQX5mhtwK9b5BW-57">
          <mxGeometry relative="1" as="geometry">
            <mxPoint x="810" y="9760" as="targetPoint" />
          </mxGeometry>
        </mxCell>
        <mxCell id="32m44d9N0e-9UPWyHcc5-215" value="&lt;span style=&quot;font-size: 14px;&quot;&gt;&lt;font style=&quot;color: light-dark(rgb(0, 255, 0), rgb(0, 255, 0));&quot;&gt;创建&lt;/font&gt;&lt;/span&gt;&lt;div&gt;&lt;span style=&quot;font-size: 14px;&quot;&gt;&lt;font style=&quot;color: light-dark(rgb(0, 255, 0), rgb(255, 128, 0));&quot;&gt;ULocalPlayer是引擎对玩家的代表（Engine Object）&lt;/font&gt;&lt;/span&gt;&lt;/div&gt;&lt;div&gt;&lt;span style=&quot;font-size: 14px;&quot;&gt;&lt;font style=&quot;color: light-dark(rgb(0, 255, 0), rgb(255, 128, 0));&quot;&gt;APlayerController是游戏世界中玩家的代表（Game Object）&lt;/font&gt;&lt;/span&gt;&lt;/div&gt;" style="edgeLabel;html=1;align=center;verticalAlign=middle;resizable=0;points=[];" connectable="0" vertex="1" parent="32m44d9N0e-9UPWyHcc5-213">
          <mxGeometry x="0.876" y="-30" relative="1" as="geometry">
            <mxPoint as="offset" />
          </mxGeometry>
        </mxCell>
        <mxCell id="32m44d9N0e-9UPWyHcc5-216" value="Extends" style="endArrow=block;endSize=16;endFill=0;html=1;rounded=0;" edge="1" parent="1" source="32m44d9N0e-9UPWyHcc5-115" target="32m44d9N0e-9UPWyHcc5-217">
          <mxGeometry x="0.0039" width="160" relative="1" as="geometry">
            <mxPoint x="-238" y="9195.5" as="sourcePoint" />
            <mxPoint x="-350" y="9081.5" as="targetPoint" />
            <mxPoint as="offset" />
          </mxGeometry>
        </mxCell>
        <mxCell id="32m44d9N0e-9UPWyHcc5-217" value="&lt;span style=&quot;font-family: Inter, -apple-system, BlinkMacSystemFont, &amp;quot;Segoe UI&amp;quot;, Roboto, &amp;quot;Helvetica Neue&amp;quot;, Arial, sans-serif, &amp;quot;Apple Color Emoji&amp;quot;, &amp;quot;Segoe UI Emoji&amp;quot;, &amp;quot;Segoe UI Symbol&amp;quot;; font-weight: 400; text-align: start;&quot;&gt;&lt;font style=&quot;font-size: 18px;&quot;&gt;UPlayer&lt;/font&gt;&lt;/span&gt;" style="swimlane;fontStyle=1;align=center;verticalAlign=top;childLayout=stackLayout;horizontal=1;startSize=26;horizontalStack=0;resizeParent=1;resizeParentMax=0;resizeLast=0;collapsible=1;marginBottom=0;whiteSpace=wrap;html=1;" vertex="1" parent="1">
          <mxGeometry x="-480" y="9076" width="180" height="34" as="geometry" />
        </mxCell>
        <mxCell id="32m44d9N0e-9UPWyHcc5-218" value="" style="line;strokeWidth=1;fillColor=none;align=left;verticalAlign=middle;spacingTop=-1;spacingLeft=3;spacingRight=3;rotatable=0;labelPosition=right;points=[];portConstraint=eastwest;strokeColor=inherit;" vertex="1" parent="32m44d9N0e-9UPWyHcc5-217">
          <mxGeometry y="26" width="180" height="8" as="geometry" />
        </mxCell>
        <mxCell id="32m44d9N0e-9UPWyHcc5-221" value="Extends" style="endArrow=block;endSize=16;endFill=0;html=1;rounded=0;" edge="1" parent="1" source="32m44d9N0e-9UPWyHcc5-219" target="32m44d9N0e-9UPWyHcc5-217">
          <mxGeometry x="0.0039" width="160" relative="1" as="geometry">
            <mxPoint x="-222" y="9327.5" as="sourcePoint" />
            <mxPoint x="-320" y="9171.5" as="targetPoint" />
            <mxPoint as="offset" />
          </mxGeometry>
        </mxCell>
        <mxCell id="32m44d9N0e-9UPWyHcc5-223" value="" style="group" connectable="0" vertex="1" parent="1">
          <mxGeometry x="-580" y="9301.5" width="180" height="70" as="geometry" />
        </mxCell>
        <mxCell id="32m44d9N0e-9UPWyHcc5-219" value="&lt;span style=&quot;font-family: Inter, -apple-system, BlinkMacSystemFont, &amp;quot;Segoe UI&amp;quot;, Roboto, &amp;quot;Helvetica Neue&amp;quot;, Arial, sans-serif, &amp;quot;Apple Color Emoji&amp;quot;, &amp;quot;Segoe UI Emoji&amp;quot;, &amp;quot;Segoe UI Symbol&amp;quot;; font-weight: 400; text-align: start;&quot;&gt;&lt;font style=&quot;font-size: 18px;&quot;&gt;UNetConnection&lt;/font&gt;&lt;/span&gt;" style="swimlane;fontStyle=1;align=center;verticalAlign=top;childLayout=stackLayout;horizontal=1;startSize=26;horizontalStack=0;resizeParent=1;resizeParentMax=0;resizeLast=0;collapsible=1;marginBottom=0;whiteSpace=wrap;html=1;" vertex="1" parent="32m44d9N0e-9UPWyHcc5-223">
          <mxGeometry width="180" height="34" as="geometry" />
        </mxCell>
        <mxCell id="32m44d9N0e-9UPWyHcc5-220" value="" style="line;strokeWidth=1;fillColor=none;align=left;verticalAlign=middle;spacingTop=-1;spacingLeft=3;spacingRight=3;rotatable=0;labelPosition=right;points=[];portConstraint=eastwest;strokeColor=inherit;" vertex="1" parent="32m44d9N0e-9UPWyHcc5-219">
          <mxGeometry y="26" width="180" height="8" as="geometry" />
        </mxCell>
        <mxCell id="32m44d9N0e-9UPWyHcc5-222" value="&lt;font color=&quot;#ce6100&quot;&gt;远程进程连接的玩家&lt;/font&gt;" style="shape=note;whiteSpace=wrap;html=1;backgroundOutline=1;fontColor=#000000;darkOpacity=0.05;fillColor=#FFF9B2;strokeColor=none;fillStyle=solid;direction=west;gradientDirection=north;gradientColor=#FFF2A1;shadow=1;size=20;pointerEvents=1;" vertex="1" parent="32m44d9N0e-9UPWyHcc5-223">
          <mxGeometry x="50" y="34" width="130" height="36" as="geometry" />
        </mxCell>
        <mxCell id="32m44d9N0e-9UPWyHcc5-239" style="edgeStyle=orthogonalEdgeStyle;rounded=0;orthogonalLoop=1;jettySize=auto;html=1;curved=1;" edge="1" parent="1" source="32m44d9N0e-9UPWyHcc5-228" target="pGybzTgQX5mhtwK9b5BW-57">
          <mxGeometry relative="1" as="geometry">
            <Array as="points">
              <mxPoint x="1240" y="10020" />
              <mxPoint x="1630" y="10020" />
            </Array>
          </mxGeometry>
        </mxCell>
        <mxCell id="32m44d9N0e-9UPWyHcc5-241" value="驱动" style="edgeLabel;html=1;align=center;verticalAlign=middle;resizable=0;points=[];" connectable="0" vertex="1" parent="32m44d9N0e-9UPWyHcc5-239">
          <mxGeometry x="0.0281" y="-2" relative="1" as="geometry">
            <mxPoint as="offset" />
          </mxGeometry>
        </mxCell>
        <mxCell id="32m44d9N0e-9UPWyHcc5-242" value="&lt;font style=&quot;font-size: 14px; color: light-dark(rgb(0, 0, 0), rgb(0, 255, 0));&quot;&gt;被驱动&lt;/font&gt;" style="edgeLabel;html=1;align=center;verticalAlign=middle;resizable=0;points=[];" connectable="0" vertex="1" parent="32m44d9N0e-9UPWyHcc5-239">
          <mxGeometry x="0.0248" y="-1" relative="1" as="geometry">
            <mxPoint as="offset" />
          </mxGeometry>
        </mxCell>
        <mxCell id="32m44d9N0e-9UPWyHcc5-228" value="&lt;span style=&quot;font-family: Inter, -apple-system, BlinkMacSystemFont, &amp;quot;Segoe UI&amp;quot;, Roboto, &amp;quot;Helvetica Neue&amp;quot;, Arial, sans-serif, &amp;quot;Apple Color Emoji&amp;quot;, &amp;quot;Segoe UI Emoji&amp;quot;, &amp;quot;Segoe UI Symbol&amp;quot;; font-weight: 400; text-align: start;&quot;&gt;&lt;font style=&quot;font-size: 18px;&quot;&gt;APawn&lt;/font&gt;&lt;/span&gt;" style="swimlane;fontStyle=1;align=center;verticalAlign=top;childLayout=stackLayout;horizontal=1;startSize=26;horizontalStack=0;resizeParent=1;resizeParentMax=0;resizeLast=0;collapsible=1;marginBottom=0;whiteSpace=wrap;html=1;" vertex="1" parent="1">
          <mxGeometry x="1150" y="10080" width="180" height="34" as="geometry" />
        </mxCell>
        <mxCell id="32m44d9N0e-9UPWyHcc5-229" value="" style="line;strokeWidth=1;fillColor=none;align=left;verticalAlign=middle;spacingTop=-1;spacingLeft=3;spacingRight=3;rotatable=0;labelPosition=right;points=[];portConstraint=eastwest;strokeColor=inherit;" vertex="1" parent="32m44d9N0e-9UPWyHcc5-228">
          <mxGeometry y="26" width="180" height="8" as="geometry" />
        </mxCell>
        <mxCell id="32m44d9N0e-9UPWyHcc5-230" style="rounded=0;orthogonalLoop=1;jettySize=auto;html=1;" edge="1" parent="1" source="32m44d9N0e-9UPWyHcc5-138" target="32m44d9N0e-9UPWyHcc5-228">
          <mxGeometry relative="1" as="geometry">
            <mxPoint x="770" y="10120" as="sourcePoint" />
            <mxPoint x="1060" y="10361" as="targetPoint" />
          </mxGeometry>
        </mxCell>
        <mxCell id="32m44d9N0e-9UPWyHcc5-231" value="&lt;font face=&quot;Helvetica&quot; style=&quot;font-size: 14px; color: light-dark(rgb(0, 0, 0), rgb(102, 204, 0));&quot;&gt;创建&lt;/font&gt;&lt;div&gt;&lt;font style=&quot;color: light-dark(rgb(102, 204, 0), rgb(255, 0, 0));&quot;&gt;&lt;span style=&quot;font-size: 14px;&quot;&gt;当新玩家加入游戏后，默认GameMode实现会生成一个新的APlayerController所属的APawn；&lt;/span&gt;&lt;/font&gt;&lt;/div&gt;&lt;div&gt;&lt;font color=&quot;#ff0000&quot;&gt;&lt;span style=&quot;font-size: 14px;&quot;&gt;也可以以观众身份进入，不生成APawn&lt;/span&gt;&lt;/font&gt;&lt;/div&gt;" style="edgeLabel;html=1;align=center;verticalAlign=middle;resizable=0;points=[];" connectable="0" vertex="1" parent="32m44d9N0e-9UPWyHcc5-230">
          <mxGeometry x="0.371" y="2" relative="1" as="geometry">
            <mxPoint x="3" as="offset" />
          </mxGeometry>
        </mxCell>
        <mxCell id="pGybzTgQX5mhtwK9b5BW-31" style="rounded=0;orthogonalLoop=1;jettySize=auto;html=1;dashed=1;dashPattern=8 8;" edge="1" parent="1" source="pGybzTgQX5mhtwK9b5BW-47" target="pGybzTgQX5mhtwK9b5BW-40">
          <mxGeometry relative="1" as="geometry" />
        </mxCell>
        <mxCell id="pGybzTgQX5mhtwK9b5BW-32" value="&lt;font style=&quot;font-size: 14px;&quot;&gt;用于跟踪当前加载的world&lt;/font&gt;" style="edgeLabel;html=1;align=center;verticalAlign=middle;resizable=0;points=[];" connectable="0" vertex="1" parent="pGybzTgQX5mhtwK9b5BW-31">
          <mxGeometry x="0.3246" y="2" relative="1" as="geometry">
            <mxPoint as="offset" />
          </mxGeometry>
        </mxCell>
        <mxCell id="pGybzTgQX5mhtwK9b5BW-6" value="&lt;font style=&quot;color: light-dark(rgb(186, 105, 34), rgb(0, 0, 0));&quot;&gt;&lt;span style=&quot;font-size: 16px;&quot;&gt;GEngineLoop::Init()阶段&lt;/span&gt;&lt;/font&gt;" style="shape=note;whiteSpace=wrap;html=1;backgroundOutline=1;darkOpacity=0.05;fillStyle=solid;direction=west;gradientDirection=north;shadow=1;size=20;pointerEvents=1;fillColor=light-dark(#F5F5F5,#00FF00);strokeColor=#666666;fontColor=#333333;align=right;" vertex="1" parent="1">
          <mxGeometry x="1643.3969080369643" y="8666" width="273.1030919630358" height="47.210629718599854" as="geometry" />
        </mxCell>
        <mxCell id="pGybzTgQX5mhtwK9b5BW-2" value="&lt;font style=&quot;color: light-dark(rgb(186, 105, 34), rgb(0, 0, 0));&quot;&gt;&lt;span style=&quot;font-size: 16px;&quot;&gt;GEngineLoop::PreInit()阶段&lt;/span&gt;&lt;/font&gt;" style="shape=note;whiteSpace=wrap;html=1;backgroundOutline=1;darkOpacity=0.05;fillStyle=solid;direction=west;gradientDirection=north;shadow=1;size=20;pointerEvents=1;fillColor=light-dark(#F5F5F5,#00FF00);strokeColor=#666666;fontColor=#333333;align=right;" vertex="1" parent="1">
          <mxGeometry x="1646.9" y="8170" width="273.1034482758621" height="39.68893617021276" as="geometry" />
        </mxCell>
        <mxCell id="pGybzTgQX5mhtwK9b5BW-7" value="&lt;span style=&quot;font-family: Inter, -apple-system, BlinkMacSystemFont, &amp;quot;Segoe UI&amp;quot;, Roboto, &amp;quot;Helvetica Neue&amp;quot;, Arial, sans-serif, &amp;quot;Apple Color Emoji&amp;quot;, &amp;quot;Segoe UI Emoji&amp;quot;, &amp;quot;Segoe UI Symbol&amp;quot;; font-weight: 400; text-align: start;&quot;&gt;&lt;font style=&quot;font-size: 18px;&quot;&gt;UEditorEngine&lt;/font&gt;&lt;/span&gt;" style="swimlane;fontStyle=1;align=center;verticalAlign=top;childLayout=stackLayout;horizontal=1;startSize=26;horizontalStack=0;resizeParent=1;resizeParentMax=0;resizeLast=0;collapsible=1;marginBottom=0;whiteSpace=wrap;html=1;" vertex="1" parent="1">
          <mxGeometry x="970" y="9010" width="160" height="34" as="geometry" />
        </mxCell>
        <mxCell id="pGybzTgQX5mhtwK9b5BW-8" value="" style="line;strokeWidth=1;fillColor=none;align=left;verticalAlign=middle;spacingTop=-1;spacingLeft=3;spacingRight=3;rotatable=0;labelPosition=right;points=[];portConstraint=eastwest;strokeColor=inherit;" vertex="1" parent="pGybzTgQX5mhtwK9b5BW-7">
          <mxGeometry y="26" width="160" height="8" as="geometry" />
        </mxCell>
        <mxCell id="pGybzTgQX5mhtwK9b5BW-22" style="edgeStyle=orthogonalEdgeStyle;rounded=0;orthogonalLoop=1;jettySize=auto;html=1;" edge="1" parent="1" source="pGybzTgQX5mhtwK9b5BW-9" target="pGybzTgQX5mhtwK9b5BW-21">
          <mxGeometry relative="1" as="geometry" />
        </mxCell>
        <mxCell id="pGybzTgQX5mhtwK9b5BW-9" value="&lt;span style=&quot;font-family: Inter, -apple-system, BlinkMacSystemFont, &amp;quot;Segoe UI&amp;quot;, Roboto, &amp;quot;Helvetica Neue&amp;quot;, Arial, sans-serif, &amp;quot;Apple Color Emoji&amp;quot;, &amp;quot;Segoe UI Emoji&amp;quot;, &amp;quot;Segoe UI Symbol&amp;quot;; font-weight: 400; text-align: start;&quot;&gt;&lt;font style=&quot;font-size: 18px;&quot;&gt;UEngine&lt;/font&gt;&lt;/span&gt;" style="swimlane;fontStyle=1;align=center;verticalAlign=top;childLayout=stackLayout;horizontal=1;startSize=26;horizontalStack=0;resizeParent=1;resizeParentMax=0;resizeLast=0;collapsible=1;marginBottom=0;whiteSpace=wrap;html=1;" vertex="1" parent="1">
          <mxGeometry x="788" y="8770.999999999998" width="160" height="34" as="geometry" />
        </mxCell>
        <mxCell id="pGybzTgQX5mhtwK9b5BW-10" value="" style="line;strokeWidth=1;fillColor=none;align=left;verticalAlign=middle;spacingTop=-1;spacingLeft=3;spacingRight=3;rotatable=0;labelPosition=right;points=[];portConstraint=eastwest;strokeColor=inherit;" vertex="1" parent="pGybzTgQX5mhtwK9b5BW-9">
          <mxGeometry y="26" width="160" height="8" as="geometry" />
        </mxCell>
        <mxCell id="pGybzTgQX5mhtwK9b5BW-13" value="Extends" style="endArrow=block;endSize=16;endFill=0;html=1;rounded=0;" edge="1" parent="1" source="pGybzTgQX5mhtwK9b5BW-7" target="pGybzTgQX5mhtwK9b5BW-9">
          <mxGeometry x="0.0039" width="160" relative="1" as="geometry">
            <mxPoint x="1240" y="9052" as="sourcePoint" />
            <mxPoint x="1128" y="8938" as="targetPoint" />
            <mxPoint as="offset" />
          </mxGeometry>
        </mxCell>
        <mxCell id="pGybzTgQX5mhtwK9b5BW-14" value="Extends" style="endArrow=block;endSize=16;endFill=0;html=1;rounded=0;" edge="1" parent="1" source="32m44d9N0e-9UPWyHcc5-106" target="pGybzTgQX5mhtwK9b5BW-9">
          <mxGeometry x="0.0039" width="160" relative="1" as="geometry">
            <mxPoint x="1042" y="9009" as="sourcePoint" />
            <mxPoint x="930" y="8930" as="targetPoint" />
            <mxPoint as="offset" />
          </mxGeometry>
        </mxCell>
        <mxCell id="pGybzTgQX5mhtwK9b5BW-15" value="&lt;div&gt;检查配置文件Engine.Engine，选择使用哪个&lt;span style=&quot;font-family: Inter, -apple-system, BlinkMacSystemFont, &amp;quot;Segoe UI&amp;quot;, Roboto, &amp;quot;Helvetica Neue&amp;quot;, Arial, sans-serif, &amp;quot;Apple Color Emoji&amp;quot;, &amp;quot;Segoe UI Emoji&amp;quot;, &amp;quot;Segoe UI Symbol&amp;quot;; font-size: 18px; text-align: start; background-color: transparent; color: light-dark(rgb(0, 0, 0), rgb(237, 237, 237));&quot;&gt;GameEngine&lt;/span&gt;&lt;/div&gt;" style="shape=note;whiteSpace=wrap;html=1;backgroundOutline=1;fontColor=#000000;darkOpacity=0.05;fillColor=#FFF9B2;strokeColor=none;fillStyle=solid;direction=west;gradientDirection=north;gradientColor=#FFF2A1;shadow=1;size=20;pointerEvents=1;" vertex="1" parent="1">
          <mxGeometry x="772.5" y="8804" width="235" height="56" as="geometry" />
        </mxCell>
        <mxCell id="pGybzTgQX5mhtwK9b5BW-17" value="&lt;div style=&quot;text-align: start;&quot;&gt;&lt;span style=&quot;background-color: transparent; color: light-dark(rgb(0, 0, 0), rgb(255, 255, 255)); font-size: 18px;&quot;&gt;&lt;font face=&quot;Inter, -apple-system, BlinkMacSystemFont, Segoe UI, Roboto, Helvetica Neue, Arial, sans-serif, Apple Color Emoji, Segoe UI Emoji, Segoe UI Symbol&quot;&gt;Browse&lt;/font&gt;&lt;/span&gt;&lt;/div&gt;" style="rounded=0;whiteSpace=wrap;html=1;" vertex="1" parent="1">
          <mxGeometry x="1260" y="8680" width="170" height="60" as="geometry" />
        </mxCell>
        <mxCell id="pGybzTgQX5mhtwK9b5BW-18" value="&lt;span style=&quot;box-sizing: border-box; font-family: Inter, -apple-system, BlinkMacSystemFont, &amp;quot;Segoe UI&amp;quot;, Roboto, &amp;quot;Helvetica Neue&amp;quot;, Arial, sans-serif, &amp;quot;Apple Color Emoji&amp;quot;, &amp;quot;Segoe UI Emoji&amp;quot;, &amp;quot;Segoe UI Symbol&amp;quot;; text-align: start;&quot; data-immersive-translate-walked=&quot;b958de76-de91-4721-9d93-d3ea6e5aa7ce&quot;&gt;&lt;font style=&quot;font-size: 18px;&quot;&gt;LoadMap&lt;/font&gt;&lt;/span&gt;" style="rounded=0;whiteSpace=wrap;html=1;" vertex="1" parent="1">
          <mxGeometry x="1260" y="8836" width="170" height="60" as="geometry" />
        </mxCell>
        <mxCell id="pGybzTgQX5mhtwK9b5BW-19" style="edgeStyle=orthogonalEdgeStyle;rounded=0;orthogonalLoop=1;jettySize=auto;html=1;entryX=0;entryY=0.5;entryDx=0;entryDy=0;" edge="1" parent="1" source="pGybzTgQX5mhtwK9b5BW-21" target="pGybzTgQX5mhtwK9b5BW-17">
          <mxGeometry relative="1" as="geometry" />
        </mxCell>
        <mxCell id="pGybzTgQX5mhtwK9b5BW-20" style="edgeStyle=orthogonalEdgeStyle;rounded=0;orthogonalLoop=1;jettySize=auto;html=1;entryX=0;entryY=0.75;entryDx=0;entryDy=0;" edge="1" parent="1" source="pGybzTgQX5mhtwK9b5BW-21" target="pGybzTgQX5mhtwK9b5BW-18">
          <mxGeometry relative="1" as="geometry" />
        </mxCell>
        <mxCell id="pGybzTgQX5mhtwK9b5BW-21" value="&lt;div style=&quot;text-align: start;&quot;&gt;&lt;span style=&quot;background-color: transparent; color: light-dark(rgb(0, 0, 0), rgb(255, 255, 255)); font-size: 18px;&quot;&gt;&lt;font face=&quot;Inter, -apple-system, BlinkMacSystemFont, Segoe UI, Roboto, Helvetica Neue, Arial, sans-serif, Apple Color Emoji, Segoe UI Emoji, Segoe UI Symbol&quot;&gt;主要功能&lt;/font&gt;&lt;/span&gt;&lt;/div&gt;" style="rounded=0;whiteSpace=wrap;html=1;strokeColor=none;" vertex="1" parent="1">
          <mxGeometry x="1060" y="8771" width="85" height="32" as="geometry" />
        </mxCell>
        <mxCell id="pGybzTgQX5mhtwK9b5BW-23" value="&lt;div&gt;用来加载Map；采用浏览URL方式(URL代表连接的服务器地址、本地加载的Map名字)，检查配置文件DefaultEngine.ini&lt;/div&gt;" style="shape=note;whiteSpace=wrap;html=1;backgroundOutline=1;fontColor=#000000;darkOpacity=0.05;fillColor=#FFF9B2;strokeColor=none;fillStyle=solid;direction=west;gradientDirection=north;gradientColor=#FFF2A1;shadow=1;size=20;pointerEvents=1;" vertex="1" parent="1">
          <mxGeometry x="1245" y="8740" width="235" height="56" as="geometry" />
        </mxCell>
        <mxCell id="pGybzTgQX5mhtwK9b5BW-24" style="rounded=0;orthogonalLoop=1;jettySize=auto;html=1;exitX=0;exitY=0.75;exitDx=0;exitDy=0;" edge="1" parent="1" source="pGybzTgQX5mhtwK9b5BW-9" target="pGybzTgQX5mhtwK9b5BW-65">
          <mxGeometry relative="1" as="geometry">
            <mxPoint x="511" y="8832" as="sourcePoint" />
            <mxPoint x="160" y="9076" as="targetPoint" />
          </mxGeometry>
        </mxCell>
        <mxCell id="pGybzTgQX5mhtwK9b5BW-25" value="&lt;font style=&quot;font-size: 14px; color: light-dark(rgb(0, 0, 0), rgb(102, 204, 0));&quot;&gt;创建&lt;/font&gt;" style="edgeLabel;html=1;align=center;verticalAlign=middle;resizable=0;points=[];" connectable="0" vertex="1" parent="pGybzTgQX5mhtwK9b5BW-24">
          <mxGeometry x="0.371" y="2" relative="1" as="geometry">
            <mxPoint as="offset" />
          </mxGeometry>
        </mxCell>
        <mxCell id="pGybzTgQX5mhtwK9b5BW-26" style="rounded=0;orthogonalLoop=1;jettySize=auto;html=1;exitX=0;exitY=0.5;exitDx=0;exitDy=0;" edge="1" parent="1" source="pGybzTgQX5mhtwK9b5BW-9" target="32m44d9N0e-9UPWyHcc5-111">
          <mxGeometry relative="1" as="geometry">
            <mxPoint x="1026" y="8970" as="sourcePoint" />
            <mxPoint x="680" y="9288" as="targetPoint" />
          </mxGeometry>
        </mxCell>
        <mxCell id="pGybzTgQX5mhtwK9b5BW-27" value="&lt;font style=&quot;font-size: 14px; color: light-dark(rgb(0, 0, 0), rgb(102, 204, 0));&quot;&gt;创建&lt;/font&gt;" style="edgeLabel;html=1;align=center;verticalAlign=middle;resizable=0;points=[];" connectable="0" vertex="1" parent="pGybzTgQX5mhtwK9b5BW-26">
          <mxGeometry x="0.371" y="2" relative="1" as="geometry">
            <mxPoint as="offset" />
          </mxGeometry>
        </mxCell>
        <mxCell id="pGybzTgQX5mhtwK9b5BW-28" style="rounded=0;orthogonalLoop=1;jettySize=auto;html=1;" edge="1" parent="1" source="pGybzTgQX5mhtwK9b5BW-66" target="32m44d9N0e-9UPWyHcc5-217">
          <mxGeometry relative="1" as="geometry">
            <mxPoint x="1137" y="8990" as="sourcePoint" />
            <mxPoint x="440" y="9316" as="targetPoint" />
          </mxGeometry>
        </mxCell>
        <mxCell id="pGybzTgQX5mhtwK9b5BW-29" value="&lt;font style=&quot;font-size: 14px; color: light-dark(rgb(0, 0, 0), rgb(102, 204, 0));&quot;&gt;创建&lt;/font&gt;" style="edgeLabel;html=1;align=center;verticalAlign=middle;resizable=0;points=[];" connectable="0" vertex="1" parent="pGybzTgQX5mhtwK9b5BW-28">
          <mxGeometry x="0.371" y="2" relative="1" as="geometry">
            <mxPoint x="-96" y="8" as="offset" />
          </mxGeometry>
        </mxCell>
        <mxCell id="pGybzTgQX5mhtwK9b5BW-34" value="&lt;span style=&quot;font-family: Inter, -apple-system, BlinkMacSystemFont, &amp;quot;Segoe UI&amp;quot;, Roboto, &amp;quot;Helvetica Neue&amp;quot;, Arial, sans-serif, &amp;quot;Apple Color Emoji&amp;quot;, &amp;quot;Segoe UI Emoji&amp;quot;, &amp;quot;Segoe UI Symbol&amp;quot;; font-size: 18px; font-weight: 400; text-align: start;&quot;&gt;ULevel&lt;/span&gt;" style="swimlane;fontStyle=1;align=center;verticalAlign=top;childLayout=stackLayout;horizontal=1;startSize=26;horizontalStack=0;resizeParent=1;resizeParentMax=0;resizeLast=0;collapsible=1;marginBottom=0;whiteSpace=wrap;html=1;" vertex="1" parent="1">
          <mxGeometry x="-420" y="9800" width="180" height="78" as="geometry" />
        </mxCell>
        <mxCell id="pGybzTgQX5mhtwK9b5BW-35" value="+ OwningWorld: UWorld&lt;div&gt;+ Actors: AActor&lt;/div&gt;" style="text;strokeColor=none;fillColor=none;align=left;verticalAlign=top;spacingLeft=4;spacingRight=4;overflow=hidden;rotatable=0;points=[[0,0.5],[1,0.5]];portConstraint=eastwest;whiteSpace=wrap;html=1;" vertex="1" parent="pGybzTgQX5mhtwK9b5BW-34">
          <mxGeometry y="26" width="180" height="44" as="geometry" />
        </mxCell>
        <mxCell id="pGybzTgQX5mhtwK9b5BW-36" value="" style="line;strokeWidth=1;fillColor=none;align=left;verticalAlign=middle;spacingTop=-1;spacingLeft=3;spacingRight=3;rotatable=0;labelPosition=right;points=[];portConstraint=eastwest;strokeColor=inherit;" vertex="1" parent="pGybzTgQX5mhtwK9b5BW-34">
          <mxGeometry y="70" width="180" height="8" as="geometry" />
        </mxCell>
        <mxCell id="pGybzTgQX5mhtwK9b5BW-39" value="Use" style="endArrow=open;endSize=12;dashed=1;html=1;rounded=0;" edge="1" parent="1" source="pGybzTgQX5mhtwK9b5BW-35" target="pGybzTgQX5mhtwK9b5BW-40">
          <mxGeometry width="160" relative="1" as="geometry">
            <mxPoint x="-220" y="9730" as="sourcePoint" />
            <mxPoint x="-60" y="9730" as="targetPoint" />
          </mxGeometry>
        </mxCell>
        <mxCell id="pGybzTgQX5mhtwK9b5BW-40" value="&lt;span style=&quot;font-family: Inter, -apple-system, BlinkMacSystemFont, &amp;quot;Segoe UI&amp;quot;, Roboto, &amp;quot;Helvetica Neue&amp;quot;, Arial, sans-serif, &amp;quot;Apple Color Emoji&amp;quot;, &amp;quot;Segoe UI Emoji&amp;quot;, &amp;quot;Segoe UI Symbol&amp;quot;; font-size: 18px; font-weight: 400; text-align: start;&quot;&gt;UWorld&lt;/span&gt;" style="swimlane;fontStyle=1;align=center;verticalAlign=top;childLayout=stackLayout;horizontal=1;startSize=26;horizontalStack=0;resizeParent=1;resizeParentMax=0;resizeLast=0;collapsible=1;marginBottom=0;whiteSpace=wrap;html=1;" vertex="1" parent="1">
          <mxGeometry x="-390" y="9668" width="250" height="78" as="geometry" />
        </mxCell>
        <mxCell id="pGybzTgQX5mhtwK9b5BW-41" value="+ OwningGameInstance: GameInstance&lt;div&gt;+ AuthorityGameMode: AGameModeBase&lt;/div&gt;" style="text;strokeColor=none;fillColor=none;align=left;verticalAlign=top;spacingLeft=4;spacingRight=4;overflow=hidden;rotatable=0;points=[[0,0.5],[1,0.5]];portConstraint=eastwest;whiteSpace=wrap;html=1;" vertex="1" parent="pGybzTgQX5mhtwK9b5BW-40">
          <mxGeometry y="26" width="250" height="44" as="geometry" />
        </mxCell>
        <mxCell id="pGybzTgQX5mhtwK9b5BW-42" value="" style="line;strokeWidth=1;fillColor=none;align=left;verticalAlign=middle;spacingTop=-1;spacingLeft=3;spacingRight=3;rotatable=0;labelPosition=right;points=[];portConstraint=eastwest;strokeColor=inherit;" vertex="1" parent="pGybzTgQX5mhtwK9b5BW-40">
          <mxGeometry y="70" width="250" height="8" as="geometry" />
        </mxCell>
        <mxCell id="pGybzTgQX5mhtwK9b5BW-43" value="Use" style="endArrow=open;endSize=12;dashed=1;html=1;rounded=0;entryX=0;entryY=1;entryDx=0;entryDy=0;" edge="1" parent="1" source="pGybzTgQX5mhtwK9b5BW-41" target="pGybzTgQX5mhtwK9b5BW-65">
          <mxGeometry width="160" relative="1" as="geometry">
            <mxPoint x="-240" y="9850" as="sourcePoint" />
            <mxPoint x="-209" y="9770" as="targetPoint" />
          </mxGeometry>
        </mxCell>
        <mxCell id="pGybzTgQX5mhtwK9b5BW-47" value="&lt;span style=&quot;font-family: Inter, -apple-system, BlinkMacSystemFont, &amp;quot;Segoe UI&amp;quot;, Roboto, &amp;quot;Helvetica Neue&amp;quot;, Arial, sans-serif, &amp;quot;Apple Color Emoji&amp;quot;, &amp;quot;Segoe UI Emoji&amp;quot;, &amp;quot;Segoe UI Symbol&amp;quot;; font-size: 18px; font-weight: 400; text-align: start;&quot;&gt;FWorldContext&lt;/span&gt;" style="swimlane;fontStyle=1;align=center;verticalAlign=top;childLayout=stackLayout;horizontal=1;startSize=26;horizontalStack=0;resizeParent=1;resizeParentMax=0;resizeLast=0;collapsible=1;marginBottom=0;whiteSpace=wrap;html=1;" vertex="1" parent="1">
          <mxGeometry x="260" y="9430" width="200" height="80" as="geometry" />
        </mxCell>
        <mxCell id="pGybzTgQX5mhtwK9b5BW-49" value="" style="line;strokeWidth=1;fillColor=none;align=left;verticalAlign=middle;spacingTop=-1;spacingLeft=3;spacingRight=3;rotatable=0;labelPosition=right;points=[];portConstraint=eastwest;strokeColor=inherit;" vertex="1" parent="pGybzTgQX5mhtwK9b5BW-47">
          <mxGeometry y="26" width="200" height="8" as="geometry" />
        </mxCell>
        <mxCell id="pGybzTgQX5mhtwK9b5BW-50" value="+ SetCurrentWorld(UWorld): void&lt;div&gt;+ SetGameMode(URL): void&lt;/div&gt;" style="text;strokeColor=none;fillColor=none;align=left;verticalAlign=top;spacingLeft=4;spacingRight=4;overflow=hidden;rotatable=0;points=[[0,0.5],[1,0.5]];portConstraint=eastwest;whiteSpace=wrap;html=1;" vertex="1" parent="pGybzTgQX5mhtwK9b5BW-47">
          <mxGeometry y="34" width="200" height="46" as="geometry" />
        </mxCell>
        <mxCell id="pGybzTgQX5mhtwK9b5BW-51" style="rounded=0;orthogonalLoop=1;jettySize=auto;html=1;dashed=1;dashPattern=8 8;" edge="1" parent="1" source="pGybzTgQX5mhtwK9b5BW-41" target="32m44d9N0e-9UPWyHcc5-138">
          <mxGeometry relative="1" as="geometry">
            <mxPoint x="-20.004946236559363" y="9642.5" as="sourcePoint" />
            <mxPoint x="616.2047311827953" y="9789.5" as="targetPoint" />
          </mxGeometry>
        </mxCell>
        <mxCell id="pGybzTgQX5mhtwK9b5BW-53" value="&lt;div&gt;当调用SetGameMode时，UWorld会询问GameInstance，&lt;/div&gt;&lt;div&gt;在UWorld中创建GameMode Actor&lt;/div&gt;" style="edgeLabel;html=1;align=center;verticalAlign=middle;resizable=0;points=[];" connectable="0" vertex="1" parent="pGybzTgQX5mhtwK9b5BW-51">
          <mxGeometry x="0.1125" relative="1" as="geometry">
            <mxPoint x="-134" y="-40" as="offset" />
          </mxGeometry>
        </mxCell>
        <mxCell id="pGybzTgQX5mhtwK9b5BW-54" value="&lt;span style=&quot;font-family: Inter, -apple-system, BlinkMacSystemFont, &amp;quot;Segoe UI&amp;quot;, Roboto, &amp;quot;Helvetica Neue&amp;quot;, Arial, sans-serif, &amp;quot;Apple Color Emoji&amp;quot;, &amp;quot;Segoe UI Emoji&amp;quot;, &amp;quot;Segoe UI Symbol&amp;quot;; font-size: 18px; font-weight: 400; text-align: start;&quot;&gt;UActorComponent&lt;/span&gt;" style="swimlane;fontStyle=1;align=center;verticalAlign=top;childLayout=stackLayout;horizontal=1;startSize=26;horizontalStack=0;resizeParent=1;resizeParentMax=0;resizeLast=0;collapsible=1;marginBottom=0;whiteSpace=wrap;html=1;" vertex="1" parent="1">
          <mxGeometry x="-420" y="9960" width="250" height="58" as="geometry" />
        </mxCell>
        <mxCell id="pGybzTgQX5mhtwK9b5BW-55" value="+ Owning: UWorld" style="text;strokeColor=none;fillColor=none;align=left;verticalAlign=top;spacingLeft=4;spacingRight=4;overflow=hidden;rotatable=0;points=[[0,0.5],[1,0.5]];portConstraint=eastwest;whiteSpace=wrap;html=1;" vertex="1" parent="pGybzTgQX5mhtwK9b5BW-54">
          <mxGeometry y="26" width="250" height="24" as="geometry" />
        </mxCell>
        <mxCell id="pGybzTgQX5mhtwK9b5BW-56" value="" style="line;strokeWidth=1;fillColor=none;align=left;verticalAlign=middle;spacingTop=-1;spacingLeft=3;spacingRight=3;rotatable=0;labelPosition=right;points=[];portConstraint=eastwest;strokeColor=inherit;" vertex="1" parent="pGybzTgQX5mhtwK9b5BW-54">
          <mxGeometry y="50" width="250" height="8" as="geometry" />
        </mxCell>
        <mxCell id="pGybzTgQX5mhtwK9b5BW-60" style="rounded=0;orthogonalLoop=1;jettySize=auto;html=1;" edge="1" parent="1" source="pGybzTgQX5mhtwK9b5BW-57" target="32m44d9N0e-9UPWyHcc5-228">
          <mxGeometry relative="1" as="geometry" />
        </mxCell>
        <mxCell id="pGybzTgQX5mhtwK9b5BW-61" value="也可以创建，&lt;div&gt;&lt;font style=&quot;color: rgb(255, 0, 0);&quot;&gt;一般作为观众身份加入&lt;/font&gt;&lt;/div&gt;" style="edgeLabel;html=1;align=center;verticalAlign=middle;resizable=0;points=[];" connectable="0" vertex="1" parent="pGybzTgQX5mhtwK9b5BW-60">
          <mxGeometry x="0.1073" y="1" relative="1" as="geometry">
            <mxPoint as="offset" />
          </mxGeometry>
        </mxCell>
        <mxCell id="pGybzTgQX5mhtwK9b5BW-69" value="" style="group" connectable="0" vertex="1" parent="1">
          <mxGeometry x="240" y="8950" width="250" height="134" as="geometry" />
        </mxCell>
        <mxCell id="pGybzTgQX5mhtwK9b5BW-65" value="&lt;span style=&quot;font-family: Inter, -apple-system, BlinkMacSystemFont, &amp;quot;Segoe UI&amp;quot;, Roboto, &amp;quot;Helvetica Neue&amp;quot;, Arial, sans-serif, &amp;quot;Apple Color Emoji&amp;quot;, &amp;quot;Segoe UI Emoji&amp;quot;, &amp;quot;Segoe UI Symbol&amp;quot;; font-size: 18px; font-weight: 400; text-align: start;&quot;&gt;UGameInstance&lt;/span&gt;" style="swimlane;fontStyle=1;align=center;verticalAlign=top;childLayout=stackLayout;horizontal=1;startSize=26;horizontalStack=0;resizeParent=1;resizeParentMax=0;resizeLast=0;collapsible=1;marginBottom=0;whiteSpace=wrap;html=1;" vertex="1" parent="pGybzTgQX5mhtwK9b5BW-69">
          <mxGeometry width="250" height="78" as="geometry" />
        </mxCell>
        <mxCell id="pGybzTgQX5mhtwK9b5BW-66" value="+ Player: UPlayer" style="text;strokeColor=none;fillColor=none;align=left;verticalAlign=top;spacingLeft=4;spacingRight=4;overflow=hidden;rotatable=0;points=[[0,0.5],[1,0.5]];portConstraint=eastwest;whiteSpace=wrap;html=1;" vertex="1" parent="pGybzTgQX5mhtwK9b5BW-65">
          <mxGeometry y="26" width="250" height="44" as="geometry" />
        </mxCell>
        <mxCell id="pGybzTgQX5mhtwK9b5BW-67" value="" style="line;strokeWidth=1;fillColor=none;align=left;verticalAlign=middle;spacingTop=-1;spacingLeft=3;spacingRight=3;rotatable=0;labelPosition=right;points=[];portConstraint=eastwest;strokeColor=inherit;" vertex="1" parent="pGybzTgQX5mhtwK9b5BW-65">
          <mxGeometry y="70" width="250" height="8" as="geometry" />
        </mxCell>
        <mxCell id="pGybzTgQX5mhtwK9b5BW-68" value="&lt;div&gt;&lt;font style=&quot;color: light-dark(rgb(0, 0, 0), rgb(255, 128, 0));&quot;&gt;从UGameEngine中分离出来，&lt;/font&gt;&lt;/div&gt;&lt;div&gt;&lt;font style=&quot;color: light-dark(rgb(0, 0, 0), rgb(255, 128, 0));&quot;&gt;用于处理以前在引擎中处理特定于项目中的功能&lt;/font&gt;&lt;/div&gt;" style="shape=note;whiteSpace=wrap;html=1;backgroundOutline=1;fontColor=#000000;darkOpacity=0.05;fillColor=#FFF9B2;strokeColor=none;fillStyle=solid;direction=west;gradientDirection=north;gradientColor=#FFF2A1;shadow=1;size=20;pointerEvents=1;" vertex="1" parent="pGybzTgQX5mhtwK9b5BW-69">
          <mxGeometry x="7.5" y="78" width="235" height="56" as="geometry" />
        </mxCell>
      </root>
    </mxGraphModel>
  </diagram>
</mxfile>
